
<svg width="359px" height="171px" viewBox="0 0 359 171" version="1.1" xmlns="http://www.w3.org/2000/svg" xmlns:xlink="http://www.w3.org/1999/xlink">
    <!-- Generator: Sketch 39.1 (31720) - http://www.bohemiancoding.com/sketch -->
    <desc>Created with Sketch.</desc>
    <defs></defs>
    <path d="M9.24090376,108.726795 C12.348118,114.088208 17.1324501,116.768874 23.5940434,116.768874 C27.6192983,116.768874 30.7970834,115.834168 33.1274941,113.964728 C35.4579048,112.095288 36.6230927,109.502801 36.6230927,106.187191 C36.6230927,103.330122 35.9787085,100.764089 34.6899208,98.4890161 C33.401133,96.2139428 31.6621784,94.1328993 29.4730047,92.245823 C27.283831,90.3587468 24.3885157,88.2159773 20.7869718,85.8174505 C16.4086244,82.8898368 12.9395423,80.3502583 10.3796215,78.1986386 C7.81970062,76.0470189 5.7011772,73.5338943 4.02398768,70.6591894 C2.34679815,67.7844844 1.50821596,64.4777415 1.50821596,60.7388614 C1.50821596,56.2239873 2.73519411,52.4234375 5.18918721,49.3370978 C7.64318031,46.2507581 10.9004101,43.966901 14.9609742,42.4854579 C19.0215383,41.0040149 23.4880918,40.2633045 28.3607688,40.2633045 C32.5272607,40.2633045 35.8992438,40.6512956 38.4768192,41.4272896 C41.0543947,42.2032836 43.5436597,43.2614413 45.944689,44.6017946 C46.9686573,45.1661538 47.7277949,45.562963 48.2221244,45.7922339 C48.716454,46.0215049 49.1931217,46.1361386 49.652142,46.1361386 C50.3230178,46.1361386 50.8349943,45.7569654 51.1880869,44.9986077 C51.5411794,44.2402499 51.8236492,43.0321865 52.0355047,41.3743812 L54.5247946,41.3743812 C54.1717021,46.5594319 53.9951585,55.377413 53.9951585,67.8285891 L51.5058685,67.8285891 C51.2233945,63.701712 50.2788862,59.7512565 48.6723151,55.977104 C47.0657441,52.2029514 44.8854304,49.134294 42.1313087,46.7710396 C39.3771869,44.4077852 36.1994018,43.2261757 32.597858,43.2261757 C29.3140974,43.2261757 26.6482888,44.1079739 24.6003521,45.8715965 C22.5524154,47.6352192 21.5284624,50.1042539 21.5284624,53.2787748 C21.5284624,55.8889363 22.1375379,58.1287035 23.3557072,59.9981436 C24.5738764,61.8675836 26.2510408,63.6311798 28.3872506,65.2889851 C30.5234604,66.9467905 34.6104452,69.8743602 40.6483275,74.0717822 C44.6382731,76.858306 47.8160582,79.3008868 50.1817782,81.3995978 C52.5474981,83.4983088 54.4806508,85.9585255 55.981294,88.7803218 C57.4819373,91.6021181 58.2322477,94.8647711 58.2322477,98.5683787 C58.2322477,103.259615 56.9081705,107.218889 54.2599765,110.446318 C51.6117825,113.673748 48.0632558,116.081056 43.6142899,117.668317 C39.165324,119.255577 34.2044483,120.049196 28.7315141,120.049196 C24.2825482,120.049196 20.6016137,119.687658 17.6886004,118.964573 C14.775587,118.241488 12.0479881,117.262692 9.50572183,116.028156 C7.88149618,115.005255 6.66334522,114.493812 5.85123239,114.493812 C5.18035658,114.493812 4.66838009,114.864167 4.31528756,115.604889 C3.96219503,116.34561 3.66207088,117.562492 3.4149061,119.255569 L0.925616197,119.255569 C1.24339948,113.753067 1.40228873,103.277305 1.40228873,87.8279703 L3.89157864,87.8279703 C4.35059893,96.3991765 6.13368947,103.365382 9.24090376,108.726795 L9.24090376,108.726795 Z M125.443075,46.2948639 C124.383798,47.3530375 123.668796,48.966728 123.298049,51.1359839 C122.927302,53.3052398 122.741931,56.5414389 122.741931,60.8446782 L122.741931,118.514851 C121.682653,118.409034 120.499811,118.356126 119.193369,118.356126 C117.922235,118.356126 116.56285,118.409034 115.11517,118.514851 L67.0771714,66.0826114 L67.0771714,97.2985767 C67.0771714,102.624717 67.2890237,106.451721 67.7127347,108.779703 C68.1364458,111.107685 69.0897813,112.827191 70.57277,113.938274 C72.0557586,115.049356 74.5450236,115.851792 78.0406397,116.345606 L78.0406397,118.514851 C75.1452809,118.303217 71.0847777,118.197401 65.8590082,118.197401 C62.0456089,118.197401 59.0443674,118.303217 56.8551937,118.514851 L56.8551937,116.345606 C59.1149859,115.851792 60.7833231,115.07581 61.8602553,114.017636 C62.9371875,112.959463 63.6610163,111.345772 64.0317635,109.176516 C64.4025107,107.00726 64.5878815,103.771061 64.5878815,99.4678218 L64.5878815,53.2787748 C64.5878815,50.5627958 64.3936835,48.5875681 64.0052817,47.3530322 C63.6168799,46.1184963 62.9018783,45.2719701 61.8602553,44.8134282 C60.8186323,44.3548863 59.1502951,44.0727109 56.8551937,43.9668936 L56.8551937,41.7976485 C59.0443674,42.0092832 62.0456089,42.115099 65.8590082,42.115099 C69.8489538,42.115099 73.1856282,42.0092832 75.8691315,41.7976485 L120.199677,88.6215965 L120.199677,63.0139233 C120.199677,57.6877828 119.987825,53.860779 119.564114,51.532797 C119.140403,49.2048151 118.195894,47.4853088 116.73056,46.3742265 C115.265226,45.2631442 112.784789,44.4607079 109.289173,43.9668936 L109.289173,41.7976485 C112.219841,42.0092832 116.262689,42.115099 121.41784,42.115099 C125.266549,42.115099 128.26779,42.0092832 130.421655,41.7976485 L130.421655,43.9668936 C128.161863,44.4607079 126.502353,45.2366903 125.443075,46.2948639 L125.443075,46.2948639 Z M190.217576,44.919245 C196.361386,48.023221 201.128064,52.5292093 204.517752,58.4373453 C207.907441,64.3454813 209.602259,71.3734122 209.602259,79.521349 C209.602259,87.4929235 207.863305,94.5473084 204.385343,100.684715 C200.907382,106.822122 196.06126,111.583832 189.846831,114.969988 C183.632402,118.356143 176.553003,120.049196 168.608421,120.049196 C160.416675,120.049196 153.249004,118.497231 147.105194,115.393255 C140.961384,112.289279 136.194706,107.783291 132.805018,101.875155 C129.415329,95.9670187 127.720511,88.9390878 127.720511,80.791151 C127.720511,72.8195765 129.459465,65.7651916 132.937427,59.6277847 C136.415388,53.4903777 141.252683,48.7286679 147.449457,45.3425124 C153.646231,41.9563568 160.734457,40.2633045 168.714349,40.2633045 C176.906095,40.2633045 184.073766,41.8152691 190.217576,44.919245 L190.217576,44.919245 Z M162.91608,47.0620359 C160.232577,50.2894654 158.158189,54.7866358 156.692855,60.5536819 C155.227521,66.3207281 154.494865,72.925396 154.494865,80.3678837 C154.494865,87.8456438 155.32462,94.4503117 156.984155,100.182085 C158.64369,105.913859 160.885794,110.331668 163.710534,113.435644 C166.535274,116.539619 169.642442,118.091584 173.03213,118.091584 C176.598365,118.091584 179.723187,116.477894 182.40669,113.250464 C185.090193,110.023035 187.164581,105.525864 188.629915,99.7588181 C190.095249,93.9917719 190.827905,87.387104 190.827905,79.9446163 C190.827905,72.4668562 189.99815,65.8621883 188.338615,60.1304146 C186.67908,54.3986409 184.436976,49.9808324 181.612236,46.8768564 C178.787496,43.7728805 175.680328,42.2209158 172.29064,42.2209158 C168.724405,42.2209158 165.599583,43.8346064 162.91608,47.0620359 L162.91608,47.0620359 Z M307.161238,42.115099 C310.586236,42.115099 313.375625,42.0092832 315.529489,41.7976485 L315.529489,43.9668936 C311.25707,46.0479683 307.885087,51.1094895 305.413439,59.1516089 L287.193955,118.514851 C284.934163,118.373762 283.027492,118.303218 281.473885,118.303218 C280.026206,118.303218 278.137189,118.373762 275.806778,118.514851 L261.718457,75.5003094 L246.411972,118.514851 C244.15218,118.373762 242.245509,118.303218 240.691901,118.303218 C239.244222,118.303218 237.355205,118.373762 235.024795,118.514851 L209.867077,50.897896 C209.019655,48.6051866 208.013357,46.8944982 206.848151,45.7657797 C205.682946,44.6370612 204.553067,44.0374385 203.45848,43.9668936 L203.45848,41.7976485 C208.719559,42.0092832 215.128092,42.115099 222.684272,42.115099 C229.287103,42.115099 234.089089,42.0092832 237.090376,41.7976485 L237.090376,43.9668936 C235.183676,44.3548906 234.23034,45.8010395 234.23034,48.3053837 C234.23034,49.9279165 234.530465,51.5151531 235.130722,53.0671411 L250.913879,97.2456683 L260.394366,71.5321782 L253.032424,49.0461015 C252.467476,47.2824788 251.743647,46.0215075 250.860915,45.2631498 C249.978184,44.504792 248.865959,44.0727109 247.524208,43.9668936 L247.524208,41.7976485 C252.396885,42.0092832 258.646529,42.115099 266.273327,42.115099 C273.794198,42.115099 279.408285,42.0092832 283.115757,41.7976485 L283.115757,43.9668936 C280.467563,44.0374385 278.569719,44.3548858 277.422168,44.919245 C276.274618,45.4836043 275.700851,46.541762 275.700851,48.09375 C275.700851,49.2930134 276.071593,50.9507939 276.813087,53.0671411 L291.113263,96.5049505 L299.481514,69.7332921 C301.388214,63.4900678 302.341549,58.4461826 302.341549,54.6014851 C302.341549,50.9684224 301.538276,48.3142101 299.931705,46.6387686 C298.325134,44.963327 296.003585,44.0727109 292.966989,43.9668936 L292.966989,41.7976485 C298.369305,42.0092832 303.100674,42.115099 307.161238,42.115099 L307.161238,42.115099 Z" id="SNOW-Copy" stroke="none" fill="#565656" fill-rule="evenodd"></path>
    <path d="M33.7758904,148.578405 C36.3678102,149.639886 38.2546202,150.949356 39.4363767,152.506855 C40.6181333,154.064355 41.2090027,155.725993 41.2090027,157.49182 C41.2090027,161.459971 39.6151449,164.421159 36.4273813,166.375474 C33.2396178,168.329788 28.7261699,169.306931 22.8869021,169.306931 C22.0328596,169.306931 20.5234116,169.27717 18.3585131,169.217648 C16.1936145,169.158125 14.0088872,169.128365 11.8042657,169.128365 C7.03751651,169.128365 3.49229998,169.187886 1.16850976,169.306931 L1.16850976,168.08673 C2.47936578,168.027208 3.42773603,167.868484 4.01364895,167.610555 C4.59956187,167.352625 4.99678501,166.876454 5.20533029,166.182027 C5.41387557,165.487601 5.51814664,164.376535 5.51814664,162.848797 L5.51814664,132.611638 C5.51814664,131.083899 5.40891028,129.972834 5.19043427,129.278407 C4.97195827,128.583981 4.56976984,128.10781 3.98385692,127.84988 C3.397944,127.59195 2.45950433,127.433227 1.16850976,127.373704 L1.16850976,126.153504 C3.49229998,126.272549 6.9977942,126.33207 11.6850976,126.33207 C13.3534598,126.33207 15.210478,126.312229 17.2562078,126.272548 C19.3019377,126.232866 20.7120798,126.213026 21.4866766,126.213026 C25.1014614,126.213026 28.1451837,126.614795 30.6179348,127.418346 C33.090686,128.221896 34.9427389,129.342882 36.1741491,130.781337 C37.4055593,132.219792 38.0212551,133.89135 38.0212551,135.796063 C38.0212551,137.30396 37.4998998,138.811835 36.4571734,140.319732 C35.414447,141.82763 33.8305197,143.15198 31.705344,144.292824 C29.5801684,145.433667 26.9882874,146.192565 23.9296233,146.569539 L23.9296233,146.688583 C27.9019143,146.88699 31.1839705,147.516925 33.7758904,148.578405 L33.7758904,148.578405 Z M24.1530636,143.697604 C25.0170369,141.902016 25.449017,139.48644 25.449017,136.450804 C25.449017,133.375487 25.1213079,131.093835 24.4658799,129.605778 C23.8104519,128.117722 22.7180883,127.373704 21.1887562,127.373704 C20.2552679,127.373704 19.5551621,127.517548 19.0884179,127.805239 C18.6216737,128.09293 18.3038952,128.603821 18.1350728,129.337929 C17.9662504,130.072037 17.8818405,131.163262 17.8818405,132.611638 L17.8818405,146.390973 L19.5501944,146.390973 C21.7548159,146.390973 23.2890903,145.493192 24.1530636,143.697604 L24.1530636,143.697604 Z M18.1946569,166.092744 C18.4032022,166.787171 18.7805641,167.263342 19.3267541,167.521272 C19.8729442,167.779201 20.7220086,167.908164 21.873973,167.908164 C26.2236316,167.908164 28.3984283,164.346802 28.3984283,157.223971 C28.3984283,154.02961 27.6288085,151.599154 26.0895457,149.93253 C24.550283,148.265907 22.1023954,147.432608 18.7458095,147.432608 L17.8818405,147.432608 L17.8818405,162.848797 C17.8818405,164.317013 17.9861116,165.398318 18.1946569,166.092744 L18.1946569,166.092744 Z M82.6497212,127.909402 C86.1056144,129.655389 88.7868706,132.190007 90.6935703,135.513333 C92.60027,138.83666 93.5536055,142.789871 93.5536055,147.373086 C93.5536055,151.857096 92.5754435,155.825188 90.6190902,159.277479 C88.6627369,162.729771 85.9367931,165.408232 82.441177,167.312945 C78.9455609,169.217657 74.963399,170.169999 70.4945716,170.169999 C65.8867141,170.169999 61.8548992,169.297019 58.399006,167.551033 C54.9431129,165.805046 52.2618567,163.270428 50.355157,159.947101 C48.4484573,156.623775 47.4951218,152.670564 47.4951218,148.087349 C47.4951218,143.603339 48.4732838,139.635247 50.4296371,136.182956 C52.3859904,132.730664 55.1069689,130.052202 58.5926542,128.14749 C62.0783396,126.242777 66.0654668,125.290435 70.5541557,125.290435 C75.1620132,125.290435 79.1938281,126.163416 82.6497212,127.909402 L82.6497212,127.909402 Z M65.0426295,129.114722 C63.5331589,130.930151 62.3663159,133.459809 61.5420655,136.703773 C60.7178152,139.947736 60.3056962,143.662862 60.3056962,147.849261 C60.3056962,152.055501 60.7724333,155.770627 61.7059217,158.99475 C62.6394101,162.218872 63.9005936,164.70389 65.48951,166.449876 C67.0784264,168.195863 68.8262082,169.068843 70.7329079,169.068843 C72.7389148,169.068843 74.4966272,168.161142 76.0060978,166.345713 C77.5155684,164.530284 78.6824113,162.000625 79.5066617,158.756662 C80.3309121,155.512698 80.7430311,151.797573 80.7430311,147.611173 C80.7430311,143.404933 80.2762939,139.689808 79.3428055,136.465685 C78.4093171,133.241562 77.1481337,130.756545 75.5592173,129.010558 C73.9703009,127.264572 72.2225191,126.391592 70.3158194,126.391592 C68.3098124,126.391592 66.5521001,127.299293 65.0426295,129.114722 L65.0426295,129.114722 Z M137.556439,167.089737 C138.192005,167.714721 138.817632,168.047049 139.433337,168.08673 L139.433337,169.306931 C136.493842,169.187886 132.789736,169.128365 128.320909,169.128365 C123.673328,169.128365 120.257209,169.187886 118.072449,169.306931 L118.072449,168.08673 C119.601781,168.027208 120.69911,167.838724 121.364469,167.521272 C122.029827,167.20382 122.362502,166.648287 122.362502,165.854657 C122.362502,165.239593 122.114237,164.277331 121.617701,162.967841 L117.983073,152.968151 L105.678963,152.968151 L104.636242,155.706161 C103.325386,159.118771 102.669968,161.767472 102.669968,163.652344 C102.669968,165.318967 103.13174,166.459793 104.055297,167.074857 C104.978855,167.68992 106.35424,168.027208 108.181494,168.08673 L108.181494,169.306931 C105.142691,169.187886 102.481296,169.128365 100.197229,169.128365 C98.2706678,169.128365 96.7016364,169.187886 95.4900877,169.306931 L95.4900877,168.08673 C96.4831604,167.928004 97.4315307,167.30303 98.3352269,166.211788 C99.2389231,165.120547 100.157502,163.364666 101.09099,160.944094 L114.646365,126.153504 C115.520269,126.232867 116.592772,126.272548 117.863905,126.272548 C119.135038,126.272548 120.19761,126.232867 121.051652,126.153504 L135.828501,164.188041 C136.344899,165.497531 136.920872,166.464754 137.556439,167.089737 L137.556439,167.089737 Z M112.024666,136.510326 L106.155636,151.74795 L117.565984,151.74795 L112.024666,136.510326 Z M182.095529,169.425975 C180.625781,169.921994 178.917722,170.169999 176.971299,170.169999 C174.170834,170.169999 171.991072,169.669028 170.431948,168.66707 C168.872824,167.665111 167.914523,165.963792 167.557017,163.563061 L166.633464,157.49182 C166.216373,154.634751 165.660261,152.477102 164.96511,151.018806 C164.269959,149.560511 163.207387,148.831374 161.777362,148.831374 L159.006703,148.831374 L159.006703,162.848797 C159.006703,164.376535 159.115939,165.487601 159.334415,166.182027 C159.552891,166.876454 159.95508,167.352625 160.540993,167.610555 C161.126906,167.868484 162.065345,168.027208 163.35634,168.08673 L163.35634,169.306931 C160.972965,169.187886 157.576707,169.128365 153.167464,169.128365 C148.241824,169.128365 144.617162,169.187886 142.293372,169.306931 L142.293372,168.08673 C143.604228,168.027208 144.552598,167.868484 145.138511,167.610555 C145.724424,167.352625 146.121647,166.876454 146.330193,166.182027 C146.538738,165.487601 146.643009,164.376535 146.643009,162.848797 L146.643009,132.611638 C146.643009,131.083899 146.533773,129.972834 146.315297,129.278407 C146.096821,128.583981 145.694632,128.10781 145.108719,127.84988 C144.522806,127.59195 143.584367,127.433227 142.293372,127.373704 L142.293372,126.153504 C144.617162,126.272549 148.122657,126.33207 152.80996,126.33207 C154.478322,126.33207 156.33534,126.312229 158.38107,126.272548 C160.4268,126.232866 161.836942,126.213026 162.611539,126.213026 C168.808313,126.213026 173.421067,127.081046 176.449939,128.817112 C179.47881,130.553178 180.993224,133.21676 180.993224,136.807936 C180.993224,139.863413 179.851207,142.467473 177.56714,144.620195 C175.283072,146.772916 171.449869,148.107187 166.067415,148.623047 C170.218459,148.861136 173.361487,149.620033 175.496593,150.899762 C177.6317,152.179491 178.937571,154.069294 179.414246,156.56923 L180.695303,162.908319 C180.993225,164.396376 181.345761,165.42808 181.752921,166.003461 C182.16008,166.578843 182.721158,166.86653 183.43617,166.86653 C184.171044,166.86653 184.796671,166.598684 185.313069,166.062983 L186.117453,166.86653 C184.905905,168.076816 183.565277,168.929956 182.095529,169.425975 L182.095529,169.425975 Z M165.307718,146.30169 C166.410029,145.428697 167.164753,144.25811 167.571913,142.789894 C167.979072,141.321678 168.182649,139.555877 168.182649,137.492439 C168.182649,134.159192 167.725843,131.639454 166.812216,129.933149 C165.898589,128.226844 164.399071,127.373704 162.313619,127.373704 C161.38013,127.373704 160.680025,127.517548 160.21328,127.805239 C159.746536,128.09293 159.428758,128.603821 159.259935,129.337929 C159.091113,130.072037 159.006703,131.163262 159.006703,132.611638 L159.006703,147.611173 L160.675057,147.611173 C162.661202,147.611173 164.205407,147.174683 165.307718,146.30169 L165.307718,146.30169 Z M197.49801,126.361831 L199.672829,126.33207 C205.631265,126.213025 208.898425,126.153504 209.474408,126.153504 C217.915526,126.153504 224.226409,127.949065 228.407245,131.540242 C232.588081,135.131419 234.678468,140.3693 234.678468,147.254042 C234.678468,151.67853 233.655618,155.552379 231.609888,158.875706 C229.564159,162.199032 226.609812,164.768372 222.746759,166.583801 C218.883706,168.39923 214.280882,169.306931 208.938151,169.306931 C208.342307,169.306931 206.922235,169.27717 204.67789,169.217648 C202.433546,169.158125 200.804931,169.128365 199.791997,169.128365 C195.025248,169.128365 191.480031,169.187886 189.156241,169.306931 L189.156241,168.08673 C190.467097,168.027208 191.415467,167.868484 192.00138,167.610555 C192.587293,167.352625 192.984516,166.876454 193.193061,166.182027 C193.401607,165.487601 193.505878,164.376535 193.505878,162.848797 L193.505878,132.611638 C193.505878,131.083899 193.396641,129.972834 193.178165,129.278407 C192.959689,128.583981 192.557501,128.10781 191.971588,127.84988 C191.385675,127.59195 190.447235,127.433227 189.156241,127.373704 L189.156241,126.153504 C192.115598,126.292389 194.89616,126.361831 197.49801,126.361831 L197.49801,126.361831 Z M206.227076,166.25643 C206.465413,166.980617 206.907324,167.486549 207.552821,167.77424 C208.198319,168.061931 209.16655,168.205774 210.457545,168.205774 C214.48942,168.205774 217.39908,166.469734 219.186611,162.997602 C220.974141,159.52547 221.867894,154.357031 221.867894,147.492129 C221.867894,140.607387 220.94435,135.51335 219.097234,132.209864 C217.250119,128.906379 214.35039,127.25466 210.397961,127.25466 C209.126828,127.25466 208.173492,127.398504 207.537925,127.686195 C206.902359,127.973886 206.465413,128.484777 206.227076,129.218885 C205.988739,129.952993 205.869572,131.044218 205.869572,132.492594 L205.869572,162.967841 C205.869572,164.436057 205.988739,165.532242 206.227076,166.25643 L206.227076,166.25643 Z M259.182415,127.84988 C258.596503,128.10781 258.199279,128.583981 257.990734,129.278407 C257.782189,129.972834 257.677918,131.083899 257.677918,132.611638 L257.677918,162.848797 C257.677918,164.376535 257.787154,165.487601 258.00563,166.182027 C258.224106,166.876454 258.626295,167.352625 259.212207,167.610555 C259.79812,167.868484 260.73656,168.027208 262.027555,168.08673 L262.027555,169.306931 C259.64418,169.187886 256.247922,169.128365 251.838679,169.128365 C246.913038,169.128365 243.288377,169.187886 240.964587,169.306931 L240.964587,168.08673 C242.275443,168.027208 243.223813,167.868484 243.809726,167.610555 C244.395639,167.352625 244.792862,166.876454 245.001408,166.182027 C245.209953,165.487601 245.314224,164.376535 245.314224,162.848797 L245.314224,132.611638 C245.314224,131.083899 245.204988,129.972834 244.986512,129.278407 C244.768036,128.583981 244.365847,128.10781 243.779934,127.84988 C243.194021,127.59195 242.255582,127.433227 240.964587,127.373704 L240.964587,126.153504 C243.288377,126.272549 246.913038,126.33207 251.838679,126.33207 C256.247922,126.33207 259.64418,126.272549 262.027555,126.153504 L262.027555,127.373704 C260.716699,127.433227 259.768328,127.59195 259.182415,127.84988 L259.182415,127.84988 Z M306.983733,128.683188 C306.387889,129.27841 305.985701,130.186111 305.777156,131.406318 C305.56861,132.626524 305.464339,134.446886 305.464339,136.867458 L305.464339,169.306931 C304.868496,169.247408 304.203147,169.217648 303.468273,169.217648 C302.753261,169.217648 301.988606,169.247408 301.174287,169.306931 L274.152912,139.813796 L274.152912,157.372776 C274.152912,160.36873 274.272079,162.52142 274.510417,163.83091 C274.748754,165.140399 275.285005,166.107622 276.119186,166.732606 C276.953368,167.357589 278.353579,167.80896 280.319863,168.08673 L280.319863,169.306931 C278.691224,169.187886 276.407191,169.128365 273.467695,169.128365 C271.322658,169.128365 269.63446,169.187886 268.40305,169.306931 L268.40305,168.08673 C269.674183,167.80896 270.612623,167.37247 271.218397,166.777247 C271.824171,166.182024 272.231325,165.274323 272.43987,164.054117 C272.648416,162.833911 272.752687,161.013549 272.752687,158.592976 L272.752687,132.611638 C272.752687,131.083899 272.64345,129.972834 272.424974,129.278407 C272.206498,128.583981 271.80431,128.10781 271.218397,127.84988 C270.632484,127.59195 269.694044,127.433227 268.40305,127.373704 L268.40305,126.153504 C269.63446,126.272549 271.322658,126.33207 273.467695,126.33207 C275.71204,126.33207 277.588919,126.272549 279.09839,126.153504 L304.034322,152.491975 L304.034322,138.087659 C304.034322,135.091705 303.915155,132.939015 303.676817,131.629525 C303.43848,130.320035 302.907194,129.352813 302.082944,128.727829 C301.258693,128.102845 299.863447,127.651475 297.897163,127.373704 L297.897163,126.153504 C299.545664,126.272549 301.819766,126.33207 304.719539,126.33207 C306.884437,126.33207 308.572636,126.272549 309.784184,126.153504 L309.784184,127.373704 C308.513051,127.651475 307.579577,128.087965 306.983733,128.683188 L306.983733,128.683188 Z M354.636091,166.926052 C354.308377,166.191944 353.856535,165.824896 353.280553,165.824896 C352.426511,165.824896 351.04616,166.291146 349.13946,167.223662 C345.087724,169.187897 341.651743,170.169999 338.831417,170.169999 C333.786607,170.169999 329.556181,169.301979 326.140011,167.565913 C322.72384,165.829847 320.161751,163.315069 318.453666,160.021504 C316.745581,156.727938 315.891551,152.749927 315.891551,148.087349 C315.891551,143.603339 316.89454,139.635247 318.900547,136.182956 C320.906553,132.730664 323.702011,130.052202 327.287004,128.14749 C330.871997,126.242777 334.95843,125.290435 339.546426,125.290435 C342.168138,125.290435 344.407483,125.637643 346.264529,126.33207 C348.121575,127.026496 349.8346,127.998679 351.403655,129.248646 C351.800884,129.625621 352.208038,129.814105 352.625128,129.814105 C353.042219,129.814105 353.369928,129.521458 353.608265,128.936156 C353.846603,128.350854 354.025353,127.423312 354.144522,126.153504 L355.544748,126.153504 C355.385856,129.030414 355.306411,134.109571 355.306411,141.391128 L353.906186,141.391128 C353.707571,139.268167 353.419584,137.472606 353.042217,136.00439 C352.664849,134.536174 352.098806,133.226704 351.344071,132.07594 C350.589336,130.925176 349.566486,129.903392 348.275491,129.010558 C347.44131,128.435177 346.458183,127.988766 345.32608,127.671314 C344.193977,127.353862 343.081752,127.195138 341.989372,127.195138 C339.069739,127.195138 336.706261,128.221882 334.898868,130.2754 C333.091476,132.328918 331.810431,134.918098 331.055696,138.043017 C330.300961,141.167936 329.923599,144.436651 329.923599,147.849261 C329.923599,154.932411 330.792525,160.219893 332.530402,163.711866 C334.268279,167.203839 336.666514,168.949799 339.725178,168.949799 C340.996311,168.949799 341.999299,168.701793 342.734173,168.205774 C343.588216,167.610552 344.015231,166.598688 344.015231,165.170154 L344.015231,159.069152 C344.015231,157.025554 343.856341,155.53256 343.538558,154.590124 C343.220775,153.647688 342.644801,152.997913 341.81062,152.64078 C340.976439,152.283646 339.655672,152.065401 337.84828,151.986038 L337.84828,150.765838 C340.410407,150.904723 344.293264,150.974165 349.496965,150.974165 C353.826762,150.974165 356.964825,150.904723 358.911247,150.765838 L358.911247,151.986038 C358.156512,152.065401 357.615296,152.229085 357.287582,152.477094 C356.959868,152.725104 356.731464,153.196315 356.602365,153.890741 C356.473265,154.585167 356.408717,155.696233 356.408717,157.223971 L356.408717,169.306931 L355.187243,169.306931 C355.14752,168.453778 354.963805,167.66016 354.636091,166.926052 L354.636091,166.926052 Z" id="BOARDING-Copy" stroke="none" fill="#565656" fill-rule="evenodd"></path>
    <path d="M15.5369535,11.2761061 L15.5369535,12.089573 L9.51896273,12.089573 L9.51896273,27.8232132 C9.51896273,29.05334 9.73743546,29.9362404 10.1743875,30.4719407 C10.6113395,31.0076411 11.2601373,31.2754873 12.1208003,31.2754873 C12.9682224,31.2754873 13.6898444,30.9381995 14.2856881,30.2636139 C14.8815317,29.5890282 15.384681,28.4779626 15.7951511,26.9303837 L16.5896053,27.1287902 C15.9275568,30.8720794 14.1665343,32.7436959 11.3064847,32.7436959 C10.3928578,32.7436959 9.63813385,32.6345733 9.0422902,32.416325 C8.44644655,32.1980767 7.9168157,31.8574822 7.45338175,31.3945312 C6.87077907,30.7993086 6.46031516,30.0685184 6.2219777,29.2021388 C5.98364024,28.3357591 5.8644733,27.1684789 5.8644733,25.700263 L5.8644733,12.089573 L1.95178624,12.089573 L1.95178624,11.2761061 L5.8644733,11.2761061 L5.8644733,5.06598082 C7.38718484,5.02629931 8.60533581,4.83450822 9.51896273,4.49060179 L9.51896273,11.2761061 L15.5369535,11.2761061 Z M37.2818277,13.418897 C37.8578099,12.6252668 38.5430198,11.9705317 39.337478,11.454672 C40.1319362,10.9388124 40.9727252,10.6808864 41.8598702,10.6808864 C42.5748825,10.6808864 43.2137498,10.8230764 43.776491,11.1074606 C44.3392322,11.3918447 44.7794878,11.7787336 45.0972711,12.2681389 C45.4150544,12.7575442 45.5739437,13.2932366 45.5739437,13.8752321 C45.5739437,14.5894992 45.3620913,15.1946332 44.9383803,15.6906521 C44.5146692,16.186671 43.9519365,16.4346767 43.2501651,16.4346767 C42.6543214,16.4346767 42.1445517,16.2461923 41.7208407,15.869218 C41.2971296,15.4922436 41.0852773,14.9796985 41.0852773,14.3315671 C41.0852773,13.4453467 41.5487043,12.7112498 42.4755722,12.1292543 C42.2901986,11.8647109 42.005522,11.7324412 41.6215339,11.7324412 C40.5490153,11.7324412 39.582439,12.1424773 38.721776,12.9625619 C37.8611129,13.7826464 37.1858336,14.7945098 36.6959177,15.9981822 C36.2060018,17.2018547 35.9610475,18.3261473 35.9610475,19.3710938 L35.9610475,27.9819384 C35.9610475,29.2385196 36.3185484,30.108193 37.0335607,30.5909847 C37.7485731,31.0737764 38.827696,31.3151686 40.2709617,31.3151686 L40.2709617,32.1683168 C36.9342373,32.0624995 34.8488158,32.0095916 34.0146347,32.0095916 C33.2996223,32.0095916 31.697489,32.0624995 29.2081866,32.1683168 L29.2081866,31.3151686 C29.9761629,31.3151686 30.5819282,31.2291933 31.0255007,31.0572401 C31.4690732,30.8852869 31.7934721,30.58768 31.9987071,30.1644106 C32.2039421,29.7411411 32.3065581,29.1525409 32.3065581,28.3985922 L32.3065581,15.6807317 C32.3065581,14.4241506 32.0781548,13.5114895 31.6213413,12.9427212 C31.1645279,12.3739529 30.360151,12.089573 29.2081866,12.089573 L29.2081866,11.2364248 C30.0556087,11.3157878 30.8963977,11.3554688 31.7305788,11.3554688 C33.4519049,11.3554688 34.862047,11.1702911 35.9610475,10.7999304 L35.9610475,15.8791383 C36.2655898,15.0325994 36.7058455,14.2125272 37.2818277,13.418897 L37.2818277,13.418897 Z M70.0199622,12.3574219 C69.3645342,11.78204 68.43437,11.4943533 67.2294418,11.4943533 C65.3095011,11.4943533 63.9655628,11.9771378 63.1975866,12.9427212 C63.7404663,13.0749929 64.1939627,13.3626796 64.5580894,13.8057898 C64.9222161,14.2489 65.1042767,14.7878991 65.1042767,15.4228032 C65.1042767,16.1106161 64.8891142,16.6496152 64.4587826,17.0398167 C64.0284511,17.4300182 63.4491674,17.625116 62.720914,17.625116 C62.0323836,17.625116 61.4928222,17.393644 61.1022135,16.9306931 C60.7116049,16.4677421 60.5163036,15.8593014 60.5163036,15.1053527 C60.5163036,14.0471791 61.1518606,13.0816102 62.4229937,12.208617 C63.0850422,11.7721203 63.9026598,11.4083786 64.8758711,11.1173809 C65.8490824,10.8263831 66.9315155,10.6808864 68.1232028,10.6808864 C69.2354442,10.6808864 70.2152613,10.8164629 71.0626834,11.0876199 C71.9101055,11.3587769 72.572144,11.7324388 73.048819,12.208617 C73.6711445,12.8435211 74.0981594,13.5809248 74.3298764,14.4208501 C74.5615934,15.2607754 74.6774501,16.4214422 74.6774501,17.9028852 L74.6774501,29.1922184 C74.6774501,29.8668041 74.7734457,30.3562021 74.9654398,30.660427 C75.1574338,30.9646519 75.4785225,31.1167621 75.9287155,31.1167621 C76.2597398,31.1167621 76.5642775,31.0440137 76.8423379,30.8985149 C77.1203983,30.753016 77.424936,30.5413844 77.7559602,30.2636139 L78.2127714,30.9580368 C77.7360965,31.3151704 77.3388734,31.5929368 77.0210901,31.7913444 C76.7033068,31.9897519 76.3391856,32.1484756 75.9287155,32.2675201 C75.5182455,32.3865646 75.0415777,32.446086 74.4986979,32.446086 C73.1878419,32.446086 72.2775389,32.1187185 71.7677615,31.4639735 C71.2579842,30.8092286 71.0030993,29.9329418 71.0030993,28.8350866 C70.2086411,30.1445765 69.2553056,31.0737712 68.1430641,31.6226988 C67.0308226,32.1716264 65.8987367,32.446086 64.7467723,32.446086 C63.8066634,32.446086 62.9460133,32.2840556 62.1647961,31.9599899 C61.3835788,31.6359243 60.7579524,31.1332994 60.287898,30.4521001 C59.8178435,29.7709008 59.5828198,28.9210679 59.5828198,27.9025758 C59.5828198,26.8708565 59.8343945,25.9912629 60.3375513,25.2637686 C60.8407082,24.5362742 61.5490895,23.8980728 62.4627164,23.3491453 C63.3763433,22.8002177 64.6011147,22.2016972 66.1370672,21.5535659 C66.4018866,21.4477485 67.0506844,21.1832091 68.08348,20.7599397 C69.1162757,20.3366702 69.8610691,19.9134071 70.3178826,19.4901377 C70.774696,19.0668682 71.0030993,18.6039242 71.0030993,18.1012918 L71.0030993,15.5815285 C71.0030993,14.0074952 70.6753902,12.9328038 70.0199622,12.3574219 L70.0199622,12.3574219 Z M70.0100315,20.6210551 C69.5465976,20.8855985 68.5800213,21.3749964 67.1102736,22.0892636 C66.3290564,22.4596244 65.6670178,22.8398998 65.1241381,23.2301013 C64.5812583,23.6203028 64.1178313,24.146075 63.7338432,24.8074335 C63.349855,25.468792 63.1578638,26.2822507 63.1578638,27.2478342 C63.1578638,28.4250523 63.4557812,29.3145661 64.0516249,29.9164024 C64.6474685,30.5182386 65.4352944,30.8191522 66.4151262,30.8191522 C68.2158981,30.8191522 69.7452072,29.7940619 71.0030993,27.7438506 L71.0030993,19.7679069 C70.8044848,20.0721318 70.4734655,20.3565117 70.0100315,20.6210551 L70.0100315,20.6210551 Z M100.871268,11.8415648 C102.082817,11.0677754 103.449926,10.6808864 104.972638,10.6808864 C106.866097,10.6808864 108.30272,11.1901249 109.282552,12.208617 C109.785709,12.7641581 110.14652,13.4486539 110.364996,14.2621248 C110.583472,15.0755958 110.692708,16.1701277 110.692708,17.5457534 L110.692708,28.3985922 C110.692708,29.1525409 110.795324,29.7411411 111.000559,30.1644106 C111.205794,30.58768 111.530193,30.8852869 111.973766,31.0572401 C112.417338,31.2291933 113.023104,31.3151686 113.79108,31.3151686 L113.79108,32.1683168 C111.301777,32.0624995 109.673163,32.0095916 108.905186,32.0095916 C108.150451,32.0095916 106.634383,32.0624995 104.356936,32.1683168 L104.356936,31.3151686 C105.032225,31.3151686 105.558546,31.2291933 105.935914,31.0572401 C106.313281,30.8852869 106.591338,30.58768 106.770091,30.1644106 C106.948844,29.7411411 107.038219,29.1525409 107.038219,28.3985922 L107.038219,16.6529239 C107.038219,15.6741133 106.962084,14.8540411 106.809813,14.1926825 C106.657542,13.531324 106.339764,12.9956317 105.856468,12.5855894 C105.373173,12.1755471 104.668102,11.9705291 103.741234,11.9705291 C102.628992,11.9705291 101.639245,12.2945899 100.771961,12.9427212 C99.9046777,13.5908526 99.2327085,14.4803664 98.7560336,15.6112894 C98.2793587,16.7422125 98.0410248,17.9954681 98.0410248,19.3710938 L98.0410248,28.3985922 C98.0410248,29.1525409 98.1304,29.7411411 98.3091531,30.1644106 C98.4879062,30.58768 98.7692726,30.8852869 99.1532607,31.0572401 C99.5372488,31.2291933 100.06688,31.3151686 100.742169,31.3151686 L100.742169,32.1683168 C98.4647223,32.0624995 96.9420336,32.0095916 96.1740574,32.0095916 C95.4060811,32.0095916 93.7774662,32.0624995 91.2881639,32.1683168 L91.2881639,31.3151686 C92.0561401,31.3151686 92.6619054,31.2291933 93.1054779,31.0572401 C93.5490504,30.8852869 93.8734493,30.58768 94.0786843,30.1644106 C94.2839194,29.7411411 94.3865354,29.1525409 94.3865354,28.3985922 L94.3865354,15.6807317 C94.3865354,14.4241506 94.1581321,13.5114895 93.7013186,12.9427212 C93.2445051,12.3739529 92.4401283,12.089573 91.2881639,12.089573 L91.2881639,11.2364248 C92.135586,11.3157878 92.9763749,11.3554688 93.810556,11.3554688 C95.5318821,11.3554688 96.9420243,11.1702911 98.0410248,10.7999304 L98.0410248,15.5815285 C98.7163143,13.8619964 99.6597192,12.6153543 100.871268,11.8415648 L100.871268,11.8415648 Z M130.461378,28.4779548 C130.832125,29.5625828 131.401478,30.409109 132.169454,31.0175588 C132.93743,31.6260086 133.970211,31.930229 135.267826,31.930229 C135.863669,31.930229 136.436333,31.801266 136.985833,31.5433362 C137.535333,31.2854064 137.98883,30.8687567 138.346336,30.2933748 C138.703842,29.7179929 138.882592,28.9739758 138.882592,28.0613011 C138.882592,27.3205795 138.693911,26.6559242 138.316544,26.0673151 C137.939176,25.4787061 137.445957,24.9496272 136.836873,24.4800627 C136.227788,24.0104981 135.373758,23.4318181 134.274758,22.7440053 C132.93742,21.8974664 131.91457,21.2030504 131.206178,20.6607364 C130.497787,20.1184224 129.898642,19.4570738 129.408726,18.6766708 C128.91881,17.8962678 128.673856,16.9769932 128.673856,15.9188196 C128.673856,14.7680558 128.945291,13.7991801 129.488171,13.0121635 C130.031051,12.2251469 130.755983,11.6398534 131.66299,11.2562655 C132.569996,10.8726775 133.579605,10.6808864 134.691846,10.6808864 C135.645196,10.6808864 136.502536,10.8329966 137.263892,11.1372215 C138.025248,11.4414464 138.644254,11.7853477 139.120929,12.1689356 C139.41223,12.3937975 139.650564,12.5062268 139.835937,12.5062268 C140.312612,12.5062268 140.61715,11.9110131 140.74956,10.7205678 L141.683044,10.7205678 C141.577116,12.0432848 141.524153,14.3447778 141.524153,17.625116 L140.590669,17.625116 C140.299368,15.8394481 139.723394,14.3646407 138.862731,13.2006498 C138.002068,12.0366588 136.730954,11.454672 135.049351,11.454672 C134.069519,11.454672 133.268452,11.7291317 132.646127,12.2780593 C132.023801,12.8269868 131.712643,13.5908444 131.712643,14.569655 C131.712643,15.5087841 132.033732,16.2924822 132.675919,16.9207727 C133.318106,17.5490633 134.092691,18.1475838 134.999697,18.7163521 C135.906704,19.2851204 136.552191,19.6951565 136.93618,19.9464728 C138.180831,20.7533301 139.183819,21.4708934 139.945175,22.0991839 C140.706531,22.7274745 141.322227,23.4483445 141.792281,24.2618154 C142.262335,25.0752864 142.497359,26.0044812 142.497359,27.0494276 C142.497359,28.2531001 142.182891,29.2814971 141.553945,30.1346496 C140.924999,30.9878021 140.0809,31.6359237 139.021622,32.0790339 C137.962344,32.5221441 136.803777,32.7436959 135.545885,32.7436959 C134.340956,32.7436959 133.268454,32.5519048 132.328345,32.1683168 C131.798706,31.9037734 131.242594,31.5400317 130.659991,31.0770808 C130.554063,30.9712634 130.428276,30.9183555 130.282625,30.9183555 C129.885396,30.9183555 129.60734,31.4275939 129.448449,32.446086 L128.514965,32.446086 C128.620893,30.8985071 128.673856,28.1935914 128.673856,24.3312577 L129.607339,24.3312577 C129.805954,26.0111083 130.09063,27.3933269 130.461378,28.4779548 L130.461378,28.4779548 Z M184.391579,11.3554687 C185.596507,11.3554687 186.629287,11.3157878 187.48995,11.2364248 L187.48995,12.0498917 C186.920588,12.1160276 186.417439,12.3607265 185.980487,12.783996 C185.543535,13.2072654 185.166173,13.9149084 184.84839,14.9069462 L178.949567,32.3667234 L178.25442,32.3667234 L171.799479,16.0180229 L165.999963,32.3667234 L165.324677,32.3667234 L158.651262,14.3712485 C158.280515,13.4188922 157.896532,12.8005313 157.499303,12.5161471 C157.102074,12.231763 156.69823,12.089573 156.28776,12.089573 L156.28776,11.2364248 C157.426484,11.408378 158.618153,11.4943533 159.862804,11.4943533 C161.067733,11.4943533 162.828755,11.408378 165.145925,11.2364248 L165.145925,12.089573 C164.25878,12.089573 163.600052,12.1424809 163.16972,12.2482983 C162.739389,12.3541156 162.461332,12.6517225 162.335543,13.1411278 C162.209754,13.6305331 162.338852,14.4175379 162.72284,15.5021658 L166.794418,27.1883122 L172.633656,11.0776996 L173.56714,11.0776996 L179.803605,27.5256033 L183.616986,15.8791383 C183.868564,15.0855081 183.994352,14.4704539 183.994352,14.0339573 C183.994352,13.385826 183.759328,12.909655 183.289273,12.6054301 C182.819219,12.3012052 182.047944,12.1160276 180.975425,12.0498917 L180.975425,11.2364248 C182.40545,11.3157878 183.544157,11.3554687 184.391579,11.3554687 L184.391579,11.3554687 Z M214.994617,11.8514851 C216.378299,12.6318882 217.470662,13.8454628 218.271741,15.4922455 C219.07282,17.1390282 219.473353,19.2189695 219.473353,21.7321318 C219.473353,24.2452941 219.07282,26.3219287 218.271741,27.9620978 C217.470662,29.6022669 216.378299,30.809228 214.994617,31.5830175 C213.610936,32.3568069 212.025354,32.7436959 210.237823,32.7436959 C208.450292,32.7436959 206.864709,32.3568069 205.481028,31.5830175 C204.097347,30.809228 203.004983,29.6022669 202.203904,27.9620978 C201.402826,26.3219287 201.002292,24.2452941 201.002292,21.7321318 C201.002292,19.2189695 201.402826,17.1390282 202.203904,15.4922455 C203.004983,13.8454628 204.097347,12.6318882 205.481028,11.8514851 C206.864709,11.0710821 208.450292,10.6808864 210.237823,10.6808864 C212.025354,10.6808864 213.610936,11.0710821 214.994617,11.8514851 L214.994617,11.8514851 Z M206.374789,13.994276 C205.42806,15.6608994 204.954702,18.2401589 204.954702,21.7321318 C204.954702,25.2108775 205.42806,27.7802168 206.374789,29.4402266 C207.321518,31.1002365 208.609183,31.930229 210.237823,31.930229 C211.866462,31.930229 213.154127,31.1002365 214.100856,29.4402266 C215.047586,27.7802168 215.520943,25.2108775 215.520943,21.7321318 C215.520943,18.2401589 215.047586,15.6608994 214.100856,13.994276 C213.154127,12.3276526 211.866462,11.4943533 210.237823,11.4943533 C208.609183,11.4943533 207.321518,12.3276526 206.374789,13.994276 L206.374789,13.994276 Z M242.489354,13.418897 C243.065336,12.6252668 243.750546,11.9705317 244.545004,11.454672 C245.339463,10.9388124 246.180252,10.6808864 247.067397,10.6808864 C247.782409,10.6808864 248.421276,10.8230764 248.984017,11.1074606 C249.546759,11.3918447 249.987014,11.7787336 250.304798,12.2681389 C250.622581,12.7575442 250.78147,13.2932366 250.78147,13.8752321 C250.78147,14.5894992 250.569618,15.1946332 250.145907,15.6906521 C249.722196,16.186671 249.159463,16.4346767 248.457691,16.4346767 C247.861848,16.4346767 247.352078,16.2461923 246.928367,15.869218 C246.504656,15.4922436 246.292804,14.9796985 246.292804,14.3315671 C246.292804,13.4453467 246.756231,12.7112498 247.683099,12.1292543 C247.497725,11.8647109 247.213048,11.7324412 246.82906,11.7324412 C245.756542,11.7324412 244.789965,12.1424773 243.929302,12.9625619 C243.068639,13.7826464 242.39336,14.7945098 241.903444,15.9981822 C241.413528,17.2018547 241.168574,18.3261473 241.168574,19.3710938 L241.168574,27.9819384 C241.168574,29.2385196 241.526075,30.108193 242.241087,30.5909847 C242.9561,31.0737764 244.035222,31.3151686 245.478488,31.3151686 L245.478488,32.1683168 C242.141764,32.0624995 240.056342,32.0095916 239.222161,32.0095916 C238.507149,32.0095916 236.905015,32.0624995 234.415713,32.1683168 L234.415713,31.3151686 C235.183689,31.3151686 235.789455,31.2291933 236.233027,31.0572401 C236.6766,30.8852869 237.000998,30.58768 237.206233,30.1644106 C237.411469,29.7411411 237.514085,29.1525409 237.514085,28.3985922 L237.514085,15.6807317 C237.514085,14.4241506 237.285681,13.5114895 236.828868,12.9427212 C236.372054,12.3739529 235.567677,12.089573 234.415713,12.089573 L234.415713,11.2364248 C235.263135,11.3157878 236.103924,11.3554688 236.938105,11.3554688 C238.659431,11.3554688 240.069573,11.1702911 241.168574,10.7999304 L241.168574,15.8791383 C241.473116,15.0325994 241.913372,14.2125272 242.489354,13.418897 L242.489354,13.418897 Z M270.341595,30.1644106 C270.54683,30.58768 270.871229,30.8852869 271.314802,31.0572401 C271.758374,31.2291933 272.364139,31.3151686 273.132116,31.3151686 L273.132116,32.1683168 C270.642813,32.0624995 269.000958,32.0095916 268.206499,32.0095916 C267.412041,32.0095916 265.770186,32.0624995 263.280883,32.1683168 L263.280883,31.3151686 C264.048859,31.3151686 264.654625,31.2291933 265.098197,31.0572401 C265.54177,30.8852869 265.866169,30.58768 266.071404,30.1644106 C266.276639,29.7411411 266.379255,29.1525409 266.379255,28.3985922 L266.379255,5.18502475 C266.379255,3.92844359 266.150851,3.01908929 265.694038,2.45693456 C265.237224,1.89477983 264.432848,1.61370668 263.280883,1.61370668 L263.280883,0.760558478 C264.128305,0.839921498 264.969094,0.879602413 265.803275,0.879602413 C267.551083,0.879602413 268.961226,0.687811324 270.033744,0.304223391 L270.033744,28.3985922 C270.033744,29.1525409 270.13636,29.7411411 270.341595,30.1644106 L270.341595,30.1644106 Z M306.277408,30.4719407 C306.734221,31.0340955 307.538598,31.3151686 308.690563,31.3151686 L308.690563,32.1683168 C307.8299,32.0889538 306.989111,32.0492729 306.16817,32.0492729 C304.420362,32.0492729 303.01022,32.241064 301.937702,32.6246519 L301.937702,29.0136525 C301.434545,30.2305522 300.696372,31.1564402 299.723161,31.7913444 C298.749949,32.4262485 297.56159,32.7436959 296.158047,32.7436959 C294.436721,32.7436959 292.953755,32.3336597 291.709104,31.5135752 C290.464452,30.6934906 289.507807,29.4633823 288.839138,27.8232132 C288.170469,26.1830441 287.84276,24.1527039 287.856001,21.7321318 C287.84276,19.3644684 288.253224,17.3473552 289.087405,15.6807317 C289.921586,14.0141083 291.037121,12.7641595 292.434043,11.9308478 C293.830965,11.0975361 295.370205,10.6808864 297.051808,10.6808864 C298.084604,10.6808864 299.034629,10.8759843 299.901913,11.2661858 C300.769196,11.6563873 301.447786,12.2615213 301.937702,13.0816058 L301.937702,5.18502475 C301.937702,3.92844359 301.709298,3.01908929 301.252485,2.45693456 C300.795671,1.89477983 299.991295,1.61370668 298.83933,1.61370668 L298.83933,0.760558478 C299.699993,0.839921498 300.540782,0.879602413 301.361722,0.879602413 C303.10953,0.879602413 304.519673,0.687811324 305.592191,0.304223391 L305.592191,27.7438506 C305.592191,29.0004317 305.820594,29.909786 306.277408,30.4719407 L306.277408,30.4719407 Z M297.389451,11.6133973 C296.290451,11.6133973 295.320564,11.9870592 294.479763,12.7343943 C293.638961,13.4817294 292.980233,14.6126355 292.503558,16.1271465 C292.026883,17.6416575 291.795169,19.5099672 291.80841,21.7321318 C291.795169,24.9860157 292.255286,27.4296987 293.188775,29.0632542 C294.122263,30.6968097 295.502613,31.5135752 297.329867,31.5135752 C298.031639,31.5135752 298.693677,31.3350111 299.316003,30.9778775 C299.938328,30.6207439 300.4812,30.0883583 300.944634,29.3807047 C301.408068,28.6730511 301.739087,27.8232181 301.937702,26.8311804 L301.937702,14.7482209 C301.182966,12.658328 299.666898,11.6133973 297.389451,11.6133973 L297.389451,11.6133973 Z" id="transworld-copy" stroke="none" fill="#C5B358" fill-rule="evenodd"></path>
</svg>
