
<svg width="320px" height="40px" viewBox="9 646 320 40" version="1.1" xmlns="http://www.w3.org/2000/svg" xmlns:xlink="http://www.w3.org/1999/xlink">
    <!-- Generator: Sketch 39.1 (31720) - http://www.bohemiancoding.com/sketch -->
    <desc>Created with Sketch.</desc>
    <defs></defs>
    <g id="Group" stroke="none" stroke-width="1" fill="none" fill-rule="evenodd" transform="translate(9.000000, 646.000000)">
        <path d="M4.65,34.575 C6.116674,37.108346 8.37498475,38.375 11.425,38.375 C13.3250095,38.375 14.8249945,37.9333378 15.925,37.05 C17.0250055,36.1666622 17.575,34.9416745 17.575,33.375 C17.575,32.0249932 17.2708364,30.8125054 16.6625,29.7375 C16.0541636,28.6624946 15.2333385,27.6791711 14.2,26.7875 C13.1666615,25.8958289 11.8000085,24.883339 10.1,23.75 C8.033323,22.3666598 6.39583937,21.1666718 5.1875,20.15 C3.97916063,19.1333283 2.97917063,17.9458401 2.1875,16.5875 C1.39582937,15.2291599 1,13.6666755 1,11.9 C1,9.766656 1.57916088,7.97084062 2.7375,6.5125 C3.89583912,5.05415937 5.43332375,3.9750035 7.35,3.275 C9.26667625,2.5749965 11.3749885,2.225 13.675,2.225 C15.6416765,2.225 17.2333273,2.4083315 18.45,2.775 C19.6666728,3.1416685 20.841661,3.6416635 21.975,4.275 C22.4583357,4.541668 22.8166655,4.72916613 23.05,4.8375 C23.2833345,4.94583387 23.5083323,5 23.725,5 C24.0416683,5 24.2833325,4.82083512 24.45,4.4625 C24.6166675,4.10416488 24.7499995,3.53333725 24.85,2.75 L26.025,2.75 C25.8583325,5.20001225 25.775,9.36663725 25.775,15.25 L24.6,15.25 C24.466666,13.2999902 24.0208371,11.4333422 23.2625,9.65 C22.5041629,7.86665775 21.4750065,6.41667225 20.175,5.3 C18.8749935,4.18332775 17.3750085,3.625 15.675,3.625 C14.1249922,3.625 12.8666715,4.0416625 11.9,4.875 C10.9333285,5.7083375 10.45,6.8749925 10.45,8.375 C10.45,9.6083395 10.7374971,10.6666623 11.3125,11.55 C11.8875029,12.4333377 12.6791616,13.2666628 13.6875,14.05 C14.6958384,14.8333373 16.6249857,16.2166567 19.475,18.2 C21.3583427,19.5166733 22.8583277,20.6708284 23.975,21.6625 C25.0916723,22.6541716 26.0041631,23.81666 26.7125,25.15 C27.4208369,26.48334 27.775,28.0249912 27.775,29.775 C27.775,31.9916778 27.1500063,33.8624924 25.9,35.3875 C24.6499938,36.9125076 22.9750105,38.0499963 20.875,38.8 C18.7749895,39.5500038 16.4333462,39.925 13.85,39.925 C11.7499895,39.925 10.0125069,39.7541684 8.6375,39.4125 C7.26249312,39.0708316 5.975006,38.6083363 4.775,38.025 C4.0083295,37.5416642 3.43333525,37.3 3.05,37.3 C2.73333175,37.3 2.4916675,37.4749983 2.325,37.825 C2.1583325,38.1750018 2.01666725,38.749996 1.9,39.55 L0.725,39.55 C0.87500075,36.949987 0.95,32.0000365 0.95,24.7 L2.125,24.7 C2.34166775,28.7500202 3.183326,32.041654 4.65,34.575 L4.65,34.575 Z M59.5,5.075 C58.9999975,5.5750025 58.6625009,6.33749487 58.4875,7.3625 C58.3124991,8.38750513 58.225,9.9166565 58.225,11.95 L58.225,39.2 C57.7249975,39.1499998 57.1666698,39.125 56.55,39.125 C55.949997,39.125 55.3083367,39.1499998 54.625,39.2 L31.95,14.425 L31.95,29.175 C31.95,31.6916792 32.049999,33.4999945 32.25,34.6 C32.450001,35.7000055 32.8999965,36.5124974 33.6,37.0375 C34.3000035,37.5625026 35.4749918,37.9416655 37.125,38.175 L37.125,39.2 C35.7583265,39.0999995 33.841679,39.05 31.375,39.05 C29.574991,39.05 28.1583385,39.0999995 27.125,39.2 L27.125,38.175 C28.191672,37.9416655 28.9791641,37.5750025 29.4875,37.075 C29.9958359,36.5749975 30.3374991,35.8125051 30.5125,34.7875 C30.6875009,33.7624949 30.775,32.2333435 30.775,30.2 L30.775,8.375 C30.775,7.09166025 30.6833343,6.15833625 30.5,5.575 C30.3166657,4.99166375 29.9791691,4.59166775 29.4875,4.375 C28.9958309,4.15833225 28.2083387,4.02500025 27.125,3.975 L27.125,2.95 C28.1583385,3.0500005 29.574991,3.1 31.375,3.1 C33.2583427,3.1 34.833327,3.0500005 36.1,2.95 L57.025,25.075 L57.025,12.975 C57.025,10.4583207 56.925001,8.6500055 56.725,7.55 C56.524999,6.4499945 56.0791701,5.63750263 55.3875,5.1125 C54.6958299,4.58749737 53.5250082,4.2083345 51.875,3.975 L51.875,2.95 C53.2583402,3.0500005 55.1666545,3.1 57.6,3.1 C59.4166758,3.1 60.8333283,3.0500005 61.85,2.95 L61.85,3.975 C60.783328,4.2083345 60.0000025,4.5749975 59.5,5.075 L59.5,5.075 Z M90.075,4.425 C92.9750145,5.891674 95.224992,8.02081937 96.825,10.8125 C98.425008,13.6041806 99.225,16.9249807 99.225,20.775 C99.225,24.5416855 98.4041749,27.8749855 96.7625,30.775 C95.1208251,33.6750145 92.833348,35.924992 89.9,37.525 C86.966652,39.125008 83.6250187,39.925 79.875,39.925 C76.008314,39.925 72.6250145,39.191674 69.725,37.725 C66.8249855,36.258326 64.575008,34.1291806 62.975,31.3375 C61.374992,28.5458194 60.575,25.2250193 60.575,21.375 C60.575,17.6083145 61.3958251,14.2750145 63.0375,11.375 C64.6791749,8.4749855 66.9624854,6.225008 69.8875,4.625 C72.8125146,3.024992 76.1583145,2.225 79.925,2.225 C83.791686,2.225 87.1749855,2.958326 90.075,4.425 L90.075,4.425 Z M75.3,5.4375 C74.033327,6.96250763 73.0541701,9.08748638 72.3625,11.8125 C71.6708299,14.5375136 71.325,17.6583157 71.325,21.175 C71.325,24.708351 71.7166627,27.8291531 72.5,30.5375 C73.2833373,33.2458469 74.34166,35.333326 75.675,36.8 C77.00834,38.266674 78.474992,39 80.075,39 C81.7583417,39 83.233327,38.2375076 84.5,36.7125 C85.766673,35.1874924 86.7458299,33.0625136 87.4375,30.3375 C88.1291701,27.6124864 88.475,24.4916843 88.475,20.975 C88.475,17.441649 88.0833373,14.3208469 87.3,11.6125 C86.5166627,8.90415312 85.45834,6.816674 84.125,5.35 C82.79166,3.883326 81.325008,3.15 79.725,3.15 C78.0416582,3.15 76.566673,3.91249237 75.3,5.4375 L75.3,5.4375 Z M145.275,3.1 C146.891675,3.1 148.208328,3.0500005 149.225,2.95 L149.225,3.975 C147.208323,4.95833825 145.616672,7.349981 144.45,11.15 L135.85,39.2 C134.783328,39.133333 133.883337,39.1 133.15,39.1 C132.466663,39.1 131.575006,39.133333 130.475,39.2 L123.825,18.875 L116.6,39.2 C115.533328,39.133333 114.633337,39.1 113.9,39.1 C113.216663,39.1 112.325006,39.133333 111.225,39.2 L99.35,7.25 C98.949998,6.16666125 98.4750028,5.358336 97.925,4.825 C97.3749972,4.291664 96.8416692,4.0083335 96.325,3.975 L96.325,2.95 C98.8083457,3.0500005 101.833316,3.1 105.4,3.1 C108.516682,3.1 110.783326,3.0500005 112.2,2.95 L112.2,3.975 C111.299996,4.15833425 110.85,4.84166075 110.85,6.025 C110.85,6.7916705 110.991665,7.541663 111.275,8.275 L118.725,29.15 L123.2,17 L119.725,6.375 C119.458332,5.5416625 119.116669,4.94583513 118.7,4.5875 C118.283331,4.22916487 117.758336,4.02500025 117.125,3.975 L117.125,2.95 C119.425011,3.0500005 122.374982,3.1 125.975,3.1 C129.525018,3.1 132.174991,3.0500005 133.925,2.95 L133.925,3.975 C132.674994,4.0083335 131.779169,4.158332 131.2375,4.425 C130.695831,4.691668 130.425,5.191663 130.425,5.925 C130.425,6.4916695 130.599998,7.274995 130.95,8.275 L137.7,28.8 L141.65,16.15 C142.550004,13.1999852 143,10.8166757 143,9 C143,7.28332475 142.620837,6.02917062 141.8625,5.2375 C141.104163,4.44582937 140.008341,4.02500025 138.575,3.975 L138.575,2.95 C141.125013,3.0500005 143.358324,3.1 145.275,3.1 L145.275,3.1 Z" id="SNOW" fill="#565656"></path>
        <path d="M165.542969,29.4054688 C166.766412,29.9070338 167.657028,30.5257776 168.214844,31.2617188 C168.772659,31.9976599 169.051563,32.7828083 169.051563,33.6171875 C169.051563,35.4921969 168.299226,36.8914016 166.794531,37.8148438 C165.289836,38.7382859 163.159389,39.2 160.403125,39.2 C159.999998,39.2 159.287505,39.1859376 158.265625,39.1578125 C157.243745,39.1296874 156.212505,39.115625 155.171875,39.115625 C152.921864,39.115625 151.248443,39.1437497 150.151563,39.2 L150.151563,38.6234375 C150.770316,38.5953124 151.217967,38.5203131 151.494531,38.3984375 C151.771095,38.2765619 151.958593,38.0515641 152.057031,37.7234375 C152.155469,37.3953109 152.204688,36.8703161 152.204688,36.1484375 L152.204688,21.8609375 C152.204688,21.1390589 152.153126,20.6140641 152.05,20.2859375 C151.946874,19.9578109 151.757033,19.7328131 151.480469,19.6109375 C151.203905,19.4890619 150.760941,19.4140626 150.151563,19.3859375 L150.151563,18.809375 C151.248443,18.8656253 152.903114,18.89375 155.115625,18.89375 C155.903129,18.89375 156.779683,18.8843751 157.745313,18.865625 C158.710942,18.8468749 159.376561,18.8375 159.742188,18.8375 C161.448446,18.8375 162.88515,19.0273419 164.052344,19.4070312 C165.219537,19.7867206 166.093747,20.3164029 166.675,20.9960938 C167.256253,21.6757846 167.546875,22.4656205 167.546875,23.365625 C167.546875,24.0781286 167.300784,24.7906214 166.808594,25.503125 C166.316404,26.2156286 165.568755,26.8414036 164.565625,27.3804688 C163.562495,27.9195339 162.33907,28.2781241 160.895313,28.45625 L160.895313,28.5125 C162.770322,28.6062505 164.319525,28.9039037 165.542969,29.4054688 L165.542969,29.4054688 Z M161.000781,27.0992187 C161.408596,26.250777 161.6125,25.1093822 161.6125,23.675 C161.6125,22.2218677 161.457814,21.1437535 161.148438,20.440625 C160.839061,19.7374965 160.323441,19.3859375 159.601562,19.3859375 C159.160935,19.3859375 158.83047,19.4539056 158.610156,19.5898438 C158.389843,19.7257819 158.239844,19.9671858 158.160156,20.3140625 C158.080468,20.6609392 158.040625,21.1765591 158.040625,21.8609375 L158.040625,28.371875 L158.828125,28.371875 C159.868755,28.371875 160.592967,27.9476605 161.000781,27.0992187 L161.000781,27.0992187 Z M158.188281,37.68125 C158.286719,38.0093766 158.464842,38.2343744 158.722656,38.35625 C158.98047,38.4781256 159.381247,38.5390625 159.925,38.5390625 C161.978135,38.5390625 163.004688,36.8562668 163.004688,33.490625 C163.004688,31.9812425 162.64141,30.8328164 161.914844,30.0453125 C161.188278,29.2578086 160.03282,28.8640625 158.448438,28.8640625 L158.040625,28.8640625 L158.040625,36.1484375 C158.040625,36.842191 158.089843,37.3531234 158.188281,37.68125 L158.188281,37.68125 Z M188.6125,19.6390625 C190.243758,20.4640666 191.509371,21.6617109 192.409375,23.2320313 C193.30938,24.8023516 193.759375,26.6703017 193.759375,28.8359375 C193.759375,30.9546981 193.297661,32.8296793 192.374219,34.4609375 C191.450777,36.0921957 190.164071,37.357808 188.514063,38.2578125 C186.864054,39.157817 184.984386,39.6078125 182.875,39.6078125 C180.699989,39.6078125 178.796883,39.1953166 177.165625,38.3703125 C175.534367,37.5453084 174.268755,36.3476641 173.36875,34.7773438 C172.468746,33.2070234 172.01875,31.3390733 172.01875,29.1734375 C172.01875,27.0546769 172.480464,25.1796957 173.403906,23.5484375 C174.327348,21.9171793 175.611711,20.651567 177.257031,19.7515625 C178.902352,18.851558 180.784364,18.4015625 182.903125,18.4015625 C185.078136,18.4015625 186.981242,18.8140584 188.6125,19.6390625 L188.6125,19.6390625 Z M180.301563,20.2085938 C179.589059,21.0664105 179.038283,22.2617111 178.649219,23.7945313 C178.260154,25.3273514 178.065625,27.0828026 178.065625,29.0609375 C178.065625,31.0484474 178.285935,32.8038986 178.726563,34.3273438 C179.16719,35.8507889 179.762496,37.0249959 180.5125,37.85 C181.262504,38.6750041 182.087496,39.0875 182.9875,39.0875 C183.93438,39.0875 184.764059,38.658598 185.476563,37.8007812 C186.189066,36.9429645 186.739842,35.7476639 187.128906,34.2148438 C187.517971,32.6820236 187.7125,30.9265724 187.7125,28.9484375 C187.7125,26.9609276 187.49219,25.2054764 187.051563,23.6820313 C186.610935,22.1585861 186.015629,20.9843791 185.265625,20.159375 C184.515621,19.3343709 183.69063,18.921875 182.790625,18.921875 C181.843745,18.921875 181.014066,19.350777 180.301563,20.2085938 L180.301563,20.2085938 Z M214.529688,38.1523438 C214.829689,38.4476577 215.124999,38.6046874 215.415625,38.6234375 L215.415625,39.2 C214.028118,39.1437497 212.279698,39.115625 210.170313,39.115625 C207.976552,39.115625 206.364068,39.1437497 205.332813,39.2 L205.332813,38.6234375 C206.054691,38.5953124 206.572655,38.5062508 206.886719,38.35625 C207.200783,38.2062492 207.357813,37.9437519 207.357813,37.56875 C207.357813,37.2781235 207.240626,36.8234406 207.00625,36.2046875 L205.290625,31.4796875 L199.482813,31.4796875 L198.990625,32.7734375 C198.371872,34.3859456 198.0625,35.6374955 198.0625,36.528125 C198.0625,37.3156289 198.280467,37.854686 198.716406,38.1453125 C199.152346,38.435939 199.801558,38.5953124 200.664063,38.6234375 L200.664063,39.2 C199.22968,39.1437497 197.973443,39.115625 196.895313,39.115625 C195.985933,39.115625 195.245315,39.1437497 194.673438,39.2 L194.673438,38.6234375 C195.14219,38.5484371 195.589842,38.2531276 196.016406,37.7375 C196.442971,37.2218724 196.87656,36.3921932 197.317188,35.2484375 L203.715625,18.809375 C204.128127,18.8468752 204.634372,18.865625 205.234375,18.865625 C205.834378,18.865625 206.335935,18.8468752 206.739063,18.809375 L213.714063,36.78125 C213.957814,37.4000031 214.229686,37.8570298 214.529688,38.1523438 L214.529688,38.1523438 Z M202.478125,23.703125 L199.707813,30.903125 L205.09375,30.903125 L202.478125,23.703125 Z M235.553125,39.25625 C234.859372,39.4906262 234.05313,39.6078125 233.134375,39.6078125 C231.812493,39.6078125 230.783597,39.3710961 230.047656,38.8976562 C229.311715,38.4242164 228.859376,37.6203182 228.690625,36.4859375 L228.254688,33.6171875 C228.057812,32.2671807 227.795314,31.2476597 227.467188,30.5585938 C227.139061,29.8695278 226.637503,29.525 225.9625,29.525 L224.654688,29.525 L224.654688,36.1484375 C224.654688,36.8703161 224.706249,37.3953109 224.809375,37.7234375 C224.912501,38.0515641 225.102342,38.2765619 225.378906,38.3984375 C225.65547,38.5203131 226.098434,38.5953124 226.707813,38.6234375 L226.707813,39.2 C225.582807,39.1437497 223.979698,39.115625 221.898438,39.115625 C219.573426,39.115625 217.862505,39.1437497 216.765625,39.2 L216.765625,38.6234375 C217.384378,38.5953124 217.83203,38.5203131 218.108594,38.3984375 C218.385158,38.2765619 218.572656,38.0515641 218.671094,37.7234375 C218.769532,37.3953109 218.81875,36.8703161 218.81875,36.1484375 L218.81875,21.8609375 C218.81875,21.1390589 218.767188,20.6140641 218.664063,20.2859375 C218.560937,19.9578109 218.371095,19.7328131 218.094531,19.6109375 C217.817967,19.4890619 217.375003,19.4140626 216.765625,19.3859375 L216.765625,18.809375 C217.862505,18.8656253 219.517176,18.89375 221.729688,18.89375 C222.517191,18.89375 223.393745,18.8843751 224.359375,18.865625 C225.325005,18.8468749 225.990623,18.8375 226.35625,18.8375 C229.281265,18.8375 231.458587,19.2476521 232.888281,20.0679688 C234.317976,20.8882854 235.032813,22.1468665 235.032813,23.84375 C235.032813,25.2875072 234.493755,26.5179637 233.415625,27.5351562 C232.337495,28.5523488 230.528138,29.1828113 227.9875,29.4265625 C229.946885,29.5390631 231.430464,29.8976532 232.438281,30.5023438 C233.446099,31.1070343 234.062499,31.9999941 234.2875,33.18125 L234.892188,36.1765625 C235.032813,36.879691 235.199218,37.3671861 235.391406,37.6390625 C235.583595,37.9109389 235.848436,38.046875 236.185938,38.046875 C236.532814,38.046875 236.828124,37.9203138 237.071875,37.6671875 L237.451563,38.046875 C236.879685,38.6187529 236.246878,39.0218738 235.553125,39.25625 L235.553125,39.25625 Z M227.628906,28.3296875 C228.149221,27.9171854 228.505468,27.364066 228.697656,26.6703125 C228.889845,25.976559 228.985938,25.1421924 228.985938,24.1671875 C228.985938,22.5921796 228.770315,21.4015665 228.339063,20.5953125 C227.90781,19.7890585 227.200005,19.3859375 226.215625,19.3859375 C225.774998,19.3859375 225.444532,19.4539056 225.224219,19.5898438 C225.003905,19.7257819 224.853907,19.9671858 224.774219,20.3140625 C224.694531,20.6609392 224.654688,21.1765591 224.654688,21.8609375 L224.654688,28.9484375 L225.442188,28.9484375 C226.379692,28.9484375 227.108591,28.7421896 227.628906,28.3296875 L227.628906,28.3296875 Z M242.823438,18.9078125 L243.85,18.89375 C246.662514,18.8374997 248.204686,18.809375 248.476563,18.809375 C252.460957,18.809375 255.439834,19.657804 257.413281,21.3546875 C259.386729,23.051571 260.373438,25.5265462 260.373438,28.7796875 C260.373438,30.870323 259.89063,32.7007734 258.925,34.2710938 C257.95937,35.8414141 256.564853,37.0554645 254.741406,37.9132812 C252.91796,38.771098 250.745325,39.2 248.223438,39.2 C247.942186,39.2 247.27188,39.1859376 246.2125,39.1578125 C245.15312,39.1296874 244.384377,39.115625 243.90625,39.115625 C241.656239,39.115625 239.982818,39.1437497 238.885938,39.2 L238.885938,38.6234375 C239.504691,38.5953124 239.952342,38.5203131 240.228906,38.3984375 C240.50547,38.2765619 240.692968,38.0515641 240.791406,37.7234375 C240.889844,37.3953109 240.939063,36.8703161 240.939063,36.1484375 L240.939063,21.8609375 C240.939063,21.1390589 240.887501,20.6140641 240.784375,20.2859375 C240.681249,19.9578109 240.491408,19.7328131 240.214844,19.6109375 C239.93828,19.4890619 239.495316,19.4140626 238.885938,19.3859375 L238.885938,18.809375 C240.282819,18.8750003 241.595306,18.9078125 242.823438,18.9078125 L242.823438,18.9078125 Z M246.94375,37.7585938 C247.056251,38.100783 247.264842,38.3398431 247.569531,38.4757813 C247.87422,38.6117194 248.331247,38.6796875 248.940625,38.6796875 C250.84376,38.6796875 252.217183,37.8593832 253.060938,36.21875 C253.904692,34.5781168 254.326563,32.1359537 254.326563,28.8921875 C254.326563,25.6390462 253.890629,23.2320391 253.01875,21.6710938 C252.146871,20.1101484 250.778134,19.3296875 248.9125,19.3296875 C248.312497,19.3296875 247.862502,19.3976556 247.5625,19.5335938 C247.262499,19.6695319 247.056251,19.9109358 246.94375,20.2578125 C246.831249,20.6046892 246.775,21.1203091 246.775,21.8046875 L246.775,36.2046875 C246.775,36.898441 246.831249,37.4164045 246.94375,37.7585938 L246.94375,37.7585938 Z M271.939844,19.6109375 C271.66328,19.7328131 271.475782,19.9578109 271.377344,20.2859375 C271.278906,20.6140641 271.229688,21.1390589 271.229688,21.8609375 L271.229688,36.1484375 C271.229688,36.8703161 271.281249,37.3953109 271.384375,37.7234375 C271.487501,38.0515641 271.677342,38.2765619 271.953906,38.3984375 C272.23047,38.5203131 272.673434,38.5953124 273.282813,38.6234375 L273.282813,39.2 C272.157807,39.1437497 270.554698,39.115625 268.473438,39.115625 C266.148426,39.115625 264.437505,39.1437497 263.340625,39.2 L263.340625,38.6234375 C263.959378,38.5953124 264.40703,38.5203131 264.683594,38.3984375 C264.960158,38.2765619 265.147656,38.0515641 265.246094,37.7234375 C265.344532,37.3953109 265.39375,36.8703161 265.39375,36.1484375 L265.39375,21.8609375 C265.39375,21.1390589 265.342188,20.6140641 265.239063,20.2859375 C265.135937,19.9578109 264.946095,19.7328131 264.669531,19.6109375 C264.392967,19.4890619 263.950003,19.4140626 263.340625,19.3859375 L263.340625,18.809375 C264.437505,18.8656253 266.148426,18.89375 268.473438,18.89375 C270.554698,18.89375 272.157807,18.8656253 273.282813,18.809375 L273.282813,19.3859375 C272.664059,19.4140626 272.216408,19.4890619 271.939844,19.6109375 L271.939844,19.6109375 Z M294.503125,20.0046875 C294.221874,20.2859389 294.032032,20.7148409 293.933594,21.2914063 C293.835156,21.8679716 293.785938,22.7281193 293.785938,23.871875 L293.785938,39.2 C293.504686,39.1718749 293.190627,39.1578125 292.84375,39.1578125 C292.506248,39.1578125 292.145314,39.1718749 291.760938,39.2 L279.00625,25.2640625 L279.00625,33.5609375 C279.00625,34.9765696 279.062499,35.9937469 279.175,36.6125 C279.287501,37.2312531 279.540623,37.6882798 279.934375,37.9835937 C280.328127,38.2789077 280.989058,38.4921868 281.917188,38.6234375 L281.917188,39.2 C281.148434,39.1437497 280.070319,39.115625 278.682813,39.115625 C277.670307,39.115625 276.87344,39.1437497 276.292188,39.2 L276.292188,38.6234375 C276.892191,38.4921868 277.335155,38.2859389 277.621094,38.0046875 C277.907033,37.7234361 278.099218,37.2945341 278.197656,36.7179687 C278.296094,36.1414034 278.345313,35.2812557 278.345313,34.1375 L278.345313,21.8609375 C278.345313,21.1390589 278.293751,20.6140641 278.190625,20.2859375 C278.087499,19.9578109 277.897658,19.7328131 277.621094,19.6109375 C277.34453,19.4890619 276.901566,19.4140626 276.292188,19.3859375 L276.292188,18.809375 C276.87344,18.8656253 277.670307,18.89375 278.682813,18.89375 C279.742193,18.89375 280.628121,18.8656253 281.340625,18.809375 L293.110938,31.2546875 L293.110938,24.4484375 C293.110938,23.0328054 293.054688,22.0156281 292.942188,21.396875 C292.829687,20.7781219 292.578908,20.3210952 292.189844,20.0257813 C291.800779,19.7304673 291.142192,19.5171882 290.214063,19.3859375 L290.214063,18.809375 C290.992191,18.8656253 292.065618,18.89375 293.434375,18.89375 C294.456255,18.89375 295.253122,18.8656253 295.825,18.809375 L295.825,19.3859375 C295.224997,19.5171882 294.784376,19.7234361 294.503125,20.0046875 L294.503125,20.0046875 Z M316.996094,38.075 C316.841405,37.7281233 316.628126,37.5546875 316.35625,37.5546875 C315.953123,37.5546875 315.301567,37.7749978 314.401563,38.215625 C312.489053,39.1437546 310.867194,39.6078125 309.535938,39.6078125 C307.154676,39.6078125 305.157821,39.1976604 303.545313,38.3773438 C301.932804,37.5570271 300.723442,36.3687578 299.917188,34.8125 C299.110933,33.2562422 298.707813,31.3765735 298.707813,29.1734375 C298.707813,27.0546769 299.181245,25.1796957 300.128125,23.5484375 C301.075005,21.9171793 302.394523,20.651567 304.086719,19.7515625 C305.778915,18.851558 307.707802,18.4015625 309.873438,18.4015625 C311.110944,18.4015625 312.167964,18.5656234 313.044531,18.89375 C313.921098,19.2218766 314.729684,19.681247 315.470313,20.271875 C315.657813,20.4500009 315.849999,20.5390625 316.046875,20.5390625 C316.243751,20.5390625 316.398437,20.4007826 316.510938,20.1242188 C316.623438,19.8476549 316.707812,19.409378 316.764063,18.809375 L317.425,18.809375 C317.35,20.1687568 317.3125,22.5687328 317.3125,26.009375 L316.651563,26.009375 C316.557812,25.006245 316.421876,24.157816 316.24375,23.4640625 C316.065624,22.770309 315.798439,22.1515652 315.442188,21.6078125 C315.085936,21.0640598 314.603128,20.5812521 313.99375,20.159375 C313.599998,19.8874986 313.13594,19.6765633 312.601563,19.5265625 C312.067185,19.3765617 311.54219,19.3015625 311.026563,19.3015625 C309.648431,19.3015625 308.532817,19.7867139 307.679688,20.7570313 C306.826558,21.7273486 306.221877,22.9507739 305.865625,24.4273437 C305.509373,25.9039136 305.33125,27.4484294 305.33125,29.0609375 C305.33125,32.4078292 305.741402,34.9062418 306.561719,36.55625 C307.382035,38.2062582 308.514055,39.03125 309.957813,39.03125 C310.557816,39.03125 311.031248,38.9140637 311.378125,38.6796875 C311.781252,38.3984361 311.982813,37.9203159 311.982813,37.2453125 L311.982813,34.3625 C311.982813,33.3968702 311.907813,32.6914085 311.757813,32.2460938 C311.607812,31.800779 311.335939,31.4937508 310.942188,31.325 C310.548436,31.1562492 309.925004,31.0531252 309.071875,31.015625 L309.071875,30.4390625 C310.281256,30.5046878 312.11405,30.5375 314.570313,30.5375 C316.614073,30.5375 318.095308,30.5046878 319.014063,30.4390625 L319.014063,31.015625 C318.657811,31.0531252 318.402345,31.1304682 318.247656,31.2476562 C318.092968,31.3648443 317.985157,31.5874984 317.924219,31.915625 C317.863281,32.2437516 317.832813,32.7687464 317.832813,33.490625 L317.832813,39.2 L317.25625,39.2 C317.2375,38.796873 317.150782,38.4218767 316.996094,38.075 L316.996094,38.075 Z" id="BOARDING" fill="#565656"></path>
        <path d="M160.586719,5.35078125 L160.586719,5.703125 L157.982812,5.703125 L157.982812,12.5179688 C157.982812,13.0507839 158.077343,13.433202 158.266406,13.6652344 C158.45547,13.8972668 158.736196,14.0132813 159.108594,14.0132813 C159.475262,14.0132813 159.787499,13.867189 160.045312,13.575 C160.303126,13.282811 160.520832,12.8015659 160.698438,12.13125 L161.042188,12.2171875 C160.755728,13.8385498 159.993756,14.6492188 158.75625,14.6492188 C158.360936,14.6492188 158.034376,14.6019536 157.776563,14.5074219 C157.518749,14.4128902 157.289584,14.2653656 157.089063,14.0648438 C156.836978,13.80703 156.659376,13.4904967 156.55625,13.1152344 C156.453124,12.7399721 156.401563,12.2343782 156.401563,11.5984375 L156.401563,5.703125 L154.708594,5.703125 L154.708594,5.35078125 L156.401563,5.35078125 L156.401563,2.6609375 C157.06042,2.64374991 157.587498,2.56067783 157.982812,2.41171875 L157.982812,5.35078125 L160.586719,5.35078125 Z M172.862109,6.27890625 C173.111329,5.93515453 173.407811,5.65156362 173.751563,5.428125 C174.095314,5.20468638 174.459113,5.09296875 174.842969,5.09296875 C175.152345,5.09296875 175.428775,5.15455668 175.672266,5.27773438 C175.915756,5.40091207 176.106249,5.56848852 176.24375,5.78046875 C176.381251,5.99244898 176.45,6.22447791 176.45,6.4765625 C176.45,6.78593905 176.358334,7.0480458 176.175,7.26289063 C175.991666,7.47773545 175.748179,7.58515625 175.444531,7.58515625 C175.186717,7.58515625 174.966147,7.50351644 174.782813,7.34023438 C174.599478,7.17695231 174.507812,6.95494932 174.507812,6.67421875 C174.507812,6.29036266 174.708331,5.97239709 175.109375,5.7203125 C175.029166,5.60572859 174.90599,5.5484375 174.739844,5.5484375 C174.275779,5.5484375 173.857554,5.72603989 173.485156,6.08125 C173.112759,6.43646011 172.820574,6.87473698 172.608594,7.39609375 C172.396614,7.91745052 172.290625,8.40442482 172.290625,8.85703125 L172.290625,12.5867188 C172.290625,13.1309923 172.445311,13.5076812 172.754688,13.7167969 C173.064064,13.9259125 173.530986,14.0304688 174.155469,14.0304688 L174.155469,14.4 C172.711712,14.3541664 171.809377,14.33125 171.448438,14.33125 C171.139061,14.33125 170.445839,14.3541664 169.36875,14.4 L169.36875,14.0304688 C169.701043,14.0304688 169.96315,13.9932295 170.155078,13.91875 C170.347006,13.8442705 170.487369,13.7153655 170.576172,13.5320313 C170.664974,13.348697 170.709375,13.0937516 170.709375,12.7671875 L170.709375,7.25859375 C170.709375,6.7143202 170.610548,6.31901165 170.412891,6.07265625 C170.215233,5.82630085 169.86719,5.703125 169.36875,5.703125 L169.36875,5.33359375 C169.735419,5.36796892 170.099217,5.38515625 170.460156,5.38515625 C171.204952,5.38515625 171.815102,5.30494872 172.290625,5.14453125 L172.290625,7.34453125 C172.422396,6.97786275 172.612889,6.62265797 172.862109,6.27890625 L172.862109,6.27890625 Z M189.894141,5.81914063 C189.610545,5.56992063 189.208076,5.4453125 188.686719,5.4453125 C187.855985,5.4453125 187.274481,5.65442499 186.942188,6.07265625 C187.177085,6.1299482 187.373307,6.25455633 187.530859,6.44648438 C187.688412,6.63841242 187.767188,6.87187363 187.767188,7.146875 C187.767188,7.44479316 187.674089,7.67825436 187.487891,7.84726563 C187.301692,8.01627689 187.051043,8.10078125 186.735938,8.10078125 C186.438019,8.10078125 186.204558,8.00052184 186.035547,7.8 C185.866536,7.59947816 185.782031,7.33593913 185.782031,7.009375 C185.782031,6.55103938 186.057029,6.13281439 186.607031,5.7546875 C186.893491,5.56562405 187.247264,5.40807355 187.668359,5.28203125 C188.089455,5.15598895 188.55781,5.09296875 189.073438,5.09296875 C189.55469,5.09296875 189.978644,5.15169212 190.345313,5.26914063 C190.711981,5.38658913 190.998436,5.54843647 191.204688,5.7546875 C191.47396,6.02968888 191.658723,6.34908672 191.758984,6.71289063 C191.859245,7.07669453 191.909375,7.57942387 191.909375,8.22109375 L191.909375,13.1109375 C191.909375,13.4031265 191.950911,13.6151035 192.033984,13.746875 C192.117058,13.8786465 192.255989,13.9445313 192.450781,13.9445313 C192.594011,13.9445313 192.725781,13.9130211 192.846094,13.85 C192.966407,13.7869789 193.098176,13.6953131 193.241406,13.575 L193.439063,13.8757813 C193.232811,14.0304695 193.060938,14.1507808 192.923438,14.2367188 C192.785937,14.3226567 192.628386,14.391406 192.450781,14.4429688 C192.273176,14.4945315 192.066928,14.5203125 191.832031,14.5203125 C191.264841,14.5203125 190.870965,14.378517 190.650391,14.0949219 C190.429817,13.8113267 190.319531,13.4317732 190.319531,12.95625 C189.97578,13.5234403 189.563284,13.9259103 189.082031,14.1636719 C188.600779,14.4014335 188.11094,14.5203125 187.6125,14.5203125 C187.205727,14.5203125 186.833335,14.4501309 186.495313,14.3097656 C186.15729,14.1694003 185.88659,13.9516942 185.683203,13.6566406 C185.479817,13.3615871 185.378125,12.9934918 185.378125,12.5523438 C185.378125,12.1054665 185.486978,11.7244807 185.704688,11.409375 C185.922397,11.0942693 186.228904,10.8178397 186.624219,10.5800781 C187.019533,10.3423165 187.549476,10.0830743 188.214063,9.80234375 C188.328646,9.75651019 188.609373,9.641928 189.05625,9.45859375 C189.503127,9.2752595 189.82539,9.091928 190.023047,8.90859375 C190.220704,8.7252595 190.319531,8.52474067 190.319531,8.30703125 L190.319531,7.215625 C190.319531,6.53385076 190.177736,6.06836062 189.894141,5.81914063 L189.894141,5.81914063 Z M189.889844,9.3984375 C189.689322,9.51302141 189.271097,9.72499845 188.635156,10.034375 C188.297134,10.1947925 188.010678,10.3595044 187.775781,10.5285156 C187.540884,10.6975269 187.340365,10.925259 187.174219,11.2117188 C187.008072,11.4981785 186.925,11.8505187 186.925,12.26875 C186.925,12.7786484 187.053905,13.163931 187.311719,13.4246094 C187.569533,13.6852878 187.910415,13.815625 188.334375,13.815625 C189.113546,13.815625 189.775258,13.371619 190.319531,12.4835938 L190.319531,9.02890625 C190.233593,9.16067774 190.090366,9.28385359 189.889844,9.3984375 L189.889844,9.3984375 Z M206.109766,5.59570313 C206.633987,5.2605452 207.225518,5.09296875 207.884375,5.09296875 C208.70365,5.09296875 209.325258,5.31353946 209.749219,5.7546875 C209.966928,5.9953137 210.123046,6.29179511 210.217578,6.64414063 C210.31211,6.99648614 210.359375,7.47056994 210.359375,8.06640625 L210.359375,12.7671875 C210.359375,13.0937516 210.403776,13.348697 210.492578,13.5320313 C210.581381,13.7153655 210.721744,13.8442705 210.913672,13.91875 C211.1056,13.9932295 211.367707,14.0304688 211.7,14.0304688 L211.7,14.4 C210.622911,14.3541664 209.918231,14.33125 209.585938,14.33125 C209.259373,14.33125 208.60339,14.3541664 207.617969,14.4 L207.617969,14.0304688 C207.910158,14.0304688 208.13789,13.9932295 208.301172,13.91875 C208.464454,13.8442705 208.584765,13.7153655 208.662109,13.5320313 C208.739454,13.348697 208.778125,13.0937516 208.778125,12.7671875 L208.778125,7.6796875 C208.778125,7.25572705 208.745183,6.90052227 208.679297,6.6140625 C208.613411,6.32760273 208.475913,6.0955738 208.266797,5.91796875 C208.057681,5.7403637 207.752606,5.6515625 207.351562,5.6515625 C206.87031,5.6515625 206.442059,5.79192568 206.066797,6.07265625 C205.691535,6.35338682 205.400782,6.73866943 205.194531,7.22851563 C204.98828,7.71836182 204.885156,8.26119494 204.885156,8.85703125 L204.885156,12.7671875 C204.885156,13.0937516 204.923828,13.348697 205.001172,13.5320313 C205.078516,13.7153655 205.20026,13.8442705 205.366406,13.91875 C205.532553,13.9932295 205.761717,14.0304688 206.053906,14.0304688 L206.053906,14.4 C205.068485,14.3541664 204.409637,14.33125 204.077344,14.33125 C203.74505,14.33125 203.04037,14.3541664 201.963281,14.4 L201.963281,14.0304688 C202.295575,14.0304688 202.557681,13.9932295 202.749609,13.91875 C202.941537,13.8442705 203.081901,13.7153655 203.170703,13.5320313 C203.259506,13.348697 203.303906,13.0937516 203.303906,12.7671875 L203.303906,7.25859375 C203.303906,6.7143202 203.205079,6.31901165 203.007422,6.07265625 C202.809765,5.82630085 202.461721,5.703125 201.963281,5.703125 L201.963281,5.33359375 C202.32995,5.36796892 202.693748,5.38515625 203.054688,5.38515625 C203.799483,5.38515625 204.409633,5.30494872 204.885156,5.14453125 L204.885156,7.215625 C205.177345,6.47082961 205.585544,5.93086105 206.109766,5.59570313 L206.109766,5.59570313 Z M221.779688,12.8015625 C221.940105,13.2713565 222.186457,13.6380195 222.51875,13.9015625 C222.851043,14.1651055 223.297914,14.296875 223.859375,14.296875 C224.117189,14.296875 224.364973,14.2410162 224.602734,14.1292969 C224.840496,14.0175776 225.036718,13.8371106 225.191406,13.5878906 C225.346095,13.3386706 225.423438,13.0164082 225.423438,12.6210938 C225.423438,12.3002588 225.341798,12.0123711 225.178516,11.7574219 C225.015234,11.5024727 224.801824,11.2733083 224.538281,11.0699219 C224.274738,10.8665354 223.905211,10.6158869 223.429688,10.3179688 C222.851039,9.95130025 222.408465,9.65052201 222.101953,9.415625 C221.795441,9.18072799 221.536199,8.89427252 221.324219,8.55625 C221.112239,8.21822748 221.00625,7.82005437 221.00625,7.36171875 C221.00625,6.86327876 221.123697,6.4436215 221.358594,6.10273438 C221.593491,5.76184725 221.907159,5.50833416 222.299609,5.3421875 C222.692059,5.17604084 223.128904,5.09296875 223.610156,5.09296875 C224.022658,5.09296875 224.393618,5.15885351 224.723047,5.290625 C225.052476,5.42239649 225.320311,5.57135334 225.526563,5.7375 C225.652605,5.83489632 225.755729,5.88359375 225.835938,5.88359375 C226.042189,5.88359375 226.173958,5.62578383 226.23125,5.11015625 L226.635156,5.11015625 C226.589323,5.68307578 226.566406,6.67994081 226.566406,8.10078125 L226.1625,8.10078125 C226.036458,7.32733988 225.787241,6.68854419 225.414844,6.184375 C225.042446,5.68020581 224.492452,5.428125 223.764844,5.428125 C223.340883,5.428125 222.994272,5.54700402 222.725,5.78476563 C222.455728,6.02252723 222.321094,6.3533833 222.321094,6.77734375 C222.321094,7.18411662 222.460025,7.52356635 222.737891,7.79570313 C223.015757,8.0678399 223.350909,8.3270821 223.743359,8.5734375 C224.135809,8.8197929 224.415103,8.99739529 224.58125,9.10625 C225.119794,9.45573091 225.553774,9.7665351 225.883203,10.0386719 C226.212632,10.3108087 226.479035,10.6230451 226.682422,10.9753906 C226.885808,11.3277361 226.9875,11.7302061 226.9875,12.1828125 C226.9875,12.7041693 226.851434,13.1496075 226.579297,13.5191406 C226.30716,13.8886737 225.941929,14.1694001 225.483594,14.3613281 C225.025258,14.5532562 224.523961,14.6492188 223.979688,14.6492188 C223.458331,14.6492188 222.994273,14.5661467 222.5875,14.4 C222.358332,14.2854161 222.11771,14.1278656 221.865625,13.9273438 C221.819791,13.8815102 221.765365,13.8585938 221.702344,13.8585938 C221.530468,13.8585938 221.410157,14.0791645 221.341406,14.5203125 L220.9375,14.5203125 C220.983334,13.8499966 221.00625,12.6783938 221.00625,11.0054688 L221.410156,11.0054688 C221.496094,11.7330766 221.61927,12.3317685 221.779688,12.8015625 L221.779688,12.8015625 Z M247.98125,5.38515625 C248.502607,5.38515625 248.949477,5.36796892 249.321875,5.33359375 L249.321875,5.6859375 C249.07552,5.71458348 248.857813,5.820572 248.66875,6.00390625 C248.479687,6.1872405 248.316407,6.49374785 248.178906,6.9234375 L245.626563,14.4859375 L245.325781,14.4859375 L242.532813,7.4046875 L240.023438,14.4859375 L239.73125,14.4859375 L236.84375,6.69140625 C236.683333,6.27890419 236.517188,6.01106832 236.345313,5.88789063 C236.173437,5.76471293 235.998699,5.703125 235.821094,5.703125 L235.821094,5.33359375 C236.313805,5.40807329 236.829424,5.4453125 237.367969,5.4453125 C237.889326,5.4453125 238.651297,5.40807329 239.653906,5.33359375 L239.653906,5.703125 C239.27005,5.703125 238.985027,5.72604144 238.798828,5.771875 C238.612629,5.81770856 238.492318,5.94661352 238.437891,6.15859375 C238.383463,6.37057398 238.439322,6.71145598 238.605469,7.18125 L240.367188,12.2429688 L242.89375,5.26484375 L243.297656,5.26484375 L245.996094,12.3890625 L247.646094,7.34453125 C247.754948,7.00077953 247.809375,6.73437595 247.809375,6.5453125 C247.809375,6.26458193 247.707683,6.05833399 247.504297,5.9265625 C247.30091,5.79479101 246.96719,5.71458348 246.503125,5.6859375 L246.503125,5.33359375 C247.121878,5.36796892 247.614581,5.38515625 247.98125,5.38515625 L247.98125,5.38515625 Z M264.089453,5.6 C264.688154,5.93802252 265.160806,6.46366831 265.507422,7.17695313 C265.854038,7.89023794 266.027344,8.79114039 266.027344,9.8796875 C266.027344,10.9682346 265.854038,11.8677048 265.507422,12.578125 C265.160806,13.2885452 264.688154,13.8113264 264.089453,14.1464844 C263.490752,14.4816423 262.804691,14.6492188 262.03125,14.6492188 C261.257809,14.6492188 260.571748,14.4816423 259.973047,14.1464844 C259.374346,13.8113264 258.901694,13.2885452 258.555078,12.578125 C258.208462,11.8677048 258.035156,10.9682346 258.035156,9.8796875 C258.035156,8.79114039 258.208462,7.89023794 258.555078,7.17695313 C258.901694,6.46366831 259.374346,5.93802252 259.973047,5.6 C260.571748,5.26197748 261.257809,5.09296875 262.03125,5.09296875 C262.804691,5.09296875 263.490752,5.26197748 264.089453,5.6 L264.089453,5.6 Z M260.359766,6.528125 C259.950128,7.25000361 259.745313,8.36717994 259.745313,9.8796875 C259.745313,11.3864659 259.950128,12.4993454 260.359766,13.2183594 C260.769403,13.9373734 261.326559,14.296875 262.03125,14.296875 C262.735941,14.296875 263.293097,13.9373734 263.702734,13.2183594 C264.112372,12.4993454 264.317188,11.3864659 264.317188,9.8796875 C264.317188,8.36717994 264.112372,7.25000361 263.702734,6.528125 C263.293097,5.80624639 262.735941,5.4453125 262.03125,5.4453125 C261.326559,5.4453125 260.769403,5.80624639 260.359766,6.528125 L260.359766,6.528125 Z M278.852734,6.27890625 C279.101954,5.93515453 279.398436,5.65156362 279.742188,5.428125 C280.085939,5.20468638 280.449738,5.09296875 280.833594,5.09296875 C281.14297,5.09296875 281.4194,5.15455668 281.662891,5.27773438 C281.906381,5.40091207 282.096874,5.56848852 282.234375,5.78046875 C282.371876,5.99244898 282.440625,6.22447791 282.440625,6.4765625 C282.440625,6.78593905 282.348959,7.0480458 282.165625,7.26289063 C281.982291,7.47773545 281.738804,7.58515625 281.435156,7.58515625 C281.177342,7.58515625 280.956772,7.50351644 280.773438,7.34023438 C280.590103,7.17695231 280.498438,6.95494932 280.498438,6.67421875 C280.498438,6.29036266 280.698956,5.97239709 281.1,5.7203125 C281.019791,5.60572859 280.896615,5.5484375 280.730469,5.5484375 C280.266404,5.5484375 279.848179,5.72603989 279.475781,6.08125 C279.103384,6.43646011 278.811199,6.87473698 278.599219,7.39609375 C278.387239,7.91745052 278.28125,8.40442482 278.28125,8.85703125 L278.28125,12.5867188 C278.28125,13.1309923 278.435936,13.5076812 278.745313,13.7167969 C279.054689,13.9259125 279.521611,14.0304688 280.146094,14.0304688 L280.146094,14.4 C278.702337,14.3541664 277.800002,14.33125 277.439062,14.33125 C277.129686,14.33125 276.436464,14.3541664 275.359375,14.4 L275.359375,14.0304688 C275.691668,14.0304688 275.953775,13.9932295 276.145703,13.91875 C276.337631,13.8442705 276.477994,13.7153655 276.566797,13.5320313 C276.655599,13.348697 276.7,13.0937516 276.7,12.7671875 L276.7,7.25859375 C276.7,6.7143202 276.601173,6.31901165 276.403516,6.07265625 C276.205858,5.82630085 275.857815,5.703125 275.359375,5.703125 L275.359375,5.33359375 C275.726044,5.36796892 276.089842,5.38515625 276.450781,5.38515625 C277.195577,5.38515625 277.805727,5.30494872 278.28125,5.14453125 L278.28125,7.34453125 C278.413021,6.97786275 278.603514,6.62265797 278.852734,6.27890625 L278.852734,6.27890625 Z M293.770703,13.5320313 C293.859506,13.7153655 293.999869,13.8442705 294.191797,13.91875 C294.383725,13.9932295 294.645832,14.0304688 294.978125,14.0304688 L294.978125,14.4 C293.901036,14.3541664 293.190627,14.33125 292.846875,14.33125 C292.503123,14.33125 291.792714,14.3541664 290.715625,14.4 L290.715625,14.0304688 C291.047918,14.0304688 291.310025,13.9932295 291.501953,13.91875 C291.693881,13.8442705 291.834244,13.7153655 291.923047,13.5320313 C292.011849,13.348697 292.05625,13.0937516 292.05625,12.7671875 L292.05625,2.7125 C292.05625,2.16822645 291.957423,1.77435018 291.759766,1.53085938 C291.562108,1.28736857 291.214065,1.165625 290.715625,1.165625 L290.715625,0.79609375 C291.082293,0.830468922 291.446092,0.84765625 291.807031,0.84765625 C292.563285,0.84765625 293.173435,0.764584164 293.6375,0.5984375 L293.6375,12.7671875 C293.6375,13.0937516 293.681901,13.348697 293.770703,13.5320313 L293.770703,13.5320313 Z M312.186328,13.6652344 C312.383985,13.9087252 312.732029,14.0304688 313.230469,14.0304688 L313.230469,14.4 C312.858071,14.3656248 312.494273,14.3484375 312.139063,14.3484375 C311.382809,14.3484375 310.772659,14.4315096 310.308594,14.5976563 L310.308594,13.0335938 C310.090884,13.5606797 309.771486,13.9617174 309.350391,14.2367188 C308.929295,14.5117201 308.415107,14.6492188 307.807813,14.6492188 C307.063017,14.6492188 306.421357,14.4716164 305.882812,14.1164063 C305.344268,13.7611961 304.93034,13.228389 304.641016,12.5179688 C304.351691,11.8075485 304.209896,10.9281302 304.215625,9.8796875 C304.209896,8.85416154 304.387498,7.98047236 304.748438,7.25859375 C305.109377,6.53671514 305.592054,5.9953143 306.196484,5.634375 C306.800914,5.2734357 307.466923,5.09296875 308.194531,5.09296875 C308.641408,5.09296875 309.052472,5.17747311 309.427734,5.34648438 C309.802997,5.51549564 310.096614,5.77760239 310.308594,6.1328125 L310.308594,2.7125 C310.308594,2.16822645 310.209767,1.77435018 310.012109,1.53085938 C309.814452,1.28736857 309.466409,1.165625 308.967969,1.165625 L308.967969,0.79609375 C309.340366,0.830468922 309.704165,0.84765625 310.059375,0.84765625 C310.815629,0.84765625 311.425779,0.764584164 311.889844,0.5984375 L311.889844,12.4835938 C311.889844,13.0278673 311.988671,13.4217436 312.186328,13.6652344 L312.186328,13.6652344 Z M308.340625,5.496875 C307.865102,5.496875 307.445445,5.65872234 307.081641,5.98242188 C306.717837,6.30612141 306.432814,6.79596026 306.226562,7.45195313 C306.020311,8.10794599 305.920052,8.91718269 305.925781,9.8796875 C305.920052,11.2890695 306.119139,12.3475225 306.523047,13.0550781 C306.926955,13.7626337 307.524215,14.1164063 308.314844,14.1164063 C308.618491,14.1164063 308.904947,14.0390633 309.174219,13.884375 C309.443491,13.7296867 309.678384,13.4990901 309.878906,13.1925781 C310.079428,12.8860662 310.222656,12.5179709 310.308594,12.0882813 L310.308594,6.8546875 C309.98203,5.94947464 309.326047,5.496875 308.340625,5.496875 L308.340625,5.496875 Z" id="transworld" fill="#C5B358"></path>
    </g>
</svg>
