
<svg width="213px" height="101px" viewBox="0 0 213 101" version="1.1" xmlns="http://www.w3.org/2000/svg" xmlns:xlink="http://www.w3.org/1999/xlink">
    <!-- Generator: Sketch 39.1 (31720) - http://www.bohemiancoding.com/sketch -->
    <desc>Created with Sketch.</desc>
    <defs></defs>
    <g id="SNOW-Copy" stroke="none" stroke-width="1" fill="none" fill-rule="evenodd">
        <path d="M7.8125,64.21875 C9.6458425,67.3854325 12.4687309,68.96875 16.28125,68.96875 C18.6562619,68.96875 20.5312431,68.4166722 21.90625,67.3125 C23.2812569,66.2083278 23.96875,64.6770931 23.96875,62.71875 C23.96875,61.0312416 23.5885455,59.5156317 22.828125,58.171875 C22.0677045,56.8281183 21.0416731,55.5989639 19.75,54.484375 C18.4583269,53.3697861 16.7500106,52.1041738 14.625,50.6875 C12.0416538,48.9583247 9.99479922,47.4583397 8.484375,46.1875 C6.97395078,44.9166603 5.72396328,43.4323002 4.734375,41.734375 C3.74478672,40.0364498 3.25,38.0833444 3.25,35.875 C3.25,33.20832 3.97395109,30.9635508 5.421875,29.140625 C6.86979891,27.3176992 8.79165469,25.9687544 11.1875,25.09375 C13.5833453,24.2187456 16.2187356,23.78125 19.09375,23.78125 C21.5520956,23.78125 23.5416591,24.0104144 25.0625,24.46875 C26.5833409,24.9270856 28.0520762,25.5520794 29.46875,26.34375 C30.0729197,26.677085 30.5208319,26.9114577 30.8125,27.046875 C31.1041681,27.1822923 31.3854153,27.25 31.65625,27.25 C32.0520853,27.25 32.3541656,27.0260439 32.5625,26.578125 C32.7708344,26.1302061 32.9374994,25.4166716 33.0625,24.4375 L34.53125,24.4375 C34.3229156,27.5000153 34.21875,32.7082966 34.21875,40.0625 L32.75,40.0625 C32.5833325,37.6249878 32.0260464,35.2916778 31.078125,33.0625 C30.1302036,30.8333222 28.8437581,29.0208403 27.21875,27.625 C25.5937419,26.2291597 23.7187606,25.53125 21.59375,25.53125 C19.6562403,25.53125 18.0833394,26.0520781 16.875,27.09375 C15.6666606,28.1354219 15.0625,29.5937406 15.0625,31.46875 C15.0625,33.0104244 15.4218714,34.3333278 16.140625,35.4375 C16.8593786,36.5416722 17.848952,37.5833284 19.109375,38.5625 C20.369798,39.5416716 22.7812322,41.2708209 26.34375,43.75 C28.6979284,45.3958416 30.5729097,46.8385355 31.96875,48.078125 C33.3645903,49.3177145 34.5052039,50.770825 35.390625,52.4375 C36.2760461,54.104175 36.71875,56.0312391 36.71875,58.21875 C36.71875,60.9895972 35.9375078,63.3281155 34.375,65.234375 C32.8124922,67.1406345 30.7187631,68.5624953 28.09375,69.5 C25.4687369,70.4375047 22.5416828,70.90625 19.3125,70.90625 C16.6874869,70.90625 14.5156336,70.6927105 12.796875,70.265625 C11.0781164,69.8385395 9.4687575,69.2604203 7.96875,68.53125 C7.01041188,67.9270803 6.29166906,67.625 5.8125,67.625 C5.41666469,67.625 5.11458437,67.8437478 4.90625,68.28125 C4.69791563,68.7187522 4.52083406,69.437495 4.375,70.4375 L2.90625,70.4375 C3.09375094,67.1874837 3.1875,61.0000456 3.1875,51.875 L4.65625,51.875 C4.92708469,56.9375253 5.9791575,61.0520675 7.8125,64.21875 L7.8125,64.21875 Z M76.375,27.34375 C75.7499969,27.9687531 75.3281261,28.9218686 75.109375,30.203125 C74.8906239,31.4843814 74.78125,33.3958206 74.78125,35.9375 L74.78125,70 C74.1562469,69.9374997 73.4583372,69.90625 72.6875,69.90625 C71.9374963,69.90625 71.1354209,69.9374997 70.28125,70 L41.9375,39.03125 L41.9375,57.46875 C41.9375,60.6145991 42.0624988,62.8749931 42.3125,64.25 C42.5625012,65.6250069 43.1249956,66.6406217 44,67.296875 C44.8750044,67.9531283 46.3437397,68.4270819 48.40625,68.71875 L48.40625,70 C46.6979081,69.8749994 44.3020987,69.8125 41.21875,69.8125 C38.9687387,69.8125 37.1979231,69.8749994 35.90625,70 L35.90625,68.71875 C37.23959,68.4270819 38.2239552,67.9687531 38.859375,67.34375 C39.4947948,66.7187469 39.9218739,65.7656314 40.140625,64.484375 C40.3593761,63.2031186 40.46875,61.2916794 40.46875,58.75 L40.46875,31.46875 C40.46875,29.8645753 40.3541678,28.6979203 40.125,27.96875 C39.8958322,27.2395797 39.4739614,26.7395847 38.859375,26.46875 C38.2447886,26.1979153 37.2604234,26.0312503 35.90625,25.96875 L35.90625,24.6875 C37.1979231,24.8125006 38.9687387,24.875 41.21875,24.875 C43.5729284,24.875 45.5416587,24.8125006 47.125,24.6875 L73.28125,52.34375 L73.28125,37.21875 C73.28125,34.0729009 73.1562512,31.8125069 72.90625,30.4375 C72.6562488,29.0624931 72.0989627,28.0468783 71.234375,27.390625 C70.3697873,26.7343717 68.9062603,26.2604181 66.84375,25.96875 L66.84375,24.6875 C68.5729253,24.8125006 70.9583181,24.875 74,24.875 C76.2708447,24.875 78.0416603,24.8125006 79.3125,24.6875 L79.3125,25.96875 C77.97916,26.2604181 77.0000031,26.7187469 76.375,27.34375 L76.375,27.34375 Z M114.59375,26.53125 C118.218768,28.3645925 121.03124,31.0260242 123.03125,34.515625 C125.03126,38.0052258 126.03125,42.1562259 126.03125,46.96875 C126.03125,51.6771069 125.005219,55.8437319 122.953125,59.46875 C120.901031,63.0937681 118.041685,65.90624 114.375,67.90625 C110.708315,69.90626 106.531273,70.90625 101.84375,70.90625 C97.0103925,70.90625 92.7812681,69.9895925 89.15625,68.15625 C85.5312319,66.3229075 82.71876,63.6614758 80.71875,60.171875 C78.71874,56.6822742 77.71875,52.5312741 77.71875,47.71875 C77.71875,43.0103931 78.7447814,38.8437681 80.796875,35.21875 C82.8489686,31.5937319 85.7031067,28.78126 89.359375,26.78125 C93.0156433,24.78124 97.1978931,23.78125 101.90625,23.78125 C106.739608,23.78125 110.968732,24.6979075 114.59375,26.53125 L114.59375,26.53125 Z M96.125,27.796875 C94.5416587,29.7031345 93.3177127,32.359358 92.453125,35.765625 C91.5885373,39.171892 91.15625,43.0728947 91.15625,47.46875 C91.15625,51.8854387 91.6458284,55.7864414 92.625,59.171875 C93.6041716,62.5573086 94.927075,65.1666575 96.59375,67 C98.260425,68.8333425 100.09374,69.75 102.09375,69.75 C104.197927,69.75 106.041659,68.7968845 107.625,66.890625 C109.208341,64.9843655 110.432287,62.328142 111.296875,58.921875 C112.161463,55.515608 112.59375,51.6146053 112.59375,47.21875 C112.59375,42.8020613 112.104172,38.9010586 111.125,35.515625 C110.145828,32.1301914 108.822925,29.5208425 107.15625,27.6875 C105.489575,25.8541575 103.65626,24.9375 101.65625,24.9375 C99.5520728,24.9375 97.7083412,25.8906155 96.125,27.796875 L96.125,27.796875 Z M183.59375,24.875 C185.614593,24.875 187.26041,24.8125006 188.53125,24.6875 L188.53125,25.96875 C186.010404,27.1979228 184.020841,30.1874763 182.5625,34.9375 L171.8125,70 C170.47916,69.9166662 169.354171,69.875 168.4375,69.875 C167.583329,69.875 166.468757,69.9166662 165.09375,70 L156.78125,44.59375 L147.75,70 C146.41666,69.9166662 145.291671,69.875 144.375,69.875 C143.520829,69.875 142.406257,69.9166662 141.03125,70 L126.1875,30.0625 C125.687497,28.7083266 125.093753,27.69792 124.40625,27.03125 C123.718747,26.36458 123.052087,26.0104169 122.40625,25.96875 L122.40625,24.6875 C125.510432,24.8125006 129.291644,24.875 133.75,24.875 C137.645853,24.875 140.479158,24.8125006 142.25,24.6875 L142.25,25.96875 C141.124994,26.1979178 140.5625,27.0520759 140.5625,28.53125 C140.5625,29.4895881 140.739582,30.4270787 141.09375,31.34375 L150.40625,57.4375 L156,42.25 L151.65625,28.96875 C151.322915,27.9270781 150.895836,27.1822939 150.375,26.734375 C149.854164,26.2864561 149.197921,26.0312503 148.40625,25.96875 L148.40625,24.6875 C151.281264,24.8125006 154.968727,24.875 159.46875,24.875 C163.906272,24.875 167.218739,24.8125006 169.40625,24.6875 L169.40625,25.96875 C167.843742,26.0104169 166.723962,26.197915 166.046875,26.53125 C165.369788,26.864585 165.03125,27.4895787 165.03125,28.40625 C165.03125,29.1145869 165.249998,30.0937438 165.6875,31.34375 L174.125,57 L179.0625,41.1875 C180.187506,37.4999816 180.75,34.5208447 180.75,32.25 C180.75,30.1041559 180.276046,28.5364633 179.328125,27.546875 C178.380204,26.5572867 177.010426,26.0312503 175.21875,25.96875 L175.21875,24.6875 C178.406266,24.8125006 181.197905,24.875 183.59375,24.875 L183.59375,24.875 Z" fill="#565656"></path>
        <path d="M19.9287109,87.7568359 C21.4580155,88.3837922 22.5712856,89.157222 23.2685547,90.0771484 C23.9658238,90.9970749 24.3144531,91.9785104 24.3144531,93.0214844 C24.3144531,95.3652461 23.3740328,97.114252 21.4931641,98.2685547 C19.6122953,99.4228573 16.949236,100 13.5039062,100 C12.9999975,100 12.1093814,99.9824221 10.8320312,99.9472656 C9.55468111,99.9121092 8.2656315,99.8945312 6.96484375,99.8945312 C4.15232969,99.8945312 2.06055373,99.9296871 0.689453125,100 L0.689453125,99.2792969 C1.46289449,99.2441404 2.02245921,99.1503914 2.36816406,98.9980469 C2.71386892,98.8457024 2.94824157,98.5644552 3.07128906,98.1542969 C3.19433655,97.7441386 3.25585938,97.0878951 3.25585938,96.1855469 L3.25585938,78.3261719 C3.25585938,77.4238236 3.19140689,76.7675802 3.0625,76.3574219 C2.93359311,75.9472636 2.69629079,75.6660164 2.35058594,75.5136719 C2.00488108,75.3613274 1.45117568,75.2675783 0.689453125,75.2324219 L0.689453125,74.5117188 C2.06055373,74.5820316 4.12889242,74.6171875 6.89453125,74.6171875 C7.87891117,74.6171875 8.97460334,74.6054689 10.1816406,74.5820312 C11.3886779,74.5585936 12.2207008,74.546875 12.6777344,74.546875 C14.8105575,74.546875 16.606438,74.7841773 18.0654297,75.2587891 C19.5244214,75.7334008 20.6171839,76.3955036 21.34375,77.2451172 C22.0703161,78.0947308 22.4335938,79.0820256 22.4335938,80.2070312 C22.4335938,81.0976607 22.1259796,81.9882768 21.5107422,82.8789062 C20.8955047,83.7695357 19.9609438,84.5517544 18.7070312,85.2255859 C17.4531187,85.8994174 15.9238371,86.3476551 14.1191406,86.5703125 L14.1191406,86.640625 C16.4629023,86.7578131 18.3994064,87.1298797 19.9287109,87.7568359 L19.9287109,87.7568359 Z M14.2509766,84.8740234 C14.7607447,83.8134713 15.015625,82.3867277 15.015625,80.59375 C15.015625,78.7773347 14.8222676,77.4296919 14.4355469,76.5507812 C14.0488262,75.6718706 13.4043014,75.2324219 12.5019531,75.2324219 C11.9511691,75.2324219 11.5380873,75.317382 11.2626953,75.4873047 C10.9873033,75.6572274 10.7998052,75.9589822 10.7001953,76.3925781 C10.6005854,76.826174 10.5507812,77.4706988 10.5507812,78.3261719 L10.5507812,86.4648438 L11.5351562,86.4648438 C12.835944,86.4648438 13.7412084,85.9345756 14.2509766,84.8740234 L14.2509766,84.8740234 Z M10.7353516,98.1015625 C10.8583991,98.5117208 11.0810531,98.792968 11.4033203,98.9453125 C11.7255875,99.097657 12.2265591,99.1738281 12.90625,99.1738281 C15.4726691,99.1738281 16.7558594,97.0703335 16.7558594,92.8632812 C16.7558594,90.9765531 16.3017624,89.5410205 15.3935547,88.5566406 C14.485347,87.5722607 13.0410255,87.0800781 11.0605469,87.0800781 L10.5507812,87.0800781 L10.5507812,96.1855469 C10.5507812,97.0527387 10.6123041,97.6914042 10.7353516,98.1015625 L10.7353516,98.1015625 Z M48.765625,75.5488281 C50.8046977,76.5800833 52.3867131,78.0771386 53.5117188,80.0400391 C54.6367244,82.0029395 55.1992188,84.3378771 55.1992188,87.0449219 C55.1992188,89.6933726 54.6220761,92.0370992 53.4677734,94.0761719 C52.3134708,96.1152446 50.7050884,97.69726 48.6425781,98.8222656 C46.5800678,99.9472713 44.2304819,100.509766 41.59375,100.509766 C38.8749864,100.509766 36.4961039,99.9941458 34.4570312,98.9628906 C32.4179586,97.9316355 30.8359431,96.4345801 29.7109375,94.4716797 C28.5859319,92.5087792 28.0234375,90.1738417 28.0234375,87.4667969 C28.0234375,84.8183461 28.6005802,82.4746196 29.7548828,80.4355469 C30.9091855,78.3964742 32.5146382,76.8144588 34.5712891,75.6894531 C36.62794,74.5644475 38.9804555,74.0019531 41.6289062,74.0019531 C44.3476698,74.0019531 46.7265523,74.517573 48.765625,75.5488281 L48.765625,75.5488281 Z M38.3769531,76.2607422 C37.4863237,77.3330132 36.797854,78.8271389 36.3115234,80.7431641 C35.8251929,82.6591893 35.5820312,84.8535033 35.5820312,87.3261719 C35.5820312,89.8105593 35.8574191,92.0048733 36.4082031,93.9091797 C36.9589871,95.8134861 37.7031203,97.2812448 38.640625,98.3125 C39.5781297,99.3437552 40.6093694,99.859375 41.734375,99.859375 C42.9179747,99.859375 43.9550737,99.3232475 44.8457031,98.2509766 C45.7363326,97.1787056 46.4248023,95.6845799 46.9111328,93.7685547 C47.3974634,91.8525295 47.640625,89.6582155 47.640625,87.1855469 C47.640625,84.7011595 47.3652371,82.5068455 46.8144531,80.6025391 C46.2636691,78.6982327 45.5195359,77.2304739 44.5820312,76.1992188 C43.6445266,75.1679636 42.6132869,74.6523438 41.4882812,74.6523438 C40.3046816,74.6523438 39.2675826,75.1884712 38.3769531,76.2607422 L38.3769531,76.2607422 Z M81.1621094,98.6904297 C81.5371113,99.0595722 81.9062482,99.2558593 82.2695312,99.2792969 L82.2695312,100 C80.5351476,99.9296871 78.3496226,99.8945312 75.7128906,99.8945312 C72.9706894,99.8945312 70.9550846,99.9296871 69.6660156,100 L69.6660156,99.2792969 C70.5683639,99.2441404 71.2158183,99.1328134 71.6083984,98.9453125 C72.0009785,98.7578116 72.1972656,98.4296898 72.1972656,97.9609375 C72.1972656,97.5976544 72.0507827,97.0293007 71.7578125,96.2558594 L69.6132812,90.3496094 L62.3535156,90.3496094 L61.7382812,91.9667969 C60.9648399,93.982432 60.578125,95.5468694 60.578125,96.6601562 C60.578125,97.6445362 60.8505832,98.3183576 61.3955078,98.6816406 C61.9404324,99.0449237 62.7519477,99.2441404 63.8300781,99.2792969 L63.8300781,100 C62.0371004,99.9296871 60.4668036,99.8945312 59.1191406,99.8945312 C57.9824162,99.8945312 57.0566442,99.9296871 56.3417969,100 L56.3417969,99.2792969 C56.9277373,99.1855464 57.487302,98.8164095 58.0205078,98.171875 C58.5537136,97.5273405 59.0957004,96.4902415 59.6464844,95.0605469 L67.6445312,74.5117188 C68.1601588,74.558594 68.792965,74.5820312 69.5429688,74.5820312 C70.2929725,74.5820312 70.9199194,74.558594 71.4238281,74.5117188 L80.1425781,96.9765625 C80.4472671,97.7500039 80.7871075,98.3212872 81.1621094,98.6904297 L81.1621094,98.6904297 Z M66.0976562,80.6289062 L62.6347656,89.6289062 L69.3671875,89.6289062 L66.0976562,80.6289062 Z M107.441406,100.070312 C106.574214,100.363283 105.566412,100.509766 104.417969,100.509766 C102.765617,100.509766 101.479497,100.21387 100.55957,99.6220703 C99.6396438,99.0302705 99.0742198,98.0253977 98.8632812,96.6074219 L98.3183594,93.0214844 C98.0722644,91.3339759 97.7441427,90.0595746 97.3339844,89.1982422 C96.9238261,88.3369098 96.2968792,87.90625 95.453125,87.90625 L93.8183594,87.90625 L93.8183594,96.1855469 C93.8183594,97.0878951 93.8828119,97.7441386 94.0117188,98.1542969 C94.1406256,98.5644552 94.377928,98.8457024 94.7236328,98.9980469 C95.0693377,99.1503914 95.6230431,99.2441404 96.3847656,99.2792969 L96.3847656,100 C94.9785086,99.9296871 92.9746224,99.8945312 90.3730469,99.8945312 C87.4667823,99.8945312 85.3281319,99.9296871 83.9570312,100 L83.9570312,99.2792969 C84.7304726,99.2441404 85.2900373,99.1503914 85.6357422,98.9980469 C85.981447,98.8457024 86.2158197,98.5644552 86.3388672,98.1542969 C86.4619147,97.7441386 86.5234375,97.0878951 86.5234375,96.1855469 L86.5234375,78.3261719 C86.5234375,77.4238236 86.458985,76.7675802 86.3300781,76.3574219 C86.2011712,75.9472636 85.9638689,75.6660164 85.6181641,75.5136719 C85.2724592,75.3613274 84.7187538,75.2675783 83.9570312,75.2324219 L83.9570312,74.5117188 C85.3281319,74.5820316 87.3964705,74.6171875 90.1621094,74.6171875 C91.1464893,74.6171875 92.2421815,74.6054689 93.4492188,74.5820312 C94.656256,74.5585936 95.488279,74.546875 95.9453125,74.546875 C99.6015808,74.546875 102.323233,75.0595652 104.110352,76.0849609 C105.89747,77.1103567 106.791016,78.6835831 106.791016,80.8046875 C106.791016,82.609384 106.117194,84.1474546 104.769531,85.4189453 C103.421868,86.690436 101.160172,87.4785141 97.984375,87.7832031 C100.433606,87.9238288 102.28808,88.3720665 103.547852,89.1279297 C104.807623,89.8837928 105.578124,90.9999926 105.859375,92.4765625 L106.615234,96.2207031 C106.791017,97.0996138 106.999022,97.7089827 107.239258,98.0488281 C107.479493,98.3886736 107.810545,98.5585938 108.232422,98.5585938 C108.666018,98.5585938 109.035155,98.4003922 109.339844,98.0839844 L109.814453,98.5585938 C109.099606,99.2734411 108.308598,99.7773423 107.441406,100.070312 L107.441406,100.070312 Z M97.5361328,86.4121094 C98.1865267,85.8964818 98.6318347,85.2050825 98.8720703,84.3378906 C99.1123059,83.4706988 99.2324219,82.4277405 99.2324219,81.2089844 C99.2324219,79.2402245 98.9628933,77.7519582 98.4238281,76.7441406 C97.8847629,75.7363231 97.0000062,75.2324219 95.7695312,75.2324219 C95.2187472,75.2324219 94.8056654,75.317382 94.5302734,75.4873047 C94.2548814,75.6572274 94.0673833,75.9589822 93.9677734,76.3925781 C93.8681636,76.826174 93.8183594,77.4706988 93.8183594,78.3261719 L93.8183594,87.1855469 L94.8027344,87.1855469 C95.9746152,87.1855469 96.8857389,86.927737 97.5361328,86.4121094 L97.5361328,86.4121094 Z M116.529297,74.6347656 L117.8125,74.6171875 C121.328143,74.5468746 123.255858,74.5117188 123.595703,74.5117188 C128.576197,74.5117188 132.299792,75.572255 134.766602,77.6933594 C137.233411,79.8144637 138.466797,82.9081828 138.466797,86.9746094 C138.466797,89.5879037 137.863287,91.8759667 136.65625,93.8388672 C135.449213,95.8017676 133.706066,97.3193306 131.426758,98.3916016 C129.14745,99.4638725 126.431656,100 123.279297,100 C122.927733,100 122.08985,99.9824221 120.765625,99.9472656 C119.4414,99.9121092 118.480472,99.8945312 117.882812,99.8945312 C115.070298,99.8945312 112.978522,99.9296871 111.607422,100 L111.607422,99.2792969 C112.380863,99.2441404 112.940428,99.1503914 113.286133,98.9980469 C113.631838,98.8457024 113.86621,98.5644552 113.989258,98.1542969 C114.112305,97.7441386 114.173828,97.0878951 114.173828,96.1855469 L114.173828,78.3261719 C114.173828,77.4238236 114.109376,76.7675802 113.980469,76.3574219 C113.851562,75.9472636 113.61426,75.6660164 113.268555,75.5136719 C112.92285,75.3613274 112.369144,75.2675783 111.607422,75.2324219 L111.607422,74.5117188 C113.353524,74.5937504 114.994133,74.6347656 116.529297,74.6347656 L116.529297,74.6347656 Z M121.679688,98.1982422 C121.820313,98.6259787 122.081053,98.9248038 122.461914,99.0947266 C122.842775,99.2646493 123.414059,99.3496094 124.175781,99.3496094 C126.554699,99.3496094 128.271479,98.324229 129.326172,96.2734375 C130.380865,94.222646 130.908203,91.1699421 130.908203,87.1152344 C130.908203,83.0488078 130.363287,80.0400488 129.273438,78.0888672 C128.183588,76.1376856 126.472668,75.1621094 124.140625,75.1621094 C123.390621,75.1621094 122.828127,75.2470695 122.453125,75.4169922 C122.078123,75.5869149 121.820313,75.8886697 121.679688,76.3222656 C121.539062,76.7558615 121.46875,77.4003863 121.46875,78.2558594 L121.46875,96.2558594 C121.46875,97.1230512 121.539062,97.7705057 121.679688,98.1982422 L121.679688,98.1982422 Z M152.924805,75.5136719 C152.5791,75.6660164 152.344727,75.9472636 152.22168,76.3574219 C152.098632,76.7675802 152.037109,77.4238236 152.037109,78.3261719 L152.037109,96.1855469 C152.037109,97.0878951 152.101562,97.7441386 152.230469,98.1542969 C152.359376,98.5644552 152.596678,98.8457024 152.942383,98.9980469 C153.288088,99.1503914 153.841793,99.2441404 154.603516,99.2792969 L154.603516,100 C153.197259,99.9296871 151.193372,99.8945312 148.591797,99.8945312 C145.685532,99.8945312 143.546882,99.9296871 142.175781,100 L142.175781,99.2792969 C142.949223,99.2441404 143.508787,99.1503914 143.854492,98.9980469 C144.200197,98.8457024 144.43457,98.5644552 144.557617,98.1542969 C144.680665,97.7441386 144.742188,97.0878951 144.742188,96.1855469 L144.742188,78.3261719 C144.742188,77.4238236 144.677735,76.7675802 144.548828,76.3574219 C144.419921,75.9472636 144.182619,75.6660164 143.836914,75.5136719 C143.491209,75.3613274 142.937504,75.2675783 142.175781,75.2324219 L142.175781,74.5117188 C143.546882,74.5820316 145.685532,74.6171875 148.591797,74.6171875 C151.193372,74.6171875 153.197259,74.5820316 154.603516,74.5117188 L154.603516,75.2324219 C153.830074,75.2675783 153.27051,75.3613274 152.924805,75.5136719 L152.924805,75.5136719 Z M181.128906,76.0058594 C180.777342,76.3574236 180.54004,76.8935511 180.416992,77.6142578 C180.293945,78.3349645 180.232422,79.4101491 180.232422,80.8398438 L180.232422,100 C179.880858,99.9648436 179.488283,99.9472656 179.054688,99.9472656 C178.63281,99.9472656 178.181643,99.9648436 177.701172,100 L161.757812,82.5800781 L161.757812,92.9511719 C161.757812,94.720712 161.828124,95.9921836 161.96875,96.765625 C162.109376,97.5390664 162.425779,98.1103497 162.917969,98.4794922 C163.410159,98.8486347 164.236322,99.1152336 165.396484,99.2792969 L165.396484,100 C164.435542,99.9296871 163.087899,99.8945312 161.353516,99.8945312 C160.087884,99.8945312 159.091801,99.9296871 158.365234,100 L158.365234,99.2792969 C159.115238,99.1152336 159.668944,98.8574236 160.026367,98.5058594 C160.383791,98.1542951 160.624023,97.6181677 160.74707,96.8974609 C160.870118,96.1767542 160.931641,95.1015696 160.931641,93.671875 L160.931641,78.3261719 C160.931641,77.4238236 160.867188,76.7675802 160.738281,76.3574219 C160.609374,75.9472636 160.372072,75.6660164 160.026367,75.5136719 C159.680662,75.3613274 159.126957,75.2675783 158.365234,75.2324219 L158.365234,74.5117188 C159.091801,74.5820316 160.087884,74.6171875 161.353516,74.6171875 C162.677741,74.6171875 163.785152,74.5820316 164.675781,74.5117188 L179.388672,90.0683594 L179.388672,81.5605469 C179.388672,79.7910068 179.31836,78.5195351 179.177734,77.7460938 C179.037109,76.9726524 178.723635,76.401369 178.237305,76.0322266 C177.750974,75.6630841 176.92774,75.3964852 175.767578,75.2324219 L175.767578,74.5117188 C176.740239,74.5820316 178.082023,74.6171875 179.792969,74.6171875 C181.070319,74.6171875 182.066403,74.5820316 182.78125,74.5117188 L182.78125,75.2324219 C182.031246,75.3964852 181.480471,75.6542951 181.128906,76.0058594 L181.128906,76.0058594 Z M209.245117,98.59375 C209.051757,98.1601541 208.785158,97.9433594 208.445312,97.9433594 C207.941404,97.9433594 207.126959,98.2187472 206.001953,98.7695312 C203.611316,99.9296933 201.583993,100.509766 199.919922,100.509766 C196.943344,100.509766 194.447276,99.9970754 192.431641,98.9716797 C190.416006,97.9462839 188.904302,96.4609472 187.896484,94.515625 C186.888667,92.5703028 186.384766,90.2207169 186.384766,87.4667969 C186.384766,84.8183461 186.976557,82.4746196 188.160156,80.4355469 C189.343756,78.3964742 190.993153,76.8144588 193.108398,75.6894531 C195.223643,74.5644475 197.634752,74.0019531 200.341797,74.0019531 C201.88868,74.0019531 203.209955,74.2070292 204.305664,74.6171875 C205.401373,75.0273458 206.412105,75.6015588 207.337891,76.3398438 C207.572267,76.5625011 207.812499,76.6738281 208.058594,76.6738281 C208.304689,76.6738281 208.498046,76.5009783 208.638672,76.1552734 C208.779298,75.8095686 208.884765,75.2617225 208.955078,74.5117188 L209.78125,74.5117188 C209.6875,76.210946 209.640625,79.210916 209.640625,83.5117188 L208.814453,83.5117188 C208.697265,82.2578062 208.527345,81.19727 208.304688,80.3300781 C208.08203,79.4628863 207.748049,78.6894565 207.302734,78.0097656 C206.85742,77.3300747 206.25391,76.7265651 205.492188,76.1992188 C204.999998,75.8593733 204.419925,75.5957041 203.751953,75.4082031 C203.083981,75.2207022 202.427738,75.1269531 201.783203,75.1269531 C200.060538,75.1269531 198.666021,75.7333924 197.599609,76.9462891 C196.533198,78.1591858 195.777346,79.6884673 195.332031,81.5341797 C194.886717,83.379892 194.664062,85.3105368 194.664062,87.3261719 C194.664062,91.5097865 195.176753,94.6328022 196.202148,96.6953125 C197.227544,98.7578228 198.642569,99.7890625 200.447266,99.7890625 C201.197269,99.7890625 201.78906,99.6425796 202.222656,99.3496094 C202.726565,98.9980451 202.978516,98.4003948 202.978516,97.5566406 L202.978516,93.953125 C202.978516,92.7460877 202.884767,91.8642606 202.697266,91.3076172 C202.509765,90.7509738 202.169924,90.3671886 201.677734,90.15625 C201.185544,89.9453114 200.406255,89.8164065 199.339844,89.7695312 L199.339844,89.0488281 C200.85157,89.1308598 203.142563,89.171875 206.212891,89.171875 C208.767591,89.171875 210.619135,89.1308598 211.767578,89.0488281 L211.767578,89.7695312 C211.322263,89.8164065 211.002931,89.9130852 210.80957,90.0595703 C210.61621,90.2060554 210.481446,90.4843729 210.405273,90.8945312 C210.329101,91.3046896 210.291016,91.960933 210.291016,92.8632812 L210.291016,100 L209.570312,100 C209.546875,99.4960912 209.438478,99.0273459 209.245117,98.59375 L209.245117,98.59375 Z" id="BOARDING-Copy" fill="#565656"></path>
        <path d="M11.5273438,6.66015625 L11.5273438,7.140625 L7.9765625,7.140625 L7.9765625,16.4335938 C7.9765625,17.1601599 8.10546746,17.681639 8.36328125,17.9980469 C8.62109504,18.3144547 9.00390371,18.4726562 9.51171875,18.4726562 C10.0117213,18.4726562 10.4374982,18.2734395 10.7890625,17.875 C11.1406268,17.4765605 11.4374988,16.8203171 11.6796875,15.90625 L12.1484375,16.0234375 C11.7578105,18.2343861 10.7187584,19.3398438 9.03125,19.3398438 C8.4921848,19.3398438 8.04687676,19.2753913 7.6953125,19.1464844 C7.34374824,19.0175775 7.03125137,18.8164076 6.7578125,18.5429688 C6.41406078,18.1914045 6.1718757,17.7597682 6.03125,17.2480469 C5.8906243,16.7363256 5.8203125,16.0468793 5.8203125,15.1796875 L5.8203125,7.140625 L3.51171875,7.140625 L3.51171875,6.66015625 L5.8203125,6.66015625 L5.8203125,2.9921875 C6.71875449,2.96874988 7.4374973,2.85546977 7.9765625,2.65234375 L7.9765625,6.66015625 L11.5273438,6.66015625 Z M24.3574219,7.92578125 C24.6972673,7.45702891 25.1015602,7.07031402 25.5703125,6.765625 C26.0390648,6.46093598 26.5351536,6.30859375 27.0585938,6.30859375 C27.4804709,6.30859375 27.8574202,6.39257729 28.1894531,6.56054688 C28.521486,6.72851646 28.7812491,6.9570298 28.96875,7.24609375 C29.1562509,7.5351577 29.25,7.85156078 29.25,8.1953125 C29.25,8.61718961 29.1250013,8.97460791 28.875,9.26757812 C28.6249987,9.56054834 28.2929708,9.70703125 27.8789062,9.70703125 C27.527342,9.70703125 27.2265638,9.59570424 26.9765625,9.37304688 C26.7265612,9.15038951 26.6015625,8.84765816 26.6015625,8.46484375 C26.6015625,7.94140363 26.8749973,7.50781422 27.421875,7.1640625 C27.3124995,7.00781172 27.1445324,6.9296875 26.9179688,6.9296875 C26.2851531,6.9296875 25.7148463,7.17187258 25.2070312,7.65625 C24.6992162,8.14062742 24.3007827,8.7382777 24.0117188,9.44921875 C23.7226548,10.1601598 23.578125,10.8242157 23.578125,11.4414062 L23.578125,16.5273438 C23.578125,17.269535 23.7890604,17.7832017 24.2109375,18.0683594 C24.6328146,18.3535171 25.269527,18.4960938 26.1210938,18.4960938 L26.1210938,19 C24.1523339,18.9374997 22.9218775,18.90625 22.4296875,18.90625 C22.0078104,18.90625 21.0625073,18.9374997 19.59375,19 L19.59375,18.4960938 C20.0468773,18.4960938 20.4042956,18.445313 20.6660156,18.34375 C20.9277357,18.242187 21.11914,18.0664075 21.2402344,17.8164062 C21.3613287,17.566405 21.421875,17.2187522 21.421875,16.7734375 L21.421875,9.26171875 C21.421875,8.51952754 21.2871107,7.98047043 21.0175781,7.64453125 C20.7480455,7.30859207 20.2734409,7.140625 19.59375,7.140625 L19.59375,6.63671875 C20.0937525,6.68359398 20.5898413,6.70703125 21.0820312,6.70703125 C22.0976613,6.70703125 22.9296843,6.59765734 23.578125,6.37890625 L23.578125,9.37890625 C23.7578134,8.87890375 24.0175764,8.39453359 24.3574219,7.92578125 L24.3574219,7.92578125 Z M43.6738281,7.29882812 C43.2871074,6.95898268 42.7382848,6.7890625 42.0273438,6.7890625 C40.8945256,6.7890625 40.1015648,7.0742159 39.6484375,7.64453125 C39.9687516,7.72265664 40.2363271,7.89257682 40.4511719,8.15429688 C40.6660167,8.41601693 40.7734375,8.73437312 40.7734375,9.109375 C40.7734375,9.51562703 40.6464856,9.83398322 40.3925781,10.0644531 C40.1386706,10.294923 39.7968771,10.4101562 39.3671875,10.4101562 C38.9609355,10.4101562 38.6425793,10.2734389 38.4121094,10 C38.1816395,9.72656113 38.0664062,9.36718973 38.0664062,8.921875 C38.0664062,8.29687188 38.4414025,7.72656508 39.1914062,7.2109375 C39.5820332,6.95312371 40.0644503,6.73828211 40.6386719,6.56640625 C41.2128935,6.39453039 41.851559,6.30859375 42.5546875,6.30859375 C43.2109408,6.30859375 43.78906,6.38867107 44.2890625,6.54882812 C44.789065,6.70898518 45.1796861,6.92968609 45.4609375,7.2109375 C45.8281268,7.58593938 46.0800774,8.02148189 46.2167969,8.51757812 C46.3535163,9.01367436 46.421875,9.69921438 46.421875,10.5742188 L46.421875,17.2421875 C46.421875,17.640627 46.4785151,17.9296866 46.5917969,18.109375 C46.7050787,18.2890634 46.8945299,18.3789062 47.1601562,18.3789062 C47.3554697,18.3789062 47.5351554,18.3359379 47.6992188,18.25 C47.8632821,18.1640621 48.0429678,18.0390633 48.2382812,17.875 L48.5078125,18.2851562 C48.2265611,18.4960948 47.9921884,18.6601557 47.8046875,18.7773438 C47.6171866,18.8945318 47.402345,18.9882809 47.1601562,19.0585938 C46.9179675,19.1289066 46.6367204,19.1640625 46.3164062,19.1640625 C45.5429649,19.1640625 45.0058609,18.9707051 44.7050781,18.5839844 C44.4042954,18.1972637 44.2539062,17.6796907 44.2539062,17.03125 C43.7851539,17.8046914 43.2226595,18.353514 42.5664062,18.6777344 C41.910153,19.0019547 41.2421909,19.1640625 40.5625,19.1640625 C40.0078097,19.1640625 39.5000023,19.0683603 39.0390625,18.8769531 C38.5781227,18.6855459 38.2089858,18.3886739 37.9316406,17.9863281 C37.6542955,17.5839824 37.515625,17.0820343 37.515625,16.4804688 C37.515625,15.8710907 37.664061,15.3515646 37.9609375,14.921875 C38.257814,14.4921854 38.6757786,14.115236 39.2148438,13.7910156 C39.7539089,13.4667953 40.476558,13.1132832 41.3828125,12.7304688 C41.5390633,12.6679684 41.921872,12.51172 42.53125,12.2617188 C43.140628,12.0117175 43.5800768,11.76172 43.8496094,11.5117188 C44.119142,11.2617175 44.2539062,10.9882827 44.2539062,10.6914062 L44.2539062,9.203125 C44.2539062,8.27343285 44.0605488,7.63867357 43.6738281,7.29882812 L43.6738281,7.29882812 Z M43.6679688,12.1796875 C43.3945299,12.3359383 42.8242231,12.6249979 41.9570312,13.046875 C41.4960914,13.2656261 41.1054704,13.4902332 40.7851562,13.7207031 C40.4648421,13.951173 40.1914074,14.2617168 39.9648438,14.6523438 C39.7382801,15.0429707 39.625,15.5234346 39.625,16.09375 C39.625,16.789066 39.8007795,17.3144513 40.1523438,17.6699219 C40.503908,18.0253924 40.9687471,18.203125 41.546875,18.203125 C42.6093803,18.203125 43.511715,17.5976623 44.2539062,16.3867188 L44.2539062,11.6757812 C44.1367182,11.8554696 43.9414076,12.0234367 43.6679688,12.1796875 L43.6679688,12.1796875 Z M61.8769531,6.99414062 C62.5918004,6.53710709 63.398433,6.30859375 64.296875,6.30859375 C65.4140681,6.30859375 66.2617159,6.60937199 66.8398438,7.2109375 C67.1367202,7.53906414 67.3496087,7.94335697 67.4785156,8.42382812 C67.6074225,8.90429928 67.671875,9.55077719 67.671875,10.3632812 L67.671875,16.7734375 C67.671875,17.2187522 67.7324213,17.566405 67.8535156,17.8164062 C67.97461,18.0664075 68.1660143,18.242187 68.4277344,18.34375 C68.6894544,18.445313 69.0468727,18.4960938 69.5,18.4960938 L69.5,19 C68.0312427,18.9374997 67.0703148,18.90625 66.6171875,18.90625 C66.1718728,18.90625 65.2773505,18.9374997 63.9335938,19 L63.9335938,18.4960938 C64.3320332,18.4960938 64.642577,18.445313 64.8652344,18.34375 C65.0878917,18.242187 65.2519526,18.0664075 65.3574219,17.8164062 C65.4628912,17.566405 65.515625,17.2187522 65.515625,16.7734375 L65.515625,9.8359375 C65.515625,9.25780961 65.4707036,8.77343945 65.3808594,8.3828125 C65.2910152,7.99218555 65.1035171,7.67578246 64.8183594,7.43359375 C64.5332017,7.19140504 64.1171902,7.0703125 63.5703125,7.0703125 C62.9140592,7.0703125 62.3300807,7.26171684 61.8183594,7.64453125 C61.3066381,8.02734566 60.9101577,8.55273104 60.6289062,9.22070312 C60.3476548,9.88867521 60.2070312,10.6289022 60.2070312,11.4414062 L60.2070312,16.7734375 C60.2070312,17.2187522 60.2597651,17.566405 60.3652344,17.8164062 C60.4707037,18.0664075 60.6367176,18.242187 60.8632812,18.34375 C61.0898449,18.445313 61.4023418,18.4960938 61.8007812,18.4960938 L61.8007812,19 C60.4570245,18.9374997 59.558596,18.90625 59.1054688,18.90625 C58.6523415,18.90625 57.6914136,18.9374997 56.2226562,19 L56.2226562,18.4960938 C56.6757835,18.4960938 57.0332018,18.445313 57.2949219,18.34375 C57.5566419,18.242187 57.7480463,18.0664075 57.8691406,17.8164062 C57.990235,17.566405 58.0507812,17.2187522 58.0507812,16.7734375 L58.0507812,9.26171875 C58.0507812,8.51952754 57.916017,7.98047043 57.6464844,7.64453125 C57.3769518,7.30859207 56.9023471,7.140625 56.2226562,7.140625 L56.2226562,6.63671875 C56.7226588,6.68359398 57.2187475,6.70703125 57.7109375,6.70703125 C58.7265676,6.70703125 59.5585905,6.59765734 60.2070312,6.37890625 L60.2070312,9.203125 C60.6054707,8.18749492 61.1621058,7.45117416 61.8769531,6.99414062 L61.8769531,6.99414062 Z M79.3359375,16.8203125 C79.5546886,17.4609407 79.8906227,17.9609357 80.34375,18.3203125 C80.7968773,18.6796893 81.4062462,18.859375 82.171875,18.859375 C82.5234393,18.859375 82.8613265,18.7832039 83.1855469,18.6308594 C83.5097672,18.4785149 83.7773427,18.2324236 83.9882812,17.8925781 C84.1992198,17.5527327 84.3046875,17.1132839 84.3046875,16.5742188 C84.3046875,16.1367166 84.1933605,15.7441424 83.9707031,15.3964844 C83.7480458,15.0488264 83.457033,14.7363295 83.0976562,14.4589844 C82.7382795,14.1816392 82.2343782,13.8398458 81.5859375,13.4335938 C80.7968711,12.9335912 80.1933615,12.5234391 79.7753906,12.203125 C79.3574198,11.8828109 79.0039077,11.4921898 78.7148438,11.03125 C78.4257798,10.5703102 78.28125,10.0273469 78.28125,9.40234375 C78.28125,8.72265285 78.4414046,8.15039295 78.7617188,7.68554688 C79.0820329,7.2207008 79.5097629,6.87500113 80.0449219,6.6484375 C80.5800808,6.42187387 81.175778,6.30859375 81.8320312,6.30859375 C82.3945341,6.30859375 82.9003884,6.3984366 83.3496094,6.578125 C83.7988304,6.7578134 84.1640611,6.96093637 84.4453125,7.1875 C84.6171884,7.32031316 84.757812,7.38671875 84.8671875,7.38671875 C85.1484389,7.38671875 85.3281246,7.03515977 85.40625,6.33203125 L85.9570312,6.33203125 C85.8945309,7.11328516 85.8632812,8.47264656 85.8632812,10.4101562 L85.3125,10.4101562 C85.1406241,9.35546348 84.8007838,8.48437844 84.2929688,7.796875 C83.7851537,7.10937156 83.0351612,6.765625 82.0429688,6.765625 C81.4648409,6.765625 80.9921893,6.92773275 80.625,7.25195312 C80.2578107,7.5761735 80.0742188,8.02734086 80.0742188,8.60546875 C80.0742188,9.16015902 80.26367,9.62304502 80.6425781,9.99414062 C81.0214863,10.3652362 81.4785129,10.7187483 82.0136719,11.0546875 C82.5488308,11.3906267 82.9296864,11.6328118 83.15625,11.78125 C83.8906287,12.2578149 84.4824196,12.6816388 84.9316406,13.0527344 C85.3808616,13.42383 85.7441392,13.849607 86.0214844,14.3300781 C86.2988295,14.8105493 86.4375,15.3593719 86.4375,15.9765625 C86.4375,16.6875036 86.251955,17.2949194 85.8808594,17.7988281 C85.5097638,18.3027369 85.0117219,18.6855456 84.3867188,18.9472656 C83.7617156,19.2089857 83.0781287,19.3398438 82.3359375,19.3398438 C81.6249964,19.3398438 80.9921903,19.2265636 80.4375,19 C80.1249984,18.8437492 79.7968767,18.6289076 79.453125,18.3554688 C79.3906247,18.2929684 79.3164067,18.2617188 79.2304688,18.2617188 C78.9960926,18.2617188 78.8320317,18.562497 78.7382812,19.1640625 L78.1875,19.1640625 C78.2500003,18.2499954 78.28125,16.6523552 78.28125,14.3710938 L78.8320312,14.3710938 C78.9492193,15.3632862 79.1171864,16.1796843 79.3359375,16.8203125 L79.3359375,16.8203125 Z M111.15625,6.70703125 C111.867191,6.70703125 112.47656,6.68359398 112.984375,6.63671875 L112.984375,7.1171875 C112.648436,7.1562502 112.351564,7.30078 112.09375,7.55078125 C111.835936,7.8007825 111.613282,8.21874707 111.425781,8.8046875 L107.945312,19.1171875 L107.535156,19.1171875 L103.726562,9.4609375 L100.304688,19.1171875 L99.90625,19.1171875 L95.96875,8.48828125 C95.7499989,7.92577844 95.5234387,7.56054771 95.2890625,7.39257812 C95.0546863,7.22460854 94.8164075,7.140625 94.5742188,7.140625 L94.5742188,6.63671875 C95.2460971,6.73828176 95.9492151,6.7890625 96.6835938,6.7890625 C97.3945348,6.7890625 98.4335869,6.73828176 99.8007812,6.63671875 L99.8007812,7.140625 C99.2773411,7.140625 98.8886731,7.17187469 98.6347656,7.234375 C98.3808581,7.29687531 98.2167972,7.4726548 98.1425781,7.76171875 C98.068359,8.0507827 98.1445301,8.5156218 98.3710938,9.15625 L100.773438,16.0585938 L104.21875,6.54296875 L104.769531,6.54296875 L108.449219,16.2578125 L110.699219,9.37890625 C110.847657,8.91015391 110.921875,8.54687629 110.921875,8.2890625 C110.921875,7.90624809 110.783205,7.6250009 110.505859,7.4453125 C110.228514,7.2656241 109.773441,7.1562502 109.140625,7.1171875 L109.140625,6.63671875 C109.984379,6.68359398 110.656248,6.70703125 111.15625,6.70703125 L111.15625,6.70703125 Z M129.212891,7 C130.029301,7.4609398 130.673826,8.17772951 131.146484,9.15039062 C131.619143,10.1230517 131.855469,11.3515551 131.855469,12.8359375 C131.855469,14.3203199 131.619143,15.5468702 131.146484,16.515625 C130.673826,17.4843798 130.029301,18.1972633 129.212891,18.6542969 C128.39648,19.1113304 127.460943,19.3398438 126.40625,19.3398438 C125.351557,19.3398438 124.41602,19.1113304 123.599609,18.6542969 C122.783199,18.1972633 122.138674,17.4843798 121.666016,16.515625 C121.193357,15.5468702 120.957031,14.3203199 120.957031,12.8359375 C120.957031,11.3515551 121.193357,10.1230517 121.666016,9.15039062 C122.138674,8.17772951 122.783199,7.4609398 123.599609,7 C124.41602,6.5390602 125.351557,6.30859375 126.40625,6.30859375 C127.460943,6.30859375 128.39648,6.5390602 129.212891,7 L129.212891,7 Z M124.126953,8.265625 C123.568357,9.25000492 123.289062,10.7734272 123.289062,12.8359375 C123.289062,14.8906353 123.568357,16.4081982 124.126953,17.3886719 C124.68555,18.3691455 125.445308,18.859375 126.40625,18.859375 C127.367192,18.859375 128.12695,18.3691455 128.685547,17.3886719 C129.244143,16.4081982 129.523438,14.8906353 129.523438,12.8359375 C129.523438,10.7734272 129.244143,9.25000492 128.685547,8.265625 C128.12695,7.28124508 127.367192,6.7890625 126.40625,6.7890625 C125.445308,6.7890625 124.68555,7.28124508 124.126953,8.265625 L124.126953,8.265625 Z M145.435547,7.92578125 C145.775392,7.45702891 146.179685,7.07031402 146.648438,6.765625 C147.11719,6.46093598 147.613279,6.30859375 148.136719,6.30859375 C148.558596,6.30859375 148.935545,6.39257729 149.267578,6.56054688 C149.599611,6.72851646 149.859374,6.9570298 150.046875,7.24609375 C150.234376,7.5351577 150.328125,7.85156078 150.328125,8.1953125 C150.328125,8.61718961 150.203126,8.97460791 149.953125,9.26757812 C149.703124,9.56054834 149.371096,9.70703125 148.957031,9.70703125 C148.605467,9.70703125 148.304689,9.59570424 148.054688,9.37304688 C147.804686,9.15038951 147.679688,8.84765816 147.679688,8.46484375 C147.679688,7.94140363 147.953122,7.50781422 148.5,7.1640625 C148.390624,7.00781172 148.222657,6.9296875 147.996094,6.9296875 C147.363278,6.9296875 146.792971,7.17187258 146.285156,7.65625 C145.777341,8.14062742 145.378908,8.7382777 145.089844,9.44921875 C144.80078,10.1601598 144.65625,10.8242157 144.65625,11.4414062 L144.65625,16.5273438 C144.65625,17.269535 144.867185,17.7832017 145.289062,18.0683594 C145.71094,18.3535171 146.347652,18.4960938 147.199219,18.4960938 L147.199219,19 C145.230459,18.9374997 144.000002,18.90625 143.507812,18.90625 C143.085935,18.90625 142.140632,18.9374997 140.671875,19 L140.671875,18.4960938 C141.125002,18.4960938 141.482421,18.445313 141.744141,18.34375 C142.005861,18.242187 142.197265,18.0664075 142.318359,17.8164062 C142.439454,17.566405 142.5,17.2187522 142.5,16.7734375 L142.5,9.26171875 C142.5,8.51952754 142.365236,7.98047043 142.095703,7.64453125 C141.826171,7.30859207 141.351566,7.140625 140.671875,7.140625 L140.671875,6.63671875 C141.171877,6.68359398 141.667966,6.70703125 142.160156,6.70703125 C143.175786,6.70703125 144.007809,6.59765734 144.65625,6.37890625 L144.65625,9.37890625 C144.835938,8.87890375 145.095701,8.39453359 145.435547,7.92578125 L145.435547,7.92578125 Z M161.869141,17.8164062 C161.990235,18.0664075 162.181639,18.242187 162.443359,18.34375 C162.705079,18.445313 163.062498,18.4960938 163.515625,18.4960938 L163.515625,19 C162.046868,18.9374997 161.078127,18.90625 160.609375,18.90625 C160.140623,18.90625 159.171882,18.9374997 157.703125,19 L157.703125,18.4960938 C158.156252,18.4960938 158.513671,18.445313 158.775391,18.34375 C159.037111,18.242187 159.228515,18.0664075 159.349609,17.8164062 C159.470704,17.566405 159.53125,17.2187522 159.53125,16.7734375 L159.53125,3.0625 C159.53125,2.32030879 159.396486,1.78320479 159.126953,1.45117188 C158.857421,1.11913896 158.382816,0.953125 157.703125,0.953125 L157.703125,0.44921875 C158.203127,0.496093984 158.699216,0.51953125 159.191406,0.51953125 C160.222661,0.51953125 161.054684,0.406251133 161.6875,0.1796875 L161.6875,16.7734375 C161.6875,17.2187522 161.748046,17.566405 161.869141,17.8164062 L161.869141,17.8164062 Z M183.072266,17.9980469 C183.341798,18.3300798 183.816403,18.4960938 184.496094,18.4960938 L184.496094,19 C183.988279,18.9531248 183.49219,18.9296875 183.007813,18.9296875 C181.976557,18.9296875 181.144534,19.0429676 180.511719,19.2695312 L180.511719,17.1367188 C180.214842,17.8554723 179.7793,18.4023419 179.205078,18.7773438 C178.630857,19.1523456 177.929692,19.3398438 177.101563,19.3398438 C176.085932,19.3398438 175.210941,19.0976587 174.476563,18.6132812 C173.742184,18.1289038 173.177736,17.4023486 172.783203,16.4335938 C172.38867,15.4648389 172.195312,14.2656321 172.203125,12.8359375 C172.195312,11.437493 172.437498,10.2460987 172.929688,9.26171875 C173.421877,8.27733883 174.080074,7.53906496 174.904297,7.046875 C175.72852,6.55468504 176.636714,6.30859375 177.628906,6.30859375 C178.238284,6.30859375 178.798826,6.42382697 179.310547,6.65429688 C179.822268,6.88476678 180.222655,7.24218508 180.511719,7.7265625 L180.511719,3.0625 C180.511719,2.32030879 180.376954,1.78320479 180.107422,1.45117188 C179.837889,1.11913896 179.363285,0.953125 178.683594,0.953125 L178.683594,0.44921875 C179.191409,0.496093984 179.687498,0.51953125 180.171875,0.51953125 C181.20313,0.51953125 182.035153,0.406251133 182.667969,0.1796875 L182.667969,16.3867188 C182.667969,17.12891 182.802733,17.666014 183.072266,17.9980469 L183.072266,17.9980469 Z M177.828125,6.859375 C177.179684,6.859375 176.607424,7.08007592 176.111328,7.52148438 C175.615232,7.96289283 175.226564,8.6308549 174.945313,9.52539062 C174.664061,10.4199263 174.527344,11.5234309 174.535156,12.8359375 C174.527344,14.7578221 174.798825,16.2011671 175.349609,17.1660156 C175.900393,18.1308642 176.714838,18.6132812 177.792969,18.6132812 C178.207033,18.6132812 178.597654,18.5078136 178.964844,18.296875 C179.332033,18.0859364 179.652342,17.7714865 179.925781,17.3535156 C180.19922,16.9355448 180.394531,16.4335967 180.511719,15.8476562 L180.511719,8.7109375 C180.066404,7.47655633 179.171882,6.859375 177.828125,6.859375 L177.828125,6.859375 Z" id="transworld-copy" fill="#C5B358"></path>
    </g>
</svg>
