
<svg width="384px" height="187px" viewBox="977 720 384 187" version="1.1" xmlns="http://www.w3.org/2000/svg" xmlns:xlink="http://www.w3.org/1999/xlink">
    <!-- Generator: Sketch 39.1 (31720) - http://www.bohemiancoding.com/sketch -->
    <desc>Created with Sketch.</desc>
    <defs></defs>
    <g id="original-2--outline" stroke="none" stroke-width="1" fill="none" fill-rule="evenodd" transform="translate(977.000000, 720.000000)">
        <path d="M10,117.160156 C13.4375172,123.097686 18.730433,126.066406 25.8789062,126.066406 C30.3320535,126.066406 33.8476434,125.03126 36.4257812,122.960938 C39.0039191,120.890615 40.2929688,118.01955 40.2929688,114.347656 C40.2929688,111.183578 39.5800853,108.341809 38.1542969,105.822266 C36.7285085,103.302722 34.8046996,100.998057 32.3828125,98.9082031 C29.9609254,96.8183489 26.7578324,94.4453258 22.7734375,91.7890625 C17.9296633,88.5468588 14.091811,85.7343869 11.2597656,83.3515625 C8.42772021,80.9687381 6.08399365,78.1855628 4.22851562,75.0019531 C2.3730376,71.8183435 1.4453125,68.1562707 1.4453125,64.015625 C1.4453125,59.0156 2.8027208,54.8066577 5.51757812,51.3886719 C8.23243545,47.970686 11.835915,45.4414145 16.328125,43.8007812 C20.820335,42.160148 25.7616918,41.3398438 31.1523438,41.3398438 C35.7617418,41.3398438 39.4921732,41.769527 42.34375,42.6289062 C45.1953268,43.4882855 47.9492055,44.6601488 50.6054688,46.1445312 C51.7382869,46.7695344 52.5781223,47.2089831 53.125,47.4628906 C53.6718777,47.7167981 54.1992162,47.84375 54.7070312,47.84375 C55.4492225,47.84375 56.015623,47.4238323 56.40625,46.5839844 C56.796877,45.7441364 57.1093738,44.4062592 57.34375,42.5703125 L60.0976562,42.5703125 C59.7070293,48.3125287 59.5117188,58.0780561 59.5117188,71.8671875 L56.7578125,71.8671875 C56.4453109,67.2968521 55.4003995,62.9218959 53.6230469,58.7421875 C51.8456942,54.5624791 49.433609,51.1640756 46.3867188,48.546875 C43.3398285,45.9296744 39.8242387,44.6210938 35.8398438,44.6210938 C32.2070131,44.6210938 29.2578238,45.5976465 26.9921875,47.5507812 C24.7265512,49.503916 23.59375,52.2382637 23.59375,55.7539062 C23.59375,58.6445457 24.2675714,61.1249896 25.6152344,63.1953125 C26.9628974,65.2656354 28.8183476,67.2187408 31.1816406,69.0546875 C33.5449337,70.8906342 38.0663729,74.1327893 44.7460938,78.78125 C49.1601783,81.8672029 52.6757682,84.572254 55.2929688,86.8964844 C57.9101693,89.2207147 60.0488198,91.9452969 61.7089844,95.0703125 C63.3691489,98.1953281 64.1992188,101.808573 64.1992188,105.910156 C64.1992188,111.105495 62.7343896,115.490217 59.8046875,119.064453 C56.8749854,122.63869 52.9492434,125.304679 48.0273438,127.0625 C43.1054441,128.820321 37.6172178,129.699219 31.5625,129.699219 C26.6406004,129.699219 22.5683755,129.298832 19.3457031,128.498047 C16.1230308,127.697262 13.1054828,126.613288 10.2929688,125.246094 C8.49608477,124.113276 7.14844199,123.546875 6.25,123.546875 C5.50780879,123.546875 4.9414082,123.957027 4.55078125,124.777344 C4.1601543,125.59766 3.82812637,126.945303 3.5546875,128.820312 L0.80078125,128.820312 C1.15234551,122.726532 1.328125,111.125086 1.328125,94.015625 L4.08203125,94.015625 C4.58984629,103.50786 6.56248281,111.222627 10,117.160156 L10,117.160156 Z M137.929688,48.0195312 C136.757807,49.1914121 135.966799,50.9785036 135.556641,53.3808594 C135.146482,55.7832151 134.941406,59.3671637 134.941406,64.1328125 L134.941406,128 C133.769525,127.882812 132.460945,127.824219 131.015625,127.824219 C129.609368,127.824219 128.105477,127.882812 126.503906,128 L73.359375,69.9335938 L73.359375,104.503906 C73.359375,110.402373 73.5937477,114.640612 74.0625,117.21875 C74.5312523,119.796888 75.5859293,121.701166 77.2265625,122.931641 C78.8671957,124.162116 81.6210744,125.050779 85.4882812,125.597656 L85.4882812,128 C82.2851402,127.765624 77.7929977,127.648438 72.0117188,127.648438 C67.7929477,127.648438 64.4726684,127.765624 62.0507812,128 L62.0507812,125.597656 C64.5507937,125.050779 66.3964784,124.191412 67.5878906,123.019531 C68.7793028,121.84765 69.5800761,120.060559 69.9902344,117.658203 C70.4003927,115.255847 70.6054688,111.671899 70.6054688,106.90625 L70.6054688,55.7539062 C70.6054688,52.7460787 70.3906271,50.5586006 69.9609375,49.1914062 C69.5312479,47.8242119 68.7402401,46.8867213 67.5878906,46.3789062 C66.4355411,45.8710912 64.5898564,45.5585943 62.0507812,45.4414062 L62.0507812,43.0390625 C64.4726684,43.2734387 67.7929477,43.390625 72.0117188,43.390625 C76.4258033,43.390625 80.1171727,43.2734387 83.0859375,43.0390625 L132.128906,94.8945312 L132.128906,66.5351562 C132.128906,60.6366893 131.894534,56.3984504 131.425781,53.8203125 C130.957029,51.2421746 129.912117,49.3378968 128.291016,48.1074219 C126.669914,46.876947 123.925801,45.988284 120.058594,45.4414062 L120.058594,43.0390625 C123.300797,43.2734387 127.773409,43.390625 133.476562,43.390625 C137.734396,43.390625 141.054676,43.2734387 143.4375,43.0390625 L143.4375,45.4414062 C140.937488,45.988284 139.101568,46.8476504 137.929688,48.0195312 L137.929688,48.0195312 Z M208.964844,46.4960938 C215.761753,49.9336109 221.035137,54.9237954 224.785156,61.4667969 C228.535175,68.0097983 230.410156,75.7929236 230.410156,84.8164062 C230.410156,93.6445754 228.486347,101.456997 224.638672,108.253906 C220.790996,115.050815 215.429722,120.3242 208.554688,124.074219 C201.679653,127.824238 193.8477,129.699219 185.058594,129.699219 C175.996048,129.699219 168.06644,127.980486 161.269531,124.542969 C154.472622,121.105452 149.199238,116.115267 145.449219,109.572266 C141.6992,103.029264 139.824219,95.2461389 139.824219,86.2226562 C139.824219,77.3944871 141.748028,69.5820652 145.595703,62.7851562 C149.443379,55.9882473 154.794888,50.7148625 161.650391,46.9648438 C168.505894,43.214825 176.347612,41.3398438 185.175781,41.3398438 C194.238327,41.3398438 202.167935,43.0585766 208.964844,46.4960938 L208.964844,46.4960938 Z M174.335938,48.8691406 C171.367173,52.4433772 169.072274,57.4237962 167.451172,63.8105469 C165.83007,70.1972976 165.019531,77.5116775 165.019531,85.7539062 C165.019531,94.0351977 165.937491,101.349578 167.773438,107.697266 C169.609384,114.044954 172.089828,118.937483 175.214844,122.375 C178.339859,125.812517 181.777325,127.53125 185.527344,127.53125 C189.472676,127.53125 192.929673,125.744158 195.898438,122.169922 C198.867202,118.595685 201.162101,113.615266 202.783203,107.228516 C204.404305,100.841765 205.214844,93.527385 205.214844,85.2851562 C205.214844,77.0038648 204.296884,69.6894849 202.460938,63.3417969 C200.624991,56.9941089 198.144547,52.1015797 195.019531,48.6640625 C191.894516,45.2265453 188.45705,43.5078125 184.707031,43.5078125 C180.761699,43.5078125 177.304702,45.294904 174.335938,48.8691406 L174.335938,48.8691406 Z M337.714844,43.390625 C341.503925,43.390625 344.589832,43.2734387 346.972656,43.0390625 L346.972656,45.4414062 C342.24607,47.7461053 338.515639,53.351518 335.78125,62.2578125 L315.625,128 C313.124987,127.843749 311.015634,127.765625 309.296875,127.765625 C307.695304,127.765625 305.605482,127.843749 303.027344,128 L287.441406,80.3632812 L270.507812,128 C268.0078,127.843749 265.898446,127.765625 264.179688,127.765625 C262.578117,127.765625 260.488294,127.843749 257.910156,128 L230.078125,53.1171875 C229.14062,50.5781123 228.02735,48.6836 226.738281,47.4335938 C225.449212,46.1835875 224.199225,45.5195316 222.988281,45.4414062 L222.988281,43.0390625 C228.808623,43.2734387 235.898396,43.390625 244.257812,43.390625 C251.562537,43.390625 256.874983,43.2734387 260.195312,43.0390625 L260.195312,45.4414062 C258.085927,45.8710959 257.03125,47.4726424 257.03125,50.2460938 C257.03125,52.0429777 257.363278,53.8007727 258.027344,55.5195312 L275.488281,104.445312 L285.976562,75.96875 L277.832031,51.0664062 C277.207028,49.1132715 276.406255,47.7168011 275.429688,46.8769531 C274.45312,46.0371052 273.222664,45.5585943 271.738281,45.4414062 L271.738281,43.0390625 C277.128933,43.2734387 284.042927,43.390625 292.480469,43.390625 C300.800823,43.390625 307.011698,43.2734387 311.113281,43.0390625 L311.113281,45.4414062 C308.183579,45.5195316 306.083991,45.8710906 304.814453,46.4960938 C303.544916,47.1210969 302.910156,48.2929602 302.910156,50.0117188 C302.910156,51.3398504 303.320308,53.1757695 304.140625,55.5195312 L319.960938,103.625 L329.21875,73.9765625 C331.328136,67.0624654 332.382812,61.4765838 332.382812,57.21875 C332.382812,53.1952924 331.49415,50.2558687 329.716797,48.4003906 C327.939444,46.5449126 325.371111,45.5585943 322.011719,45.4414062 L322.011719,43.0390625 C327.988311,43.2734387 333.222634,43.390625 337.714844,43.390625 L337.714844,43.390625 Z" id="SNOW" fill="#616161"></path>
        <path d="M37.2001953,162.874023 C40.0888816,164.058274 42.1917252,165.519197 43.5087891,167.256836 C44.8258529,168.994475 45.484375,170.848297 45.484375,172.818359 C45.484375,177.245465 43.7080256,180.549143 40.1552734,182.729492 C36.6025213,184.909842 31.5722982,186 25.0644531,186 C24.1126254,186 22.4303506,185.966797 20.0175781,185.900391 C17.6048056,185.833984 15.1699342,185.800781 12.7128906,185.800781 C7.40036406,185.800781 3.4492317,185.867187 0.859375,186 L0.859375,184.638672 C2.3203198,184.572265 3.37727538,184.395184 4.03027344,184.107422 C4.68327149,183.81966 5.1259754,183.288415 5.35839844,182.513672 C5.59082147,181.738928 5.70703125,180.499357 5.70703125,178.794922 L5.70703125,145.060547 C5.70703125,143.356111 5.58528768,142.11654 5.34179688,141.341797 C5.09830607,140.567053 4.65006837,140.035809 3.99707031,139.748047 C3.34407226,139.460285 2.29818428,139.283203 0.859375,139.216797 L0.859375,137.855469 C3.4492317,137.988282 7.35609367,138.054688 12.5800781,138.054688 C14.4394624,138.054688 16.5091032,138.032552 18.7890625,137.988281 C21.0690218,137.94401 22.6406207,137.921875 23.5039062,137.921875 C27.5325722,137.921875 30.9247909,138.370113 33.6806641,139.266602 C36.4365372,140.16309 38.5006442,141.413729 39.8730469,143.018555 C41.2454496,144.62338 41.9316406,146.488271 41.9316406,148.613281 C41.9316406,150.295581 41.3505917,151.977856 40.1884766,153.660156 C39.0263614,155.342456 37.2610796,156.819981 34.8925781,158.092773 C32.5240767,159.365566 29.6354337,160.212237 26.2265625,160.632812 L26.2265625,160.765625 C30.653668,160.98698 34.311509,161.689773 37.2001953,162.874023 L37.2001953,162.874023 Z M26.4755859,157.428711 C27.4384814,155.425446 27.9199219,152.730486 27.9199219,149.34375 C27.9199219,145.912743 27.5546912,143.367196 26.8242188,141.707031 C26.0937463,140.046867 24.8763106,139.216797 23.171875,139.216797 C22.1315052,139.216797 21.3512396,139.377277 20.8310547,139.698242 C20.3108698,140.019207 19.9567067,140.589189 19.7685547,141.408203 C19.5804027,142.227218 19.4863281,143.444653 19.4863281,145.060547 L19.4863281,160.433594 L21.3457031,160.433594 C23.8027467,160.433594 25.5126905,159.431976 26.4755859,157.428711 L26.4755859,157.428711 Z M19.8349609,182.414062 C20.067384,183.188806 20.4879527,183.720051 21.0966797,184.007812 C21.7054067,184.295574 22.6516863,184.439453 23.9355469,184.439453 C28.7832274,184.439453 31.2070312,180.466186 31.2070312,172.519531 C31.2070312,168.955711 30.3492924,166.24415 28.6337891,164.384766 C26.9182857,162.525381 24.1901229,161.595703 20.4492188,161.595703 L19.4863281,161.595703 L19.4863281,178.794922 C19.4863281,180.432951 19.6025379,181.639319 19.8349609,182.414062 L19.8349609,182.414062 Z M89.4824219,139.814453 C93.3340036,141.76238 96.322255,144.590151 98.4472656,148.297852 C100.572276,152.005552 101.634766,156.41599 101.634766,161.529297 C101.634766,166.531926 100.544607,170.958965 98.3642578,174.810547 C96.1839084,178.662129 93.1458528,181.65038 89.25,183.775391 C85.3541472,185.900401 80.9160405,186.962891 75.9355469,186.962891 C70.8001045,186.962891 66.3066599,185.988942 62.4550781,184.041016 C58.6034964,182.093089 55.615245,179.265318 53.4902344,175.557617 C51.3652237,171.849916 50.3027344,167.439479 50.3027344,162.326172 C50.3027344,157.323543 51.3928927,152.896504 53.5732422,149.044922 C55.7535916,145.19334 58.7861134,142.205089 62.6708984,140.080078 C66.5556835,137.955067 70.9993239,136.892578 76.0019531,136.892578 C81.1373955,136.892578 85.6308401,137.866527 89.4824219,139.814453 L89.4824219,139.814453 Z M69.859375,141.15918 C68.1770749,143.18458 66.8766322,146.006818 65.9580078,149.625977 C65.0393834,153.245135 64.5800781,157.389951 64.5800781,162.060547 C64.5800781,166.753279 65.1002552,170.898094 66.140625,174.495117 C67.1809948,178.09214 68.5865797,180.864574 70.3574219,182.8125 C72.1282641,184.760426 74.0761612,185.734375 76.2011719,185.734375 C78.4368601,185.734375 80.3958249,184.72169 82.078125,182.696289 C83.7604251,180.670888 85.0608678,177.848651 85.9794922,174.229492 C86.8981166,170.610333 87.3574219,166.465518 87.3574219,161.794922 C87.3574219,157.10219 86.8372448,152.957375 85.796875,149.360352 C84.7565052,145.763328 83.3509203,142.990895 81.5800781,141.042969 C79.8092359,139.095042 77.8613388,138.121094 75.7363281,138.121094 C73.5006399,138.121094 71.5416751,139.133779 69.859375,141.15918 L69.859375,141.15918 Z M146.488281,183.526367 C147.196618,184.223636 147.893877,184.594401 148.580078,184.638672 L148.580078,186 C145.30402,185.867187 141.175806,185.800781 136.195312,185.800781 C131.015599,185.800781 127.208346,185.867187 124.773438,186 L124.773438,184.638672 C126.477873,184.572265 127.700843,184.361981 128.442383,184.007812 C129.183923,183.653644 129.554688,183.033859 129.554688,182.148438 C129.554688,181.462236 129.277998,180.388679 128.724609,178.927734 L124.673828,167.771484 L110.960938,167.771484 L109.798828,170.826172 C108.337883,174.633483 107.607422,177.588531 107.607422,179.691406 C107.607422,181.550791 108.122065,182.823564 109.151367,183.509766 C110.180669,184.195967 111.713531,184.572265 113.75,184.638672 L113.75,186 C110.363264,185.867187 107.397148,185.800781 104.851562,185.800781 C102.704416,185.800781 100.955736,185.867187 99.6054688,186 L99.6054688,184.638672 C100.712245,184.461588 101.769201,183.764329 102.776367,182.546875 C103.783534,181.329421 104.807286,179.370456 105.847656,176.669922 L120.955078,137.855469 C121.929041,137.944011 123.124342,137.988281 124.541016,137.988281 C125.957689,137.988281 127.141922,137.944011 128.09375,137.855469 L144.5625,180.289062 C145.138024,181.750007 145.779944,182.829098 146.488281,183.526367 L146.488281,183.526367 Z M118.033203,149.410156 L111.492188,166.410156 L124.208984,166.410156 L118.033203,149.410156 Z M195.939453,186.132812 C194.301424,186.686201 192.397797,186.962891 190.228516,186.962891 C187.107406,186.962891 184.678069,186.403977 182.94043,185.286133 C181.202791,184.168289 180.134768,182.270196 179.736328,179.591797 L178.707031,172.818359 C178.242185,169.630843 177.6224,167.223641 176.847656,165.59668 C176.072913,163.969718 174.88868,163.15625 173.294922,163.15625 L170.207031,163.15625 L170.207031,178.794922 C170.207031,180.499357 170.328775,181.738928 170.572266,182.513672 C170.815756,183.288415 171.263994,183.81966 171.916992,184.107422 C172.56999,184.395184 173.615878,184.572265 175.054688,184.638672 L175.054688,186 C172.398424,185.867187 168.613306,185.800781 163.699219,185.800781 C158.209608,185.800781 154.169935,185.867187 151.580078,186 L151.580078,184.638672 C153.041023,184.572265 154.097979,184.395184 154.750977,184.107422 C155.403975,183.81966 155.846679,183.288415 156.079102,182.513672 C156.311525,181.738928 156.427734,180.499357 156.427734,178.794922 L156.427734,145.060547 C156.427734,143.356111 156.305991,142.11654 156.0625,141.341797 C155.819009,140.567053 155.370771,140.035809 154.717773,139.748047 C154.064775,139.460285 153.018887,139.283203 151.580078,139.216797 L151.580078,137.855469 C154.169935,137.988282 158.076797,138.054688 163.300781,138.054688 C165.160166,138.054688 167.229806,138.032552 169.509766,137.988281 C171.789725,137.94401 173.361324,137.921875 174.224609,137.921875 C181.130894,137.921875 186.271793,138.89029 189.647461,140.827148 C193.023129,142.764007 194.710938,145.735657 194.710938,149.742188 C194.710938,153.151059 193.438164,156.056303 190.892578,158.458008 C188.346992,160.859713 184.0749,162.348304 178.076172,162.923828 C182.702497,163.189454 186.205392,164.036126 188.584961,165.463867 C190.96453,166.891609 192.419919,168.999986 192.951172,171.789062 L194.378906,178.861328 C194.710939,180.521493 195.103839,181.672523 195.557617,182.314453 C196.011395,182.956383 196.636715,183.277344 197.433594,183.277344 C198.252608,183.277344 198.949867,182.978519 199.525391,182.380859 L200.421875,183.277344 C199.071608,184.627611 197.577482,185.579424 195.939453,186.132812 L195.939453,186.132812 Z M177.229492,160.333984 C178.458014,159.360021 179.299151,158.054045 179.75293,156.416016 C180.206708,154.777987 180.433594,152.807954 180.433594,150.505859 C180.433594,146.787091 179.924484,143.975921 178.90625,142.072266 C177.888016,140.16861 176.216808,139.216797 173.892578,139.216797 C172.852208,139.216797 172.071943,139.377277 171.551758,139.698242 C171.031573,140.019207 170.67741,140.589189 170.489258,141.408203 C170.301106,142.227218 170.207031,143.444653 170.207031,145.060547 L170.207031,161.794922 L172.066406,161.794922 C174.279959,161.794922 176.00097,161.307948 177.229492,160.333984 L177.229492,160.333984 Z M212.917969,138.087891 L215.341797,138.054688 C221.982455,137.921874 225.623695,137.855469 226.265625,137.855469 C235.673224,137.855469 242.706682,139.858704 247.366211,143.865234 C252.025739,147.871765 254.355469,153.715456 254.355469,161.396484 C254.355469,166.332707 253.215506,170.654604 250.935547,174.362305 C248.655588,178.070006 245.362977,180.936513 241.057617,182.961914 C236.752257,184.987315 231.622426,186 225.667969,186 C225.003903,186 223.421236,185.966797 220.919922,185.900391 C218.418607,185.833984 216.603521,185.800781 215.474609,185.800781 C210.162083,185.800781 206.21095,185.867187 203.621094,186 L203.621094,184.638672 C205.082039,184.572265 206.138994,184.395184 206.791992,184.107422 C207.44499,183.81966 207.887694,183.288415 208.120117,182.513672 C208.35254,181.738928 208.46875,180.499357 208.46875,178.794922 L208.46875,145.060547 C208.46875,143.356111 208.347006,142.11654 208.103516,141.341797 C207.860025,140.567053 207.411787,140.035809 206.758789,139.748047 C206.105791,139.460285 205.059903,139.283203 203.621094,139.216797 L203.621094,137.855469 C206.919287,138.010417 210.018215,138.087891 212.917969,138.087891 L212.917969,138.087891 Z M222.646484,182.59668 C222.912111,183.404626 223.404619,183.969074 224.124023,184.290039 C224.843428,184.611004 225.922519,184.771484 227.361328,184.771484 C231.85484,184.771484 235.097646,182.834655 237.089844,178.960938 C239.082041,175.08722 240.078125,169.321002 240.078125,161.662109 C240.078125,153.981081 239.048838,148.29787 236.990234,144.612305 C234.93163,140.926739 231.699892,139.083984 227.294922,139.083984 C225.878248,139.083984 224.815759,139.244465 224.107422,139.56543 C223.399085,139.886395 222.912111,140.456376 222.646484,141.275391 C222.380858,142.094405 222.248047,143.311841 222.248047,144.927734 L222.248047,178.927734 C222.248047,180.565763 222.380858,181.788733 222.646484,182.59668 L222.646484,182.59668 Z M279.075195,139.748047 C278.422197,140.035809 277.979493,140.567053 277.74707,141.341797 C277.514647,142.11654 277.398438,143.356111 277.398438,145.060547 L277.398438,178.794922 C277.398438,180.499357 277.520181,181.738928 277.763672,182.513672 C278.007163,183.288415 278.4554,183.81966 279.108398,184.107422 C279.761396,184.395184 280.807284,184.572265 282.246094,184.638672 L282.246094,186 C279.58983,185.867187 275.804712,185.800781 270.890625,185.800781 C265.401014,185.800781 261.361341,185.867187 258.771484,186 L258.771484,184.638672 C260.232429,184.572265 261.289385,184.395184 261.942383,184.107422 C262.595381,183.81966 263.038085,183.288415 263.270508,182.513672 C263.502931,181.738928 263.619141,180.499357 263.619141,178.794922 L263.619141,145.060547 C263.619141,143.356111 263.497397,142.11654 263.253906,141.341797 C263.010415,140.567053 262.562178,140.035809 261.90918,139.748047 C261.256182,139.460285 260.210294,139.283203 258.771484,139.216797 L258.771484,137.855469 C261.361341,137.988282 265.401014,138.054688 270.890625,138.054688 C275.804712,138.054688 279.58983,137.988282 282.246094,137.855469 L282.246094,139.216797 C280.785149,139.283203 279.728193,139.460285 279.075195,139.748047 L279.075195,139.748047 Z M329.162109,140.677734 C328.498044,141.3418 328.049806,142.354485 327.817383,143.71582 C327.58496,145.077155 327.46875,147.108059 327.46875,149.808594 L327.46875,186 C326.804684,185.933593 326.063155,185.900391 325.244141,185.900391 C324.447262,185.900391 323.595057,185.933593 322.6875,186 L292.572266,153.095703 L292.572266,172.685547 C292.572266,176.028012 292.705077,178.42968 292.970703,179.890625 C293.236329,181.35157 293.83398,182.430661 294.763672,183.12793 C295.693364,183.825199 297.253895,184.328774 299.445312,184.638672 L299.445312,186 C297.630199,185.867187 295.084652,185.800781 291.808594,185.800781 C289.417957,185.800781 287.536465,185.867187 286.164062,186 L286.164062,184.638672 C287.580736,184.328774 288.626624,183.8418 289.301758,183.177734 C289.976891,182.513669 290.430663,181.500983 290.663086,180.139648 C290.895509,178.778314 291.011719,176.747409 291.011719,174.046875 L291.011719,145.060547 C291.011719,143.356111 290.889975,142.11654 290.646484,141.341797 C290.402994,140.567053 289.954756,140.035809 289.301758,139.748047 C288.64876,139.460285 287.602872,139.283203 286.164062,139.216797 L286.164062,137.855469 C287.536465,137.988282 289.417957,138.054688 291.808594,138.054688 C294.309908,138.054688 296.401684,137.988282 298.083984,137.855469 L325.875,167.240234 L325.875,151.169922 C325.875,147.827457 325.742189,145.425789 325.476562,143.964844 C325.210936,142.503899 324.61882,141.424808 323.700195,140.727539 C322.781571,140.03027 321.226573,139.526694 319.035156,139.216797 L319.035156,137.855469 C320.872405,137.988282 323.406885,138.054688 326.638672,138.054688 C329.051444,138.054688 330.932936,137.988282 332.283203,137.855469 L332.283203,139.216797 C330.866529,139.526694 329.826175,140.013669 329.162109,140.677734 L329.162109,140.677734 Z M377.547852,183.34375 C377.182615,182.524735 376.67904,182.115234 376.037109,182.115234 C375.085282,182.115234 373.546886,182.635411 371.421875,183.675781 C366.906227,185.867198 363.076839,186.962891 359.933594,186.962891 C354.31117,186.962891 349.596373,185.994476 345.789062,184.057617 C341.981752,182.120759 339.126312,179.315123 337.222656,175.640625 C335.319001,171.966127 334.367188,167.528021 334.367188,162.326172 C334.367188,157.323543 335.485015,152.896504 337.720703,149.044922 C339.956391,145.19334 343.07192,142.205089 347.067383,140.080078 C351.062845,137.955067 355.617162,136.892578 360.730469,136.892578 C363.652358,136.892578 366.148102,137.279944 368.217773,138.054688 C370.287445,138.829431 372.196606,139.914056 373.945312,141.308594 C374.388023,141.729169 374.841795,141.939453 375.306641,141.939453 C375.771487,141.939453 376.136717,141.612959 376.402344,140.959961 C376.66797,140.306963 376.867187,139.272143 377,137.855469 L378.560547,137.855469 C378.383463,141.06512 378.294922,146.73173 378.294922,154.855469 L376.734375,154.855469 C376.51302,152.486967 376.192059,150.483732 375.771484,148.845703 C375.350909,147.207674 374.720056,145.746751 373.878906,144.462891 C373.037756,143.17903 371.897794,142.039067 370.458984,141.042969 C369.529292,140.401038 368.4336,139.902997 367.171875,139.548828 C365.91015,139.19466 364.670579,139.017578 363.453125,139.017578 C360.199202,139.017578 357.565114,140.163074 355.550781,142.454102 C353.536448,144.745129 352.108728,147.633772 351.267578,151.120117 C350.426428,154.606463 350.005859,158.253236 350.005859,162.060547 C350.005859,169.96293 350.974274,175.86196 352.911133,179.757812 C354.847991,183.653665 357.520816,185.601562 360.929688,185.601562 C362.346361,185.601562 363.464189,185.324873 364.283203,184.771484 C365.235031,184.107419 365.710938,182.978524 365.710938,181.384766 L365.710938,174.578125 C365.710938,172.298166 365.533856,170.632492 365.179688,169.581055 C364.825519,168.529617 364.183598,167.804689 363.253906,167.40625 C362.324214,167.007811 360.852224,166.764323 358.837891,166.675781 L358.837891,165.314453 C361.693374,165.469402 366.020804,165.546875 371.820312,165.546875 C376.645857,165.546875 380.143218,165.469402 382.3125,165.314453 L382.3125,166.675781 C381.47135,166.764323 380.868166,166.946939 380.50293,167.223633 C380.137693,167.500327 379.883139,168.026038 379.739258,168.800781 C379.595377,169.575525 379.523438,170.815096 379.523438,172.519531 L379.523438,186 L378.162109,186 C378.117838,185.048172 377.913088,184.162765 377.547852,183.34375 L377.547852,183.34375 Z" id="BOARDING" fill="#616161"></path>
        <path d="M19.8085938,11.3554688 L19.8085938,12.15625 L15.0820312,12.15625 L15.0820312,28.2890625 C15.0820312,29.0833373 15.225259,29.6464827 15.5117188,29.9785156 C15.7981785,30.3105485 16.2408824,30.4765625 16.8398438,30.4765625 C17.9726619,30.4765625 18.8776008,29.6757893 19.5546875,28.0742188 L20.2382812,28.4453125 C19.2356721,31.1927221 17.4127736,32.5664062 14.7695312,32.5664062 C13.01171,32.5664062 11.6770879,32.1106816 10.765625,31.1992188 C10.2057264,30.652341 9.8248708,29.9589886 9.62304688,29.1191406 C9.42122295,28.2792927 9.3203125,27.1171949 9.3203125,25.6328125 L9.3203125,12.15625 L5.9609375,12.15625 L5.9609375,11.3554688 L9.3203125,11.3554688 L9.3203125,6.04296875 C11.5208443,6.04296875 13.441398,5.61328555 15.0820312,4.75390625 L15.0820312,11.3554688 L19.8085938,11.3554688 Z M45.5371094,11.8339844 C46.4941454,11.1243454 47.5781189,10.7695312 48.7890625,10.7695312 C49.5963582,10.7695312 50.2734348,10.9453107 50.8203125,11.296875 C51.3671902,11.6484393 51.770832,12.1009087 52.03125,12.6542969 C52.291668,13.2076851 52.421875,13.8033822 52.421875,14.4414062 C52.421875,15.4309945 52.1354195,16.2382781 51.5625,16.8632812 C50.9895805,17.4882844 50.2343797,17.8007812 49.296875,17.8007812 C48.3854121,17.8007812 47.6660183,17.5696638 47.1386719,17.1074219 C46.6113255,16.64518 46.3476562,16.0234414 46.3476562,15.2421875 C46.3476562,13.9661395 46.9335879,12.9244832 48.1054688,12.1171875 C47.9361971,12.0781248 47.7734383,12.0585938 47.6171875,12.0585938 C47.4348949,12.0585938 47.2265637,12.0911455 46.9921875,12.15625 C46.3151008,12.2604172 45.6966174,12.5826796 45.1367188,13.1230469 C44.5768201,13.6634142 44.1373714,14.3111941 43.8183594,15.0664062 C43.4993474,15.8216184 43.3398438,16.5572881 43.3398438,17.2734375 L43.3398438,27.8789062 C43.3398438,29.1158916 43.6393199,29.9720028 44.2382812,30.4472656 C44.8372426,30.9225284 45.7942643,31.1601562 47.109375,31.1601562 L47.109375,32 C43.776025,31.8958328 41.6536504,31.84375 40.7421875,31.84375 C39.8958291,31.84375 37.9882961,31.8958328 35.0195312,32 L35.0195312,31.1601562 C35.6575553,31.1601562 36.1621075,31.0755217 36.5332031,30.90625 C36.9042987,30.7369783 37.1712231,30.4440125 37.3339844,30.0273438 C37.4967456,29.610675 37.578125,29.0312537 37.578125,28.2890625 L37.578125,15.671875 C37.578125,14.4348896 37.3893248,13.5397163 37.0117188,12.9863281 C36.6341127,12.4329399 35.9700568,12.15625 35.0195312,12.15625 L35.0195312,11.3164062 C35.8658896,11.3945316 36.6927043,11.4335938 37.5,11.4335938 C39.8567826,11.4335938 41.8033777,11.2513039 43.3398438,10.8867188 L43.3398438,14.5976562 C43.8476588,13.4648381 44.5800733,12.5436233 45.5371094,11.8339844 L45.5371094,11.8339844 Z M77.9746094,12.5078125 C77.447263,11.8697885 76.6237035,11.5507812 75.5039062,11.5507812 C74.9830703,11.5507812 74.4622422,11.6321606 73.9414062,11.7949219 C73.4205703,11.9576831 72.9908871,12.2018213 72.6523438,12.5273438 C73.394535,12.7747408 73.9739563,13.1621067 74.390625,13.6894531 C74.8072937,14.2167995 75.015625,14.8776002 75.015625,15.671875 C75.015625,16.2187527 74.8821628,16.7102843 74.6152344,17.1464844 C74.348306,17.5826845 73.9674504,17.9277331 73.4726562,18.1816406 C72.9778621,18.4355481 72.4114615,18.5625 71.7734375,18.5625 C70.9140582,18.5625 70.2272161,18.2695342 69.7128906,17.6835938 C69.1985651,17.0976533 68.9414062,16.3619836 68.9414062,15.4765625 C68.9414062,14.0963473 69.6835863,12.9765668 71.1679688,12.1171875 C72.7955811,11.2187455 74.8268107,10.7695312 77.2617188,10.7695312 C79.9961074,10.7695312 81.9427025,11.3684836 83.1015625,12.5664062 C83.6614611,13.1263049 84.0390615,13.8229125 84.234375,14.65625 C84.4296885,15.4895875 84.5273438,16.6549404 84.5273438,18.1523438 L84.5273438,29.03125 C84.5273438,29.6822949 84.5891921,30.1412747 84.7128906,30.4082031 C84.8365892,30.6751315 85.0546859,30.8085938 85.3671875,30.8085938 C85.7968771,30.8085938 86.2916639,30.5807314 86.8515625,30.125 L87.2617188,30.8085938 C86.6497365,31.3164088 85.9856807,31.6874988 85.2695312,31.921875 C84.5533818,32.1562512 83.6940154,32.2734375 82.6914062,32.2734375 C81.3372328,32.2734375 80.3606801,31.9739613 79.7617188,31.375 C79.1627574,30.7760387 78.8632812,29.9947965 78.8632812,29.03125 C78.2122363,30.1119846 77.3593803,30.9225233 76.3046875,31.4628906 C75.2499947,32.0032579 74.1237039,32.2734375 72.9257812,32.2734375 C71.4023361,32.2734375 70.1816452,31.8730509 69.2636719,31.0722656 C68.3456985,30.2714804 67.8867188,29.1549551 67.8867188,27.7226562 C67.8867188,26.3294201 68.3424434,25.1770879 69.2539062,24.265625 C70.1653691,23.3541621 71.5781154,22.5468785 73.4921875,21.84375 C73.7005219,21.7656246 74.3775984,21.5084657 75.5234375,21.0722656 C76.6692766,20.6360655 77.4960912,20.1901064 78.0039062,19.734375 C78.5117213,19.2786436 78.765625,18.7773465 78.765625,18.2304688 L78.765625,15.125 C78.765625,14.0182236 78.5019558,13.1458365 77.9746094,12.5078125 L77.9746094,12.5078125 Z M77.9355469,20.7597656 C77.5514304,21.0657567 77.0013057,21.440102 76.2851562,21.8828125 C75.4387979,22.4687529 74.774742,23.1295536 74.2929688,23.8652344 C73.8111955,24.6009151 73.5703125,25.5156195 73.5703125,26.609375 C73.5703125,27.6510469 73.7981748,28.4290339 74.2539062,28.9433594 C74.7096377,29.4576849 75.30859,29.7148438 76.0507812,29.7148438 C77.105474,29.7148438 78.0104129,29.1679742 78.765625,28.0742188 L78.765625,19.8710938 C78.5963533,20.1575535 78.3196634,20.4537745 77.9355469,20.7597656 L77.9355469,20.7597656 Z M117.296875,10.7695312 C118.39063,10.7695312 119.285804,10.8997383 119.982422,11.1601562 C120.67904,11.4205742 121.248696,11.804685 121.691406,12.3125 C122.134117,12.820315 122.453124,13.4778605 122.648438,14.2851562 C122.843751,15.092452 122.941406,16.1731703 122.941406,17.5273438 L122.941406,28.2890625 C122.941406,29.0312537 123.026041,29.610675 123.195312,30.0273438 C123.364584,30.4440125 123.631509,30.7369783 123.996094,30.90625 C124.360679,31.0755217 124.861976,31.1601562 125.5,31.1601562 L125.5,32 C122.843737,31.8958328 121.085942,31.84375 120.226562,31.84375 C119.406246,31.84375 117.667982,31.8958328 115.011719,32 L115.011719,31.1601562 C115.558596,31.1601562 115.98828,31.0755217 116.300781,30.90625 C116.613283,30.7369783 116.83789,30.4440125 116.974609,30.0273438 C117.111329,29.610675 117.179688,29.0312537 117.179688,28.2890625 L117.179688,15.8476562 C117.179688,14.7539008 117.000653,13.9270861 116.642578,13.3671875 C116.284503,12.8072889 115.636723,12.5273438 114.699219,12.5273438 C113.970048,12.5273438 113.302737,12.7291646 112.697266,13.1328125 C112.091794,13.5364604 111.613283,14.0930954 111.261719,14.8027344 C110.910154,15.5123733 110.734375,16.2968707 110.734375,17.15625 L110.734375,28.2890625 C110.734375,29.0312537 110.805989,29.610675 110.949219,30.0273438 C111.092449,30.4440125 111.320311,30.7369783 111.632812,30.90625 C111.945314,31.0755217 112.368487,31.1601562 112.902344,31.1601562 L112.902344,32 C110.454415,31.8958328 108.800786,31.84375 107.941406,31.84375 C107.12109,31.84375 105.27866,31.8958328 102.414062,32 L102.414062,31.1601562 C103.052087,31.1601562 103.556639,31.0755217 103.927734,30.90625 C104.29883,30.7369783 104.565754,30.4440125 104.728516,30.0273438 C104.891277,29.610675 104.972656,29.0312537 104.972656,28.2890625 L104.972656,15.671875 C104.972656,14.4348896 104.783856,13.5397163 104.40625,12.9863281 C104.028644,12.4329399 103.364588,12.15625 102.414062,12.15625 L102.414062,11.3164062 C103.260421,11.3945316 104.087236,11.4335938 104.894531,11.4335938 C107.251314,11.4335938 109.197909,11.2513039 110.734375,10.8867188 L110.734375,14.4804688 C111.945319,12.006498 114.132797,10.7695312 117.296875,10.7695312 L117.296875,10.7695312 Z M144.529297,29.6953125 C145.395187,30.9974023 146.622388,31.6484375 148.210938,31.6484375 C148.992191,31.6484375 149.659502,31.4108097 150.212891,30.9355469 C150.766279,30.4602841 151.042969,29.7474006 151.042969,28.796875 C151.042969,28.0546838 150.876955,27.3906279 150.544922,26.8046875 C150.212889,26.2187471 149.792971,25.6979189 149.285156,25.2421875 C148.777341,24.7864561 148.01563,24.1614623 147,23.3671875 C145.763015,22.3645783 144.83529,21.5768258 144.216797,21.0039062 C143.598304,20.4309867 143.067711,19.750655 142.625,18.9628906 C142.182289,18.1751263 141.960938,17.2799529 141.960938,16.2773438 C141.960938,15.1315047 142.273434,14.1419312 142.898438,13.3085938 C143.523441,12.4752563 144.363276,11.8437521 145.417969,11.4140625 C146.472662,10.9843729 147.618483,10.7695312 148.855469,10.7695312 C149.871099,10.7695312 150.802079,10.8932279 151.648438,11.140625 C152.494796,11.3880221 153.158852,11.6744775 153.640625,12 C153.901043,12.1822926 154.135416,12.2734375 154.34375,12.2734375 C154.838544,12.2734375 155.151041,11.7851611 155.28125,10.8085938 L156.160156,10.8085938 C156.055989,12.1497463 156.003906,14.4934729 156.003906,17.8398438 L155.125,17.8398438 C154.890624,16.0950434 154.366541,14.6269591 153.552734,13.4355469 C152.738928,12.2441347 151.557299,11.6484375 150.007812,11.6484375 C149.213538,11.6484375 148.562503,11.8762998 148.054688,12.3320312 C147.546872,12.7877627 147.292969,13.4127564 147.292969,14.2070312 C147.292969,15.1054732 147.592445,15.8802051 148.191406,16.53125 C148.790368,17.1822949 149.513017,17.8072887 150.359375,18.40625 C151.205733,19.0052113 151.824217,19.4544256 152.214844,19.7539062 C153.308599,20.5742229 154.177731,21.2903615 154.822266,21.9023438 C155.4668,22.514326 155.990883,23.2076784 156.394531,23.9824219 C156.798179,24.7571653 157,25.6458283 157,26.6484375 C157,27.8203184 156.658207,28.8554643 155.974609,29.7539062 C155.291012,30.6523482 154.369797,31.3457007 153.210938,31.8339844 C152.052078,32.3222681 150.782559,32.5664062 149.402344,32.5664062 C147.983066,32.5664062 146.746099,32.2864611 145.691406,31.7265625 C144.897131,31.3229146 144.272138,31.0429695 143.816406,30.8867188 C143.738281,30.860677 143.673177,30.8476562 143.621094,30.8476562 C143.191404,30.8476562 142.878907,31.3229119 142.683594,32.2734375 L141.804688,32.2734375 C141.908855,30.7499924 141.960938,28.0872586 141.960938,24.2851562 L142.839844,24.2851562 C143.100262,26.5898553 143.663407,28.3932227 144.529297,29.6953125 L144.529297,29.6953125 Z M200.941406,11.4335938 C202.282559,11.4335938 203.298174,11.3945316 203.988281,11.3164062 L203.988281,12.1171875 C203.428383,12.2734383 202.920575,12.6087214 202.464844,13.1230469 C202.009112,13.6373724 201.611981,14.4479111 201.273438,15.5546875 L195.941406,32.078125 C195.511717,32.0390623 195.075523,32.0195312 194.632812,32.0195312 C194.203123,32.0195312 193.77344,32.0390623 193.34375,32.078125 L187.894531,17.234375 L183.460938,32.078125 C183.05729,32.0390623 182.627606,32.0195312 182.171875,32.0195312 C181.755206,32.0195312 181.319013,32.0390623 180.863281,32.078125 L174.535156,14.4023438 C174.01432,12.9049404 173.246099,12.15625 172.230469,12.15625 L172.230469,11.3164062 C173.949227,11.472657 175.837229,11.5507812 177.894531,11.5507812 C179.235684,11.5507812 180.973948,11.472657 183.109375,11.3164062 L183.109375,12.15625 C182.523435,12.15625 182.0612,12.1790362 181.722656,12.2246094 C181.384113,12.2701825 181.113933,12.3776033 180.912109,12.546875 C180.710285,12.7161467 180.609375,12.9765607 180.609375,13.328125 C180.609375,13.588543 180.680989,13.9466123 180.824219,14.4023438 L184.457031,25.7109375 L188.792969,11.2773438 C189.131512,11.2903646 189.619788,11.296875 190.257812,11.296875 C190.908857,11.296875 191.390623,11.2903646 191.703125,11.2773438 L196.878906,26.5507812 L199.417969,18.5234375 C199.782554,17.3515566 199.964844,16.3359418 199.964844,15.4765625 C199.964844,13.4322814 198.916677,12.312501 196.820312,12.1171875 L196.820312,11.3164062 C198.070319,11.3945316 199.444003,11.4335938 200.941406,11.4335938 L200.941406,11.4335938 Z M235.830078,13.3867188 C237.568368,15.1315191 238.4375,17.8984186 238.4375,21.6875 C238.4375,25.4635605 237.568368,28.2206944 235.830078,29.9589844 C234.091788,31.6972743 231.699234,32.5664062 228.652344,32.5664062 C225.605454,32.5664062 223.209644,31.6972743 221.464844,29.9589844 C219.720043,28.2206944 218.847656,25.4635605 218.847656,21.6875 C218.847656,17.9114395 219.720043,15.1477952 221.464844,13.3964844 C223.209644,11.6451735 225.605454,10.7695312 228.652344,10.7695312 C231.699234,10.7695312 234.091788,11.6419184 235.830078,13.3867188 L235.830078,13.3867188 Z M225.908203,14.0507812 C225.224606,15.7174562 224.882812,18.2630037 224.882812,21.6875 C224.882812,25.0989754 225.224606,27.6315021 225.908203,29.2851562 C226.5918,30.9388104 227.506505,31.765625 228.652344,31.765625 C229.811204,31.765625 230.725908,30.9420655 231.396484,29.2949219 C232.067061,27.6477782 232.402344,25.1119963 232.402344,21.6875 C232.402344,18.2499828 232.067061,15.7011802 231.396484,14.0410156 C230.725908,12.3808511 229.811204,11.5507812 228.652344,11.5507812 C227.506505,11.5507812 226.5918,12.3841063 225.908203,14.0507812 L225.908203,14.0507812 Z M265.435547,11.8339844 C266.392583,11.1243454 267.476556,10.7695312 268.6875,10.7695312 C269.494796,10.7695312 270.171872,10.9453107 270.71875,11.296875 C271.265628,11.6484393 271.66927,12.1009087 271.929688,12.6542969 C272.190105,13.2076851 272.320312,13.8033822 272.320312,14.4414062 C272.320312,15.4309945 272.033857,16.2382781 271.460938,16.8632812 C270.888018,17.4882844 270.132817,17.8007812 269.195312,17.8007812 C268.28385,17.8007812 267.564456,17.5696638 267.037109,17.1074219 C266.509763,16.64518 266.246094,16.0234414 266.246094,15.2421875 C266.246094,13.9661395 266.832025,12.9244832 268.003906,12.1171875 C267.834635,12.0781248 267.671876,12.0585938 267.515625,12.0585938 C267.333332,12.0585938 267.125001,12.0911455 266.890625,12.15625 C266.213538,12.2604172 265.595055,12.5826796 265.035156,13.1230469 C264.475258,13.6634142 264.035809,14.3111941 263.716797,15.0664062 C263.397785,15.8216184 263.238281,16.5572881 263.238281,17.2734375 L263.238281,27.8789062 C263.238281,29.1158916 263.537757,29.9720028 264.136719,30.4472656 C264.73568,30.9225284 265.692702,31.1601562 267.007812,31.1601562 L267.007812,32 C263.674463,31.8958328 261.552088,31.84375 260.640625,31.84375 C259.794267,31.84375 257.886734,31.8958328 254.917969,32 L254.917969,31.1601562 C255.555993,31.1601562 256.060545,31.0755217 256.431641,30.90625 C256.802736,30.7369783 257.069661,30.4440125 257.232422,30.0273438 C257.395183,29.610675 257.476562,29.0312537 257.476562,28.2890625 L257.476562,15.671875 C257.476562,14.4348896 257.287762,13.5397163 256.910156,12.9863281 C256.53255,12.4329399 255.868494,12.15625 254.917969,12.15625 L254.917969,11.3164062 C255.764327,11.3945316 256.591142,11.4335938 257.398438,11.4335938 C259.75522,11.4335938 261.701815,11.2513039 263.238281,10.8867188 L263.238281,14.5976562 C263.746096,13.4648381 264.478511,12.5436233 265.435547,11.8339844 L265.435547,11.8339844 Z M294.962891,30.0273438 C295.125652,30.4440125 295.392576,30.7369783 295.763672,30.90625 C296.134767,31.0755217 296.63932,31.1601562 297.277344,31.1601562 L297.277344,32 C294.516913,31.8958328 292.733077,31.84375 291.925781,31.84375 C291.001297,31.84375 289.158868,31.8958328 286.398438,32 L286.398438,31.1601562 C287.036462,31.1601562 287.537759,31.0755217 287.902344,30.90625 C288.266929,30.7369783 288.533853,30.4440125 288.703125,30.0273438 C288.872397,29.610675 288.957031,29.0312537 288.957031,28.2890625 L288.957031,5.4765625 C288.957031,4.23957715 288.764976,3.34440381 288.380859,2.79101562 C287.996743,2.23762744 287.335942,1.9609375 286.398438,1.9609375 L286.398438,1.12109375 C287.244796,1.19921914 288.071611,1.23828125 288.878906,1.23828125 C291.222668,1.23828125 293.169263,1.04948105 294.71875,0.671875 L294.71875,28.2890625 C294.71875,29.0312537 294.800129,29.610675 294.962891,30.0273438 L294.962891,30.0273438 Z M333.259766,30.2910156 C333.630861,30.8444038 334.298172,31.1210938 335.261719,31.1210938 L335.261719,31.9609375 C334.41536,31.8828121 333.588546,31.84375 332.78125,31.84375 C330.424467,31.84375 328.477872,32.0260398 326.941406,32.390625 L326.941406,28.953125 C326.042964,31.3619912 324.311211,32.5664062 321.746094,32.5664062 C320.118481,32.5664062 318.689459,32.17253 317.458984,31.3847656 C316.228509,30.5970013 315.271488,29.3795655 314.587891,27.7324219 C313.904293,26.0852782 313.56901,24.024752 313.582031,21.5507812 C313.56901,19.2070195 313.943356,17.2278727 314.705078,15.6132812 C315.466801,13.9986898 316.521478,12.7877645 317.869141,11.9804688 C319.216804,11.173173 320.763012,10.7695312 322.507812,10.7695312 C324.473968,10.7695312 325.951818,11.2708283 326.941406,12.2734375 L326.941406,5.4765625 C326.941406,4.23957715 326.749351,3.34440381 326.365234,2.79101562 C325.981118,2.23762744 325.320317,1.9609375 324.382812,1.9609375 L324.382812,1.12109375 C325.229171,1.19921914 326.055986,1.23828125 326.863281,1.23828125 C329.207043,1.23828125 331.153638,1.04948105 332.703125,0.671875 L332.703125,27.6054688 C332.703125,28.8424541 332.88867,29.7376274 333.259766,30.2910156 L333.259766,30.2910156 Z M324.011719,11.921875 C322.605462,11.921875 321.518233,12.7356689 320.75,14.3632812 C319.981767,15.9908936 319.604167,18.4192547 319.617188,21.6484375 C319.578125,27.7812807 320.834623,30.8476562 323.386719,30.8476562 C323.959638,30.8476562 324.499997,30.7044285 325.007812,30.4179688 C325.515628,30.131509 325.942056,29.7181017 326.287109,29.1777344 C326.632163,28.6373671 326.85026,28.0091182 326.941406,27.2929688 L326.941406,13.2890625 C326.26432,12.3775996 325.287767,11.921875 324.011719,11.921875 L324.011719,11.921875 Z" id="transworld" fill="#C5B358"></path>
    </g>
</svg>
